<svg xmlns="http://www.w3.org/2000/svg" viewBox="0 0 316.02 364.65"><defs><style>.cls-1{fill:#e9e9e9;}.cls-2{fill:#67f56e;}.cls-3{fill:#ffa8a7;}.cls-4{fill:#f567b0;}.cls-20,.cls-23,.cls-28,.cls-32,.cls-33,.cls-36,.cls-5{fill:#fff;}.cls-17,.cls-5{opacity:0.6;}.cls-10,.cls-15,.cls-17,.cls-20,.cls-23,.cls-25,.cls-32,.cls-33,.cls-34,.cls-36,.cls-5{isolation:isolate;}.cls-6{fill:#37474f;}.cls-17,.cls-7{fill:#263238;}.cls-8{fill:#455a64;}.cls-9{opacity:0.25;}.cls-10,.cls-35{opacity:0.2;}.cls-11{fill:#ebebeb;}.cls-12{fill:#fafafa;}.cls-13{fill:#e0e0e0;}.cls-14{fill:#f28f8f;}.cls-15,.cls-31,.cls-33{opacity:0.1;}.cls-16{fill:#b16668;}.cls-18{fill:#f0f0f0;}.cls-19{fill:#9a4a4d;}.cls-20{opacity:0.7;}.cls-21{fill:#f5f5f5;}.cls-22{fill:#ffbda7;}.cls-23{opacity:0.75;}.cls-24{fill:#f0997a;}.cls-25,.cls-30{opacity:0.3;}.cls-26,.cls-34{opacity:0.15;}.cls-27{opacity:0.03;}.cls-29{opacity:0.4;}.cls-32{opacity:0.5;}.cls-36{opacity:0.55;}</style></defs><g id="Layer_2" data-name="Layer 2"><g id="Layer_1-2" data-name="Layer 1"><ellipse class="cls-1" cx="155.61" cy="329.03" rx="135.53" ry="35.62"/><circle class="cls-2" cx="248.21" cy="275.44" r="21.47"/><g id="freepik--character-3--inject-2"><g id="freepik--Character--inject-2"><path class="cls-3" d="M219.22,88.08c-.45-3.3,6.2-21.39,9.85-29.88,3.2-7.44,5.63-7,11.15-7.34l.13,12.77L229.29,88.22"/><path class="cls-4" d="M254.07,50.7l6.86.57c-1.55,9.68,4.46,18.91,4.46,18.91l-4.08,13.25c.11,1.76,4.94,7.86,7.11,15.67-5,7.1-25.46,9.59-33.52,3.36,0-4.36-.13-10.4.11-12.95l-1.36-12.44c-10.1-8.73,2.09-22,6.57-26.25h4.2Z"/><path class="cls-5" d="M254.07,50.7l6.86.57c-1.55,9.68,4.46,18.91,4.46,18.91l-4.08,13.25c.11,1.76,4.94,7.86,7.11,15.67-5,7.1-25.46,9.59-33.52,3.36,0-4.36-.13-10.4.11-12.95l-1.36-12.44c-10.1-8.73,2.09-22,6.57-26.25h4.2Z"/><path class="cls-3" d="M275.39,211.38s2-24.13.46-35.54c-1.28-9.8-2.78-13.9-3.05-16.14,0,0-2.3-23.07-2.49-42.67-.09-9.31-.86-19.52-7.48-30.26l-.24-.42c-.45,3.61-5.63,6.11-10.3,6.83-4.49.68-10.16-.07-16.95-2.26-1.2,9.34-2.35,27.1-3.47,46.46-.55,9.46-.16,17.39-.11,23.46.05,8.24,1.92,44.87,1.92,44.87v1.36a12.79,12.79,0,0,1-1.23,5,29.49,29.49,0,0,1-4.89,8.53c-.65.75-5.15,4.88-5.72,5.77-1.94,2.38,2.06,3.71,5,3.3,3.14-.45,8-1.7,9.4-3.72.92-1.33,1.62-6,2.56-7.39,3.19-4.6,4.51-6.56,4.53-8,0-2.65-.82-3.7-1.13-5.19.26-3.13,5.61-24,5.73-33.14a100.53,100.53,0,0,0-1.1-12l4.29-31.77c1.43,8.84,4.29,28.77,5.31,35.11,1.38,8.73,6.1,27.85,9.06,39.4a64.43,64.43,0,0,1,2,9.13l.1,1c.07,1.3.6,15.08,1.08,18,1,6.08,6.15,5.28,7,.4.71-4.19-.18-17.14-.2-18.73Z"/><path class="cls-6" d="M275.56,211.3c1.43,0,.49,5.92.86,9.72.41,4.07,1.67,7,2,10.38a14.16,14.16,0,0,1-1.21,8.54c-1,2.45-6.09,5.79-8,2.27a21,21,0,0,1-2.15-11.27c.23-3.93.45-6.78.53-9.8.07-2.63-1.86-8.81,0-9.19l.09,1c.68,1.41,7.1,2.39,7.88-.34Z"/><path class="cls-7" d="M243.85,213.65c.45,1.9,0,7.11,0,7.11a6.8,6.8,0,0,1-3.58,3L239,216.53Z"/><polygon points="240.27 223.76 234.13 221.64 232.64 215.89 239.54 219.57 240.27 223.76"/><path class="cls-6" d="M233.88,207l0-1.36c-.83.43-2.67,7.54-5.16,12.36-2.26,4.43-6.75,6.9-8.21,8.83-1.95,2.58,1.84,5.9,7.93,4.52,3-.67,7.59-2.71,8.83-4.86s1.66-6.09,2.68-7.67,3.42-3.4,3.93-5.19a10.15,10.15,0,0,0,0-5c-.48-1.64-.89-3.61-1.43-3.44l0,1.25c-.4.87-1.87,1.89-4.95,2.07C236,208.65,234.55,208.41,233.88,207Z"/><path class="cls-8" d="M235,89.51s1.86,3.17,14,2.73,13.54-5.95,13.54-5.95a73.23,73.23,0,0,1,5.84,10.19c2.14,4.91,3.17,12.29,3.5,23.37s1.68,40.22,1.68,40.22,1.74,6.74,2.28,10.39c0,0-4.46,6.08-17.08,4a72,72,0,0,1-2.86-10.86c-.65-4.58-4.57-34.06-4.57-34.06l-3.45,31.21s1.49,9,.38,14.44c0,0-8.54,3.81-16.31-.76,0,0-.81-15.44-.76-21.51.06-7.12.19-13.34,1-29.32C232.87,111.61,235,89.51,235,89.51Z"/><path class="cls-6" d="M251.37,129.55l-3.32-20.14s-4.29,0-8.74-4.41c0,0,.78,4.52,6.58,6.85l4.05,17.83-1.51,26.53Z"/><path class="cls-3" d="M260.93,51.27a8,8,0,0,1,8.86,4.52c1.62,3.42,12.4,23.05,14.76,28.51.64,1.51-1.95,10.19-6.36,7.79S265,71.4,265,71.4,256.06,60.77,260.93,51.27Z"/><g class="cls-9"><path d="M270.74,59.67a.07.07,0,0,0,0,.06h0a.82.82,0,0,0,.21.75.79.79,0,0,0,.6.28.33.33,0,0,0,.14,0,0,0,0,0,0,0,0h0a.82.82,0,0,0-.2-.75A.83.83,0,0,0,270.74,59.67Zm.21.63a1.33,1.33,0,0,1-.12-.4v0L271,60a.89.89,0,0,1,.31.27,1.73,1.73,0,0,1,.19.28l.06.12a.66.66,0,0,1-.56-.32Zm0-.48a.5.5,0,0,1,.39.18.86.86,0,0,1,.16.38,1.35,1.35,0,0,0-.55-.56Z"/><path d="M271.92,59.91a.81.81,0,0,1-.27-.11l.18,0-.06-.13h0l-.08-.15a.82.82,0,0,0-.23.26.08.08,0,0,0,0,.1h0a.59.59,0,0,0,.51.27C272,60,271.94,60,271.92,59.91Z"/><path d="M265.38,63.63h0v0h.12a1.06,1.06,0,0,0,.81-.48.64.64,0,0,0,.1-.64h0a.08.08,0,0,0-.06-.08h-.07a1,1,0,0,0-.77.43.8.8,0,0,0-.16.67h0Zm.95-.89a.9.9,0,0,1-.25.58.8.8,0,0,1-.5.25,3.91,3.91,0,0,1,.3-.41,3.15,3.15,0,0,1,.37-.36Zm-.65.32a.88.88,0,0,1,.54-.39,3,3,0,0,0-.67.65,1.3,1.3,0,0,1,.14-.26Z"/><path d="M266.83,61.9h0a0,0,0,0,0-.07,0,.83.83,0,0,0-.25.75.88.88,0,0,0,.49.67h.11a.83.83,0,0,0,.21-.69A1,1,0,0,0,266.83,61.9Zm-.19.62a.69.69,0,0,1,.05-.24,1.82,1.82,0,0,0,.19.76A.77.77,0,0,1,266.64,62.52Zm.42.55L267,63a1.71,1.71,0,0,1-.13-.38,1.82,1.82,0,0,1,0-.33v-.2a.92.92,0,0,1,.3.45.73.73,0,0,1-.12.56Z"/><path d="M265.1,62.78h.24a1,1,0,0,0,.34-.06,1.28,1.28,0,0,0,.57-.46,1.75,1.75,0,0,0,.36-.85,1.44,1.44,0,0,0,.27.22A1.19,1.19,0,0,0,267,62a1.32,1.32,0,0,0,1.11.6h.12a.54.54,0,0,0,.46.23h0a1.38,1.38,0,0,0,1.08-.54.38.38,0,0,0,0-.21.72.72,0,0,0,.28-.13,2,2,0,0,0,.52-2,.79.79,0,0,0-.34-.44.86.86,0,0,0,0-.32,1.48,1.48,0,0,0,.82.21h.21l.28-.06-.09-.17a1.61,1.61,0,0,1-.37.07H271a1.43,1.43,0,0,1-.76-.18h0c0-.42.62-.38,1-.35l-.09-.17a1.27,1.27,0,0,0-.39,0l-.2,0a.21.21,0,0,1,0-.11.33.33,0,0,1,.07-.13.35.35,0,0,1,.26-.08H271l-.09-.16h-.06l-.2,0a.86.86,0,0,1,.19-.19c-.12-.25-.24-.47-.36-.69v.1a.79.79,0,0,0,.26.47h0a.31.31,0,0,1-.33-.28.25.25,0,0,1,0-.15.28.28,0,0,1,.08-.15l-.1-.17a.75.75,0,0,0-.09.15.58.58,0,0,0-.21.07.77.77,0,0,1,.21-.41l-.11-.21h0v-.05c-.09-.17-.17-.33-.23-.47a2,2,0,0,0,.14.54,1,1,0,0,1-.24-.75c0-.08-.08-.16-.1-.23h0a.7.7,0,0,0,0,.32,1.14,1.14,0,0,0,.37.81l-.06.12a.81.81,0,0,0-.94-.55v0h0a.82.82,0,0,0,.21.75.84.84,0,0,0,.6.29h0l-.05.07a.67.67,0,0,0-.34.24.45.45,0,0,0-.07.3.7.7,0,0,0-.72.11l-.21-.07a1.29,1.29,0,0,0-1.09.31,1.68,1.68,0,0,0-.66,1,.88.88,0,0,0-.41.44.4.4,0,0,0-.32-.16h0a.59.59,0,0,0-.4.16h-.06a.78.78,0,0,0,.15-.61,1,1,0,0,0-.47-.71h0a.06.06,0,0,0-.08,0h0a.85.85,0,0,0-.24.76.78.78,0,0,0,.19.41H265a1,1,0,0,0-.4-.75.72.72,0,0,0-.71-.17h0a1.16,1.16,0,0,0,.49,1,.56.56,0,0,0,.17.09h0l-.15.08a1.16,1.16,0,0,0-.58.63.4.4,0,0,0,.08.28.45.45,0,0,0-.18.18.48.48,0,0,0-.06.26.46.46,0,0,0-.17.28.37.37,0,0,0,.1.35l.1.08.07,0,.07.08a.83.83,0,0,0-.56,0,.76.76,0,0,0-.43.59h0a.1.1,0,0,0,0,.07.73.73,0,0,0,.73.06.79.79,0,0,0,.48-.55h0a1.26,1.26,0,0,0,.37.32.88.88,0,0,0,.44.12.55.55,0,0,0,.32-.1Zm4.22-5.71a1.33,1.33,0,0,1-.12-.4v0l.11.08a1.18,1.18,0,0,1,.32.27,1.41,1.41,0,0,1,.18.29l.07.11A.61.61,0,0,1,269.32,57.07Zm0-.48a.59.59,0,0,1,.39.18.84.84,0,0,1,.15.38A1.39,1.39,0,0,0,269.36,56.59Zm-.64,4.19c.19.06.31.15.34.24a.19.19,0,0,1,0,.18.63.63,0,0,1-.44.19h0a.7.7,0,0,1-.6-.47.76.76,0,0,1-.06-.47c0-.16.07-.22.18-.22h0c.13,0,.14.05.18.14v.08A.54.54,0,0,0,268.72,60.78Zm-.23-.45c.12-.06.23-.12.34,0a.19.19,0,0,1,.07.2.2.2,0,0,1-.06.12v0h-.09a.56.56,0,0,1-.23-.29Zm0,1.21h.1a.76.76,0,0,0,.58-.27.34.34,0,0,0,.05-.28.75.75,0,0,0,.35-.61.79.79,0,0,1,.22.72.84.84,0,0,1-.65.62l-.17.07a.81.81,0,0,1-.53.09.55.55,0,0,1-.45-.56.67.67,0,0,0,.56.22Zm1.31-1.16a.63.63,0,0,0-.22-.21h0v-.1a.86.86,0,0,0-.72-.64,1.23,1.23,0,0,0-.8.09.78.78,0,0,1,.29-.42,1.13,1.13,0,0,1,1-.07h.07a.55.55,0,0,1,.24.12.7.7,0,0,1,.05.25.54.54,0,0,0,0,.18l.06.18a.71.71,0,0,1,.08.62Zm-1.26-.83h0a.78.78,0,0,1,.85.64.66.66,0,0,1-.24.65.53.53,0,0,0-.2-.13.21.21,0,0,0,.07-.12.43.43,0,0,0-.1-.38.44.44,0,0,0-.33-.11.36.36,0,0,0-.21.11l0-.07a.34.34,0,0,0-.18-.13.31.31,0,0,0-.33.09.75.75,0,0,0-.07.12.6.6,0,0,1,.08-.33.82.82,0,0,1,.71-.34Zm-.72.11h0l0,0a.62.62,0,0,0-.07.75,1.18,1.18,0,0,0,0,.46.9.9,0,0,0,.12.24.37.37,0,0,0-.06.21,1.36,1.36,0,0,1-.72-.46.59.59,0,0,1-.06-.61.18.18,0,0,1,0-.11v-.11a1,1,0,0,1,.34-.65.75.75,0,0,1,.5-.14.63.63,0,0,0-.06.38Zm-.24,2.64a1.15,1.15,0,0,1-.55-.67,1.93,1.93,0,0,1,0-.34.74.74,0,0,0,0-.21,1.21,1.21,0,0,0,.81.46h0a.81.81,0,0,0,.25.37.74.74,0,0,0,.45.15,1.44,1.44,0,0,0,.4-.09,1,1,0,0,1-1.33.33Zm1.64.22a1,1,0,0,1-.78,0,1,1,0,0,0,.71-.63h0a.77.77,0,0,0,.45.18.73.73,0,0,1-.33.4Zm1.11-2.66a1.59,1.59,0,0,1-.43,1.93.72.72,0,0,1-.52,0,.59.59,0,0,0,.35-.18A1.3,1.3,0,0,0,270,61a1,1,0,0,0-.09-.48c.23-.23.1-.64.06-.75s0-.12,0-.18a.66.66,0,0,1,.45.25Zm-.36-2a.57.57,0,0,1,.3-.42v.12a.53.53,0,0,0,.28.43h.05a.65.65,0,0,0-.18.55l-.11-.12a.71.71,0,0,0-.1-.14l-.09-.08a.34.34,0,0,1-.14-.34Zm-.3.07a.27.27,0,0,1,.12-.09V58a.44.44,0,0,0,.19.34l.07.07a.64.64,0,0,1,.13.15.49.49,0,0,0,.22.18.52.52,0,0,0-.19.2,1.61,1.61,0,0,0-.56-.65h0a.27.27,0,0,1,.05-.31Zm.21.83a1.21,1.21,0,0,1,.22.76.81.81,0,0,0-.22,0h0v-.17a.48.48,0,0,0-.07-.2.4.4,0,0,0-.19-.15l-.37-.12a1.18,1.18,0,0,0-.37-.43.87.87,0,0,1,1,.31Zm-2.65.12a1.43,1.43,0,0,1,1.15-.51.85.85,0,0,1,.59.42,1,1,0,0,0-.53.06,1.08,1.08,0,0,0-.43.33.46.46,0,0,0-.41,0,1,1,0,0,0-.68.76h0a1.18,1.18,0,0,1,.34-1.06Zm-.52.88a1.07,1.07,0,0,0,.13.44.88.88,0,0,0,0,.71.71.71,0,0,1,0,.29v.2l-.09-.13a1.06,1.06,0,0,1-.35-.75,1,1,0,0,1,.34-.76Zm-.28,1.43h0a1.45,1.45,0,0,1-.4,1,1.11,1.11,0,0,1-.63.39h-.2l.07-.1a5.8,5.8,0,0,0,.34-.52,1.86,1.86,0,0,0,.1-.2,1.63,1.63,0,0,1,.19-.34.71.71,0,0,1,.48-.27Zm-1.64-.27h0a.21.21,0,0,0,.17-.16.33.33,0,0,0-.08-.25.32.32,0,0,1,.16.14.57.57,0,0,1,.06.25V61l-.12.09a.55.55,0,0,0-.25-.1h-.08a.16.16,0,0,1-.12-.09.19.19,0,0,1,0-.15c0-.07.1-.16.17-.17h.05a.13.13,0,0,1,0,.1.21.21,0,0,1-.05.13h0a.06.06,0,0,0,0,.06l.08.06Zm.49,0h0a.75.75,0,0,0-.2-.42,1,1,0,0,0-.17-.1h0a.34.34,0,0,1,.28.09.33.33,0,0,1,.12.29.32.32,0,0,1,0,.14Zm.3.14a.44.44,0,0,0-.11.09v0a1.33,1.33,0,0,1-.38.29h0l-.19.11a1.07,1.07,0,0,1,.19-.28.76.76,0,0,1,.52-.25Zm-.87.1a.46.46,0,0,1,.19.08l-.1.15a.55.55,0,0,0-.32-.14h0a.34.34,0,0,1-.09-.36.21.21,0,0,0,.09.18.51.51,0,0,0,.26.09Zm-.45-.4a.45.45,0,0,0-.05.3.18.18,0,0,0,.06.13c-.12,0-.2-.12-.21-.22a.41.41,0,0,1,.24-.36.22.22,0,0,1,.16,0,.37.37,0,0,0-.2.15Zm.06.64h.13a.34.34,0,0,1,.27.1h0c0,.1-.07.21-.1.32h-.07a.48.48,0,0,0-.17-.23l-.11-.06a.66.66,0,0,1-.17-.12.37.37,0,0,1-.08-.18h0a.75.75,0,0,0,.33.17Zm.27.61a1.19,1.19,0,0,1,.46.06L265,62a.49.49,0,0,1-.35.08.84.84,0,0,1-.21-.11l-.07,0,.28,0Zm.43-.08-.2-.06a1.09,1.09,0,0,1,.3-.23l.21-.12a1,1,0,0,0,.19-.17c.11-.13.2-.22.35-.19a.27.27,0,0,1,.08.07l-.11.08a1.15,1.15,0,0,0-.24.4l-.08.14-.08.14a1.34,1.34,0,0,1-.4-.06ZM266,60a.25.25,0,0,1,.28.15h0a1.07,1.07,0,0,0,0,.25,1.52,1.52,0,0,0,.14.63.6.6,0,0,0-.19,0,.65.65,0,0,0,0-.31.78.78,0,0,1,0-.21.51.51,0,0,0-.2-.43l-.12-.06a.6.6,0,0,1,.23,0Zm-.12.35a.37.37,0,0,1,.06.21v.14l0,.15A.88.88,0,0,1,266,61a.73.73,0,0,0-.53-.13v-.11a.55.55,0,0,0-.26-.47h-.05c.32-.14.55-.18.72.06Zm-.3-1a.79.79,0,0,1-.1.56.37.37,0,0,0-.05-.11,1.71,1.71,0,0,1-.13-.38,1.82,1.82,0,0,1,0-.33.67.67,0,0,0,0-.2,1,1,0,0,1,.31.46Zm-.51,0a.53.53,0,0,1,.05-.25,1.63,1.63,0,0,0,.18.75.78.78,0,0,1-.21-.49Zm-.56-.12a.91.91,0,0,1,.31.52,2.79,2.79,0,0,0-.67-.7.72.72,0,0,1,.39.19Zm-.28.42a.9.9,0,0,1-.29-.57,3.42,3.42,0,0,1,.82.75.71.71,0,0,1-.5-.17Zm0,.64a1.16,1.16,0,0,1,1.05-.19,1.07,1.07,0,0,0-.16.14.54.54,0,0,0-.33.05.31.31,0,0,0-.11.2h0a.28.28,0,0,0-.23-.07.52.52,0,0,0-.48.38.24.24,0,0,0,0,.12h0c-.09-.29.16-.52.28-.62Zm-.33.84h0a.56.56,0,0,0,.17.4.36.36,0,0,0,.18.12,1.1,1.1,0,0,1,.25.17h0a.42.42,0,0,0-.27-.06.34.34,0,0,1-.2,0,.36.36,0,0,1-.26-.38.37.37,0,0,1,.16-.24Zm-.64,1.3a.52.52,0,0,1,.44-.05,1.34,1.34,0,0,0-.67.28.75.75,0,0,1,.26-.21Zm.3.43a.62.62,0,0,1-.59.06l.07-.06a3,3,0,0,1,.37-.25,1.37,1.37,0,0,1,.29-.07l.16,0a1.26,1.26,0,0,1-.27.38Zm.35-.75v.09a.67.67,0,0,0-.14-.15h-.05c-.1-.09-.19-.16-.15-.33l0-.1h0a.55.55,0,0,0,.34.31H264a.36.36,0,0,0-.16.2Zm1.15.57a.71.71,0,0,1-.92-.38.14.14,0,0,1,0-.15.4.4,0,0,1,.39.11.64.64,0,0,0,.26.1h0a.9.9,0,0,0,.36-.12,1.14,1.14,0,0,1,.26-.09l-.27.4Z"/></g><g id="freepik--Pencil--inject-2"><path class="cls-4" d="M209,145.12l1.59-2.14,1.92-2.59L291.13,34.65c-.06,2.17,2,5.58,5.09,8.35,3.66,3.22,8.08,5.11,10.43,4.26L228.53,152.31l-3.68,4.94C227,153.91,211.29,141.81,209,145.12Z"/><path class="cls-10" d="M209,145.12l1.59-2.14,1.92-2.59L291.13,34.65c-.06,2.17,2,5.58,5.09,8.35,3.66,3.22,8.08,5.11,10.43,4.26L228.53,152.31l-3.68,4.94C227,153.91,211.29,141.81,209,145.12Z"/><path class="cls-11" d="M214.53,137.64,211,142.45c-1.07,1.36,1.1,4.53,4.12,7.54,4,3.95,9.54,7.49,11,5.69l2.61-3.54.91-1.28c-1.43,1.8-6.95-1.74-11-5.68-2.87-2.85-5-5.92-4.2-7.35h0A.37.37,0,0,1,214.53,137.64Z"/><path class="cls-4" d="M213.66,138.85c-2.49,3.15,12.59,16.35,15.08,13.2l3.57-4.81c-2.49,3.15-17.55-10-15.07-13.19Z"/><path class="cls-5" d="M213.66,138.85c-2.49,3.15,12.59,16.35,15.08,13.2l3.57-4.81c-2.49,3.15-17.55-10-15.07-13.19Z"/><path class="cls-11" d="M220.6,129.47l-3.51,4.74c-2.46,3.08,12,16,14.87,13.48a.49.49,0,0,0,.16-.16l3.5-4.8C233.07,145.8,218.09,132.56,220.6,129.47Z"/><path class="cls-3" d="M312.37,24.75c-2.48-1.6-2.75-2.79-2.75-2.79L291.14,34.69c-.77,4.06,2.55,8.7,6.73,11.23l.71-.89Z"/><path class="cls-12" d="M306.66,47.26h0l7.45-22.33h0Z"/><polygon class="cls-13" points="314.12 24.93 315.92 19.51 314.12 24.93 314.12 24.93"/><path class="cls-8" d="M314.65,18.47l-5,3.46s.19,1.22,2.75,2.79L316,19.51h0a.9.9,0,0,0-.49-1.14.78.78,0,0,0-.78.1Z"/><path class="cls-14" d="M306.64,47.27h0l7.45-22.34a2.51,2.51,0,0,1-1.74-.21L298.53,45l-.63.86C300.76,47.62,304,48.37,306.64,47.27Z"/><path class="cls-6" d="M312.37,24.75a2,2,0,0,0,1.74.21l1.81-5.41Z"/><path class="cls-14" d="M226.08,155.66l-.71.89-.06.06-.51.67-13.66,18.39-.9,1.2a5.17,5.17,0,0,1-4.23.91,13,13,0,0,1-5.48-2.34,15.39,15.39,0,0,1-5.48-6.67c-.81-2.13-.72-3.92.15-5.12l.11-.15L211,142.45s-1.26,3.28,5.84,9.12c.31.26.61.49.89.75,5.87,4.57,8,3.59,8.31,3.4Z"/><path class="cls-15" d="M306.64,47.27l-78.1,105-3.19,4.29-.51.67-13.67,18.39-.89,1.2a5.17,5.17,0,0,1-4.23.91,13,13,0,0,1-5.48-2.34l20.53-27.71L297.9,45.86C300.76,47.62,304,48.36,306.64,47.27Z"/><path class="cls-15" d="M245.56,96c.58-.79,3.46-.12,4.58.89s4,2.88,6.31,2.48a46,46,0,0,1,8.28-.75c2.4.11,3.58.26,3.58.26l6-8.06s-10.73.94-15.11,0-8.3-2-8.3-2Z"/><path class="cls-15" d="M233.12,116.18a15.61,15.61,0,0,0,2.39,2,12.12,12.12,0,0,0,4.43,1.94,6.18,6.18,0,0,0,4.63-.9,3.07,3.07,0,0,0,1.16-1.51,2.17,2.17,0,0,0-.71-2.19c-.88-.81-1.88-1.51-2.81-2.26a22.57,22.57,0,0,1-2.63-2.26c-.19-.21-.39-.63-.09-.83s1,.15,1.4.26a7.79,7.79,0,0,0,1.9.37,2.24,2.24,0,0,0,.89-.09c.33-.1.89-.53.79-1-.05-.23-.27-.36-.46-.46a11.57,11.57,0,0,1-2.59-1.5c-.34-.32-.72-.54-1.07-.82a8.83,8.83,0,0,0-2.07-1.26l-6.6,8.87C232.15,115.13,232.62,115.66,233.12,116.18Z"/></g><path class="cls-3" d="M284.55,84.31c2.27,5,3.81,9.14-1.93,10.65-4.35,1.14-15,2.26-21.75,2.34-1.05,0-3.25,1.07-5,.76-5.09-1-7.83-4.24-9.74-2.88l-1.47,1.95s-2-.89-.18-4.93c1.53-3.43,4-5.35,6.63-5.35,2.48,0,7.3,2.66,9,2.69s9.77-2,14.78-3.12C281.54,85,284.55,84.31,284.55,84.31Z"/><path class="cls-3" d="M245,114.58c-.88-.81-1.88-1.51-2.81-2.26a21.65,21.65,0,0,1-2.63-2.26c-.19-.21-.39-.63-.08-.82s1,.15,1.39.25a7.78,7.78,0,0,0,1.91.37,2.36,2.36,0,0,0,.88-.08c.33-.11.89-.54.79-1a.76.76,0,0,0-.46-.45,11.61,11.61,0,0,1-2.59-1.51c-.34-.32-.71-.54-1.07-.82a9.23,9.23,0,0,0-2.46-1.44,8.13,8.13,0,0,1-2.38-.93,5.53,5.53,0,0,1-1.43-2.14,90,90,0,0,1-4.8-13.35l-10.07-.09a35.84,35.84,0,0,0,.89,3.68c.67,1.9,2,5.17,2.86,7a76.47,76.47,0,0,0,4.3,8.47,44.46,44.46,0,0,0,5.85,8,15,15,0,0,0,2.39,2,12,12,0,0,0,4.43,2,6.09,6.09,0,0,0,4.63-.91,3,3,0,0,0,1.16-1.51A2.17,2.17,0,0,0,245,114.58Z"/><path class="cls-8" d="M263.81,19.81l-3.58,3.08a2.34,2.34,0,0,1,.17-3.19l.13-.12A2.31,2.31,0,0,1,263.81,19.81Z"/><path class="cls-8" d="M254.45,47.45c0-2.36,5.23-5.91,7.93-10.9S263.74,23.4,260,22.14c0,0-.06-7.44-9.59-9.41s-12.53-4.2-14.22-4.53-2,6,.21,7.68a13.23,13.23,0,0,1-4.29-2.9c-1.39-1.41-1.94,5.94,1.05,8.52,0,0-2.48,1.51-2.15,5.41a6.38,6.38,0,0,0,4.75,6Z"/><path class="cls-3" d="M238.19,19.54c-2.3,1.05-4.48,4.75-4.45,15.08,0,8.78,2.58,11,3.88,11.66s3.81.32,6.25-.08v5s-1.83,1.9-1.19,3.09,3,2.21,6.72,1c4.19-1.39,5-4.37,5-4.37l.18-11s1.43,1.56,3.89-.75c2-1.89,2.78-5.13,1.25-6.91s-3.51-1.92-5.3.07L254,31c-1.52-.3-5.8.17-8.12-1.36C240.8,26.38,238.68,22.91,238.19,19.54Z"/><path class="cls-4" d="M238.19,19.54A35.34,35.34,0,0,0,254.45,31s-4.56,2.06-10.37-1.95S238.19,19.54,238.19,19.54Z"/><path class="cls-8" d="M254.45,31v4.88a2.2,2.2,0,0,1-2.23-2.17v-.19A2.48,2.48,0,0,1,254.45,31Z"/><path class="cls-7" d="M238,31.67a1.11,1.11,0,1,1-1.16-1.17A1.18,1.18,0,0,1,238,31.67Z"/><path class="cls-7" d="M246.79,32.19a1.25,1.25,0,0,1-1.14,1.35h0a1.27,1.27,0,0,1-1.33-1.21,1.29,1.29,0,0,1,1.14-1.4,1.26,1.26,0,0,1,1.33,1.21Z"/><path class="cls-14" d="M245.26,38.94l-3.58,1.17a1.82,1.82,0,0,0,2.15,1.47l.13,0A2.2,2.2,0,0,0,245.26,38.94Z"/><path class="cls-7" d="M235.05,29.5l2.86-1.19a1.45,1.45,0,0,0-1.86-1l-.11.05A1.69,1.69,0,0,0,235.05,29.5Z"/><polygon class="cls-14" points="240.67 30.72 240.82 37.92 237.15 37.06 240.67 30.72"/><path class="cls-14" d="M243.87,46.23c2.59-.31,7.91-1.88,8.78-4.16a6,6,0,0,1-1.91,2.9c-1.61,1.45-6.87,3-6.87,3Z"/></g></g><g id="freepik--character-2--inject-2"><g id="freepik--character--inject-2-2" data-name="freepik--character--inject-2"><path class="cls-7" d="M170,17.46v-.25a9.1,9.1,0,0,0,1.26-9.73,7.81,7.81,0,0,0-7.87-4.81h0A13.84,13.84,0,0,0,155.07,0c-9.16,0-16.59,7.82-16.59,17.47h0c0,1.51-.07,3.07,0,4.6a5.28,5.28,0,0,1-2,4.72c-1.47,1.1-3.1,2-4.56,3.07a8.09,8.09,0,0,0-2.05,9.8c.48.91,1,1.78.56,2.84a3.94,3.94,0,0,1-1.22,1.43c-.5.38-1,.71-1.51,1.12a6.43,6.43,0,0,0-1.9,5.94c.49,2.54,2.26,4.1,4.36,5.18a25.61,25.61,0,0,0,13.77,2.65c4.7-.37,8.48-1.95,12.67-4.23A27.5,27.5,0,0,0,166.68,45a18.19,18.19,0,0,0,2.93-6.69,43.81,43.81,0,0,0,.52-7.42c0-2.37-.08-8.16-.08-12.24Z"/><path class="cls-16" d="M162.82,38.8c2.72.3,6.55.21,8.83,4.35s13,34.11,13,34.11H174.5L162.75,52.38Z"/><path class="cls-7" d="M133.83,206.92a42.14,42.14,0,0,0-.58,6.45c-.07,3.91-.76,5.28-.84,8.51-.11,3.67.49,5,1.91,7.11s5.12,3.93,6.69.44,1.37-5.77.87-9.37-.59-5.77-.89-8.61c-.27-2.51-.58-4.41-.58-4.41Z"/><path class="cls-16" d="M144.38,176.14l-12.24-.23c.18,8.61,1.48,22.93,1.69,31,0,1.5,0,11.81.51,14.94.82,4.69,6.11,4.06,6.39,1.25s-.34-14.83-.32-16.07c0-5.18,2.26-18.69,3.46-28C143.94,178.6,144.32,176.58,144.38,176.14Z"/><path class="cls-7" d="M162.37,200.22s-.63,0-.72.58a26.77,26.77,0,0,1-.4,2.73,16.21,16.21,0,0,0-.44,5.1c.21,1.2,2.82,3,4.6,3.31s4.29,2.17,5.69,3.55a13.24,13.24,0,0,0,7.91,3.28c3,0,5.05-1,6-2.72s-.89-1.88-4.29-4.2L178.11,210c-5.39-3.7-7.35-5.69-8.88-9.39Z"/><path class="cls-16" d="M169.26,198.21c-.09-2.67,1.21-22.3,1.21-22.3l-10.53,1.25c2.48,15.65,2.68,21,2.41,23.26h0a2,2,0,0,0-.07.65c0,3,3.26,4.68,5.81,6.7,1,.81,3.57,3.28,6.6,4.36,2,.7,5.58,1,6-.28-3.09-2.49-7.3-5.74-9.76-8.58C169.78,201.92,169.35,200.87,169.26,198.21Z"/><path class="cls-6" d="M134.26,87.71c-3.74,17.29.92,58.65.92,58.65-.17,2.15-2.49,6.37-3.36,15.83-1,11.15,1.89,41,1.89,41a6.5,6.5,0,0,0,6.86.15s7.4-43.86,8.73-54.95c1.16-9.68,4.4-33.06,4.4-33.06l5.3,33a60.69,60.69,0,0,0-2,9.55c-.59,6.52,5.43,39.25,5.43,39.25a8.12,8.12,0,0,0,6.83-.14s3.87-42,4.43-49.89c.72-10.52-1.17-43.38-2.15-58.7Z"/><path class="cls-17" d="M153.7,115.31l1.36-9.84s7.87-1.12,11.45-4.65a12.93,12.93,0,0,1-9.3,6.19l-1.4,8.91L158.45,145Z"/><path class="cls-18" d="M168.73,64.56c.48,4.68,3.06,25.3,3.06,25.3-14.68,8.25-35.27,2.72-38-.68,2.52-8.74,6.49-13.48,8-16.21l-2.68-11.8s7.42-9.56,2.4-21.29l6.25-.7,11-.38h4.11c1.75,1.72,6,5.86,7.76,10.67C171.74,52.59,172.85,55.35,168.73,64.56Z"/><path class="cls-13" d="M140.57,67.33c.13.54,3.82,5.69,5.5,6.79s-3,2.69-3.64,5.49c-1.33,5.65,7,13.09,17.29,14.12-11.67,2-23.86-2-26-4.58,2.52-8.74,6.5-13.5,8-16.21Z"/><path class="cls-16" d="M141.48,39.88c-7.45.29-8.41,4-9.92,8.51-2.05,6.26-5.9,21.74-7.29,28.87h11.24l3.57-16.09h0C145.83,54.61,143.89,43.19,141.48,39.88Z"/><path class="cls-4" d="M168.21,26.84a3.67,3.67,0,1,1-3.47,3.67h0a3.58,3.58,0,0,1,3.47-3.67m0-.75a4.42,4.42,0,1,0,4.19,4.42h0a4.3,4.3,0,0,0-4.18-4.42Z"/><path class="cls-16" d="M165.63,8.47c1.87,1.1,4.45,3.39,3.66,13.57-.62,8-3.49,10.89-4.82,11.54s-3,.76-5.53.36l.07,4.77s4.87,5.45,4.26,7c-.72,1.82-6.41,1.59-8.85.46a13.64,13.64,0,0,1-6.55-7V27.38s-1.44,1.51-4-.7c-2.11-1.85-2.87-5.05-1.3-6.78a3.31,3.31,0,0,1,3.24-1,4.33,4.33,0,0,1,2.82,2.58.87.87,0,0,0,.54.55.57.57,0,0,0,.51-.23,1.29,1.29,0,0,0,.28-.53c.6-1.67.42-3.45.86-5.16a10,10,0,0,1,1.78-3.61,11.67,11.67,0,0,1,7.69-4.33A15,15,0,0,1,165.63,8.47Z"/><path class="cls-7" d="M167,8.4c.63,3.15-1.43,8.47-6.79,8.29,0,0,2.19-1.75,2.46-3.7a10.33,10.33,0,0,1-8.35,4.53c-4.56.2-5.72-.89-5.72-.89S153,1.25,167,8.4Z"/><path class="cls-7" d="M157.75,19.3a1.15,1.15,0,0,1-1,1.23,1.07,1.07,0,0,1-1.15-1v0a1.16,1.16,0,0,1,1-1.23,1.07,1.07,0,0,1,1.14,1Z"/><path class="cls-19" d="M158.09,26.78,161.86,28a1.93,1.93,0,0,1-2.31,1.53l-.1,0A2.19,2.19,0,0,1,158.09,26.78Z"/><path class="cls-7" d="M167.63,17l-2.14-1.25a1.17,1.17,0,0,1,1.59-.58l0,0A1.41,1.41,0,0,1,167.63,17Z"/><path class="cls-7" d="M166.59,19.11a1.16,1.16,0,0,1-1,1.22,1.06,1.06,0,0,1-1.15-1v-.05a1.15,1.15,0,0,1,1-1.22,1.07,1.07,0,0,1,1.15,1Z"/><polygon class="cls-19" points="161.04 18.65 161.34 25.2 164.59 24.06 161.04 18.65"/><path class="cls-19" d="M158.94,34c-2.66-.53-8.17-2.26-9.06-4.53a6.57,6.57,0,0,0,2.06,3.25c1.65,1.43,7,2.94,7,2.94Z"/><path class="cls-4" d="M147.87,33.66v.85a4.1,4.1,0,0,1-5.56-2.15,4.51,4.51,0,0,1,2-5.86,4,4,0,0,1,1.76-.41.38.38,0,0,1,.36.38.37.37,0,0,1-.36.38,3.66,3.66,0,0,0,0,7.31A3.33,3.33,0,0,0,147.87,33.66Z"/><path class="cls-4" d="M108.92,70.86h91.7a3.68,3.68,0,0,1,3.58,3.77V132a3.68,3.68,0,0,1-3.58,3.77h-91.7a3.68,3.68,0,0,1-3.57-3.77V74.63A3.68,3.68,0,0,1,108.92,70.86Z"/><path class="cls-20" d="M112.9,75h83.74a3.28,3.28,0,0,1,3.2,3.36v50a3.29,3.29,0,0,1-3.2,3.37H112.9a3.29,3.29,0,0,1-3.19-3.37v-50A3.28,3.28,0,0,1,112.9,75Z"/><polygon class="cls-12" points="114.25 127.36 141.45 101.31 160.57 119.05 154.77 110.34 171.31 84.37 195.31 127.36 114.25 127.36"/><ellipse class="cls-12" cx="131.6" cy="88.75" rx="6.82" ry="7.18"/><path class="cls-16" d="M193.74,67.1c-4.73.81-6.09,3.77-6.09,3.77h3.88s.48,1.37-.82,6.51c-.46,1.81,2.08,1.86,2.15,1.18.45,1.11,3.78,2.65,6.27.91,2.28-1.59,3.3-4,2.8-8.6C201.05,65.75,194.57,67,193.74,67.1Z"/><path class="cls-16" d="M116.43,67.1c4.74.81,6.1,3.77,6.1,3.77h-3.87s-.49,1.37.81,6.51c.46,1.81-2.07,1.86-2.14,1.18-.46,1.11-3.78,2.65-6.27.91-2.29-1.59-3.3-4-2.79-8.6C109.13,65.75,115.6,67,116.43,67.1Z"/></g></g><g id="freepik--character-1--inject-2"><g id="freepik--character--inject-2-3" data-name="freepik--character--inject-2"><g id="freepik--Botom--inject-2"><path class="cls-3" d="M17.84,227.14c2.51,1.42,5.55,1.31,8.53,0l1.23-17.08-9.76,1.36Z"/><path class="cls-3" d="M47.77,216.93c2.15,4.81,5.93,3.48,10.23.4l-.76-17.17H46.88Z"/><path class="cls-7" d="M36.11,243.31A4.17,4.17,0,0,1,36,246c-.3.51-2.2,2.22-5.58,2.48s-6.12-.22-8-1.51a5.9,5.9,0,0,1-3-4.61c-.18-1.94,0-3.81-.86-5.28s-2.1-2.93-2.38-3.67a7.89,7.89,0,0,1,0-4Z"/><path class="cls-6" d="M27.25,226.39a10,10,0,0,0,.39,2.16,19.83,19.83,0,0,0,2,4.28,15.93,15.93,0,0,0,1.35,2c1,1.23,2.19,2.26,3.23,3.41a7.07,7.07,0,0,1,2,4.18c.14,2.67-2.61,3.58-4.73,4a14.66,14.66,0,0,1-6.87-.36,6.53,6.53,0,0,1-4.64-5.32c-.12-.76-.07-1.51-.16-2.27a10.67,10.67,0,0,0-2-4.67,14.42,14.42,0,0,1-1.51-2.54c-.66-1.65-.13-3.51.29-5.16.36-1.42.78-3,1.25-2.89A2,2,0,0,0,18,224a4.2,4.2,0,0,1,.37.84,7.92,7.92,0,0,0,.38,1.1,2.84,2.84,0,0,0,1.13,1.31c0-1,.06-2,.09-3a1.55,1.55,0,0,1,.22-.89A1.41,1.41,0,0,1,21,223a17.44,17.44,0,0,1,5.43-.47.78.78,0,0,1,.86.7.87.87,0,0,1,0,.32A26.92,26.92,0,0,0,27.25,226.39Z"/><path class="cls-21" d="M30,233.37c-.95-.75-3.06-.75-4.22-.63A6.91,6.91,0,0,0,22.46,234a.69.69,0,0,1-1-.08h0a.78.78,0,0,1,0-1.06l.08-.08a7,7,0,0,1,3.7-1.41c2.87-.21,3.68.3,3.68.3S30.22,232.49,30,233.37Z"/><path class="cls-21" d="M32.13,236.11c-1.18-.76-3.51-.64-4.67-.51a6.5,6.5,0,0,0-3.19,1.28.74.74,0,0,1-1-.08h0a.8.8,0,0,1,0-1.07l.07-.06a7.16,7.16,0,0,1,3.78-1.56c2.86-.21,3.57.4,3.57.4A2.41,2.41,0,0,1,32.13,236.11Z"/><path class="cls-21" d="M24.12,228.43a6.82,6.82,0,0,1,3.58.32c.5.3.83,1.13.51,1.34a6.37,6.37,0,0,0-3.17-.46,8.81,8.81,0,0,0-3.08.9c-.24.11-.53.27-.78.41a.64.64,0,0,1-.91-.26l0,0h0a.69.69,0,0,1,.25-.86A9,9,0,0,1,24.12,228.43Z"/><path class="cls-7" d="M75,227.91a3.48,3.48,0,0,1-.12,2.38c-.32.7-3.77,2.74-8.42,2.42a18.68,18.68,0,0,1-9.61-3.55c-1.78-1.23-3.63-1.47-5.93-1.6s-5.32-1.35-5.83-2.48a5.69,5.69,0,0,1,.08-3.09Z"/><path class="cls-6" d="M56.29,212.85l1.21-.46a.89.89,0,0,1,.71-.08c.31.11.42.48.5.8a12.71,12.71,0,0,0,.51,2.13,5,5,0,0,0,1.3,1.45,21.16,21.16,0,0,0,3.72,2.52c1.52.86,3,1.51,4.57,2.26s3.73,1.22,5,2.11c1.83,1.3,2.07,4.53,0,5.84-1.79,1.11-6.51,2.31-11.45.84-2.7-.81-5.72-3.84-9.23-4.13-2.25-.19-6.51-.86-8-2.66-.54-.8.18-3.32.76-5.51.65-2.38.89-6.11,1.64-5.9,0,.79.71,1.25,1.1,1.91a15.8,15.8,0,0,1,.81,1.89,3.41,3.41,0,0,0,1.17,1.64,1.46,1.46,0,0,0,1.83-.11c.65-.72.26-2,.71-2.85a2.89,2.89,0,0,1,1.59-1.1Z"/><path class="cls-21" d="M62.11,217.92a2.09,2.09,0,0,0-1.66-1.17c-1-.2-2.86.59-4,1.57a.93.93,0,0,0-.12,1.25.79.79,0,0,0,.24.21h0a.8.8,0,0,0,1-.11A6.26,6.26,0,0,1,62.11,217.92Z"/><path class="cls-21" d="M65.29,219.79a2.39,2.39,0,0,0-2-1.06,7.06,7.06,0,0,0-4.3,1.7.91.91,0,0,0-.11,1.21.87.87,0,0,0,.23.2h0a.76.76,0,0,0,.92-.11A6.29,6.29,0,0,1,65.29,219.79Z"/><path class="cls-21" d="M68.79,221.48a2.62,2.62,0,0,0-2-1,6.93,6.93,0,0,0-4.15,1.72.9.9,0,0,0-.12,1.21.87.87,0,0,0,.23.2h0a.76.76,0,0,0,.92-.11A6,6,0,0,1,68.79,221.48Z"/><path class="cls-8" d="M19.09,102.35c-.59,18.69-.55,60.11-.55,60.11-.18,2.33-1.08,7.11-1.82,16.42-.95,12.1,1.12,38.74,1.12,38.74a11.21,11.21,0,0,0,9.31,0s5.54-38,7.3-49.94C36,157.18,39,137.38,39,137.38l3.5,26.92a66.41,66.41,0,0,0,.35,15.37c.82,5.51,4.44,28.16,4.44,28.16a17.42,17.42,0,0,0,10.28-.4s.34-39.26.44-44.36c.1-5.82-2.45-65.33-2.45-65.33Z"/><path class="cls-7" d="M39,137.38l2.62-15.32s7.28-.67,11.3-4.94c0,0-.72,4.19-9.86,6.7l-2.63,15.53,2.06,25Z"/></g><path class="cls-22" d="M81.32,57.93C80.4,60,71.21,74.24,71.21,74.24,68.34,70.87,60.3,59.1,55.62,56.69S43.49,55,43.49,55L54.66,73.57s7.83,8.29,12.84,12.36c3.47,2.79,6.9,5,12.29-5.1,3.23-6,6.85-14,7.79-16a5.75,5.75,0,0,1,3.92-3.2c.5-.1,1-.22,1.5-.36,1.09-.31,2.37-.83,2.73-2.09.13-.43.15-.89.25-1.32.14-.67.43-1.3.57-2a2.88,2.88,0,0,0,0-1.37c-.13-.39-.47-.71-.49-1.14a1.72,1.72,0,0,1,.16-.59,2.69,2.69,0,0,0-.43-2.59,3.07,3.07,0,0,1-.45-.56,6,6,0,0,1-.23-1.5c-.47-2.26-4.2-.61-5.36,0-.33.19-2,1.06-2.71,1.51a12.79,12.79,0,0,0-1-3.61c-.91-2.27-3.3-2.74-3.18-1.3a29.57,29.57,0,0,1,0,4.89q-.17,1.55-.18,3.09A10.74,10.74,0,0,1,81.32,57.93Z"/><path class="cls-4" d="M46.51,54.62c6.85.34,8.36.45,12.73,4.62S71.08,73.57,71.08,73.57l5.86-8.29A8,8,0,0,0,80.15,69a10.8,10.8,0,0,0,4.9,1.28s-3.15,7.54-6.17,12.86S73.47,90.42,69,87.57,49.7,69.48,49.7,69.48Z"/><path class="cls-23" d="M46.51,54.62c6.85.34,8.36.45,12.73,4.62S71.08,73.57,71.08,73.57l5.86-8.29A8,8,0,0,0,80.15,69a10.8,10.8,0,0,0,4.9,1.28s-3.15,7.54-6.17,12.86S73.47,90.42,69,87.57,49.7,69.48,49.7,69.48Z"/><path class="cls-24" d="M88.09,50.24c-1.22.54-1.5,1.45-1.3,3.36.12,1.12,0,3.24-1.12,4.19A2.7,2.7,0,0,0,87.1,57c.5-.65.65-.75,1-.42a1.91,1.91,0,0,0,.84.42,1.57,1.57,0,0,0,0,1.76c.65.92,3.17.71,5.14-.6,0,0-3.26,1.41-4.13.36s.78-2.62,2.07-3.12c0,0-3.16,1.11-3.76,0s.72-2,2.54-2.73c0,0-2.63.76-3.17-.15A1.88,1.88,0,0,1,88.09,50.24Z"/><path class="cls-12" d="M54.66,69c-.79-6-1.53-14-10.34-14.4L33,55.14c-2.8.75-13.68,2.12-13.68,2.12l-.21,26S18.35,102,18.59,112c8.13,5.44,25.84,7.19,37-1.69C55.88,102,55.43,74.9,54.66,69Z"/><path class="cls-4" d="M55.42,20.49a2.54,2.54,0,0,0-1.34-2.42,4,4,0,0,0-2.78-.29,3.55,3.55,0,0,0-2.06-3.51A3.72,3.72,0,0,0,45,15a2.09,2.09,0,0,0-1.68-2.32,5.14,5.14,0,0,0-3,.58c-1.44.6-2.87,1.27-4.3,1.82-2.55,1-5.28,1.51-7.58,3A4.93,4.93,0,0,0,27,19.37a4.44,4.44,0,0,0-.6,2.7,4.74,4.74,0,0,0,.13.92,2.36,2.36,0,0,0-.63-.5,2.1,2.1,0,0,0-2.89,1l-.06.16,2.74,1.43a4,4,0,0,0-2,1.24c-1.37,1.58-.43,6.35,1.49,11,0,0,2,8.49,2.73,9.88A3.67,3.67,0,0,0,30,48.89l-.27-5.18,20.49-1.9-2-1.51a12,12,0,0,0,6.44-11.11,12.32,12.32,0,0,0-1.43-5.46A5.71,5.71,0,0,0,55.42,20.49Z"/><path class="cls-25" d="M55.42,20.49a2.54,2.54,0,0,0-1.34-2.42,4,4,0,0,0-2.78-.29,3.55,3.55,0,0,0-2.06-3.51A3.72,3.72,0,0,0,45,15a2.09,2.09,0,0,0-1.68-2.32,5.14,5.14,0,0,0-3,.58c-1.44.6-2.87,1.27-4.3,1.82-2.55,1-5.28,1.51-7.58,3A4.93,4.93,0,0,0,27,19.37a4.44,4.44,0,0,0-.6,2.7,4.74,4.74,0,0,0,.13.92,2.36,2.36,0,0,0-.63-.5,2.1,2.1,0,0,0-2.89,1l-.06.16,2.74,1.43a4,4,0,0,0-2,1.24c-1.37,1.58-.43,6.35,1.49,11,0,0,2,8.49,2.73,9.88A3.67,3.67,0,0,0,30,48.89l-.27-5.18,20.49-1.9-2-1.51a12,12,0,0,0,6.44-11.11,12.32,12.32,0,0,0-1.43-5.46A5.71,5.71,0,0,0,55.42,20.49Z"/><path class="cls-22" d="M38.8,26.79c-1.88-.24-3.75-.56-5.61-.87a.56.56,0,0,0-.49.07.66.66,0,0,0-.17.29c-1.22,3.77-1.19,7.87-2.14,11.72-.09.35-.3.94-.72,1-.71.09-1.21-.58-1.52-1.18l-.72-1.32a3.78,3.78,0,0,0-.51-.68c-.88-.85-3.47-1.89-4.67,1s1.37,6.84,3.46,7.46c3.58,1,4.05-1.37,4.05-1.37l.72,13.53c3.18,3.51,13.66,2.26,11.58-.75l-.14-4.13a20.93,20.93,0,0,0,4.81.1c2.62-.52,4.2-2.75,4.9-5.77,1.13-4.84,1.5-8.74.12-18.14a12.35,12.35,0,0,0-.64-2.53C47.44,27.35,43,27.31,38.8,26.79Z"/><path class="cls-24" d="M41.92,51.56s-5.89-1-8-2.12A6.88,6.88,0,0,1,31,46.62,10,10,0,0,0,32.74,50C34.3,52,42,53.23,42,53.23Z"/><path class="cls-7" d="M40.14,36.27A1.1,1.1,0,1,1,39,35.1,1.16,1.16,0,0,1,40.14,36.27Z"/><path class="cls-7" d="M39.33,30.78,36.69,32a1.61,1.61,0,0,1,.78-2A1.41,1.41,0,0,1,39.33,30.78Z"/><path class="cls-24" d="M40.14,44.1l3.35,1.19a1.74,1.74,0,0,1-2.16,1.25l-.06,0A2,2,0,0,1,40.14,44.1Z"/><path class="cls-7" d="M51.54,31.89l-2.63-1.05A1.35,1.35,0,0,1,50.66,30l0,0A1.54,1.54,0,0,1,51.54,31.89Z"/><path class="cls-7" d="M34,32.89l-9.18,2a3.26,3.26,0,0,1,2.65,1.42L33.92,35Z"/><path class="cls-7" d="M50.45,36.3a1.15,1.15,0,0,1-1.06,1.23h0a1.23,1.23,0,0,1-.16-2.44,1.11,1.11,0,0,1,1.21,1A1.09,1.09,0,0,1,50.45,36.3Z"/><path class="cls-6" d="M55.14,32.47l-.6-.07a16.47,16.47,0,0,0-6,.32c-1.92.67-2.61,1.38-3.67,1.4S43,33.45,41,32.87a19.12,19.12,0,0,0-6.44-.08l-.65.09A1.14,1.14,0,0,0,33.16,34a2.51,2.51,0,0,0,.6,1.32,2.06,2.06,0,0,1,.2.54,24.7,24.7,0,0,0,.71,3.65,3.83,3.83,0,0,0,1.21,1.69l.24.17a4,4,0,0,0,.72.35H37l.19.06.2,0A4.58,4.58,0,0,0,38,42h.62A4.53,4.53,0,0,0,43,39.15c.72-1.41.55-3.37,1.76-3.4H45c.9.21.76,2,1.3,3.3a5,5,0,0,0,.84,1.41l.2.22.1.09.12.1.11.08.1.09.1.06,0,0a3.69,3.69,0,0,0,1.05.43h.1a5,5,0,0,0,1.28.11,3.86,3.86,0,0,0,3.77-2.62A25.43,25.43,0,0,0,55,35.38a1.11,1.11,0,0,1,.23-.49,2.63,2.63,0,0,0,.58-1.37C55.82,33.05,55.47,32.5,55.14,32.47ZM42.38,37.91a4.38,4.38,0,0,1-.94,2h0A3.66,3.66,0,0,1,38.58,41a3,3,0,0,1-2.75-1.35l-.08-.14-.08-.14-.06-.13,0-.11-.05-.1V39l0-.13h0a3.1,3.1,0,0,1-.13-.4h0l-.1-.27a2.23,2.23,0,0,0-.09-.39v-.14c-.19-1-.39-2.88.06-3.32a5,5,0,0,1,3.63-.75h.22a6.61,6.61,0,0,1,.89.15l.35.08a6.69,6.69,0,0,1,.86.29l.27.11.29.14h.06l.1.07a1.84,1.84,0,0,1,.58.5A5.31,5.31,0,0,1,42.38,37.91Zm11.45-.64a4.41,4.41,0,0,1-1.91,3.15,3.38,3.38,0,0,1-1.43.38,3,3,0,0,1-2.91-1.41h0l0-.09-.06-.09v-.06A.77.77,0,0,1,47.4,39l-.08-.17v-.27q-.1-.34-.18-.72a5,5,0,0,1,.12-2.94,5.45,5.45,0,0,1,3.24-1.5,5.51,5.51,0,0,1,.9-.1h1l.45.08h.18l.11,0h.12l.22.09h0a1.39,1.39,0,0,1,.48.32c.34.56.06,2.48-.17,3.45Z"/><path class="cls-24" d="M44.48,35.88l.19,7.31L48.55,42,45,35.82A1,1,0,0,0,44.48,35.88Z"/><path class="cls-4" d="M56,76.42c-.3-7.59-.87-14.28-3.58-17.84S48.34,54.34,42,54.45v.45A2.38,2.38,0,0,1,43.78,56a40.34,40.34,0,0,1,4.89,11.44c1.84,7.37,2.14,23.82,2.25,32.69s0,16,0,16,4.3-1,5.58-3.28C56.55,112.86,56.35,84,56,76.42Z"/><path class="cls-15" d="M56,76.42c-.3-7.59-.87-14.28-3.58-17.84S48.34,54.34,42,54.45v.45A2.38,2.38,0,0,1,43.78,56a40.34,40.34,0,0,1,4.89,11.44c1.84,7.37,2.14,23.82,2.25,32.69s0,16,0,16,4.3-1,5.58-3.28C56.55,112.86,56.35,84,56,76.42Z"/><path class="cls-5" d="M56,76.42c-.3-7.59-.87-14.28-3.58-17.84S48.34,54.34,42,54.45v.45A2.38,2.38,0,0,1,43.78,56a40.34,40.34,0,0,1,4.89,11.44c1.84,7.37,2.14,23.82,2.25,32.69s0,16,0,16,4.3-1,5.58-3.28C56.55,112.86,56.35,84,56,76.42Z"/><path class="cls-4" d="M34.07,64.35c-.91-4-2.78-6.71-3.58-8.77l-11.2,1.59C16.37,58.6,15.77,61.6,16.06,65l2.08,24.88-.58,23.52c4.54,7.43,18.08,6,18.08,6s.39-10.55,0-31C35.35,76.91,35.23,69.5,34.07,64.35Z"/><path class="cls-5" d="M34.07,64.35c-.91-4-2.78-6.71-3.58-8.77l-11.2,1.59C16.37,58.6,15.77,61.6,16.06,65l2.08,24.88-.58,23.52c4.54,7.43,18.08,6,18.08,6s.39-10.55,0-31C35.35,76.91,35.23,69.5,34.07,64.35Z"/><path class="cls-8" d="M34.44,66.34c-.52-2.6-.8-7.42-1.23-8.39s-2.8-2.9-2.87-4.21l0-.84a3.9,3.9,0,0,0-2,1.07c-.72.7-2.94,2.31-2.94,2.31A10.85,10.85,0,0,0,27,60.74c1.3,2,3.11,3.27,3.4,2.78s.23-1.23.72-2.38c.6-1.44.71-2,1.37-.63C33,61.65,34.44,66.34,34.44,66.34Z"/><path class="cls-8" d="M47.87,64.93c.65,2.19-.93-7.54-2-9.3s-3.92-2.39-3.92-2.39l.13,2.11a3,3,0,0,1,1.79,1.32A37.63,37.63,0,0,1,47.87,64.93Z"/><path class="cls-8" d="M24,74l9.47-.84s.28,6.33.28,8c0,1-1.57,2.76-2.74,3.9a2.4,2.4,0,0,1-2.79.41c-1.43-.76-3.29-2-3.47-3.18C24.49,80.27,24,74,24,74Z"/><path class="cls-8" d="M52,71.94H56s.5,5.14.5,7.92c0,2-.17,3.25-.52,3.25a5.18,5.18,0,0,1-3.38-3.71C52.45,77.76,52,71.94,52,71.94Z"/><path class="cls-4" d="M34.72,68.41a158.88,158.88,0,0,0-18.12,3l0,.7a162.4,162.4,0,0,1,18.15-3C34.78,68.87,34.75,68.64,34.72,68.41Z"/><path class="cls-4" d="M55.47,68.25c-2-.24-4.23-.46-6.7-.58,0,.22.11.46.16.7,2.44.14,4.67.35,6.62.6C55.52,68.73,55.5,68.48,55.47,68.25Z"/><path class="cls-22" d="M19.27,57.26c-5.27.45-8.22,3.34-9.87,9.4C7.61,73.15,2.64,91.39,1.52,97.9c-.71,4-1.79,6.53,1.43,9.16,4.13,3.37,16.2,12.71,23.49,16.73s18.79,4.09,18.79,4.09l-8-5.12-2.15-3L14.43,100,20.87,76.6S25.12,62.09,19.27,57.26Z"/><path class="cls-4" d="M20,57c-3.58.15-7.72,0-10.63,7.72s-6.53,23.53-8,30-2.27,9.57,0,11.68S13,114.81,13,114.81s3.19-7.37,6.9-9.58l-5.11-5.42,6.68-23.72S25.76,63.5,20,57Z"/><path class="cls-23" d="M20,57c-3.58.15-7.72,0-10.63,7.72s-6.53,23.53-8,30-2.27,9.57,0,11.68S13,114.81,13,114.81s3.19-7.37,6.9-9.58l-5.11-5.42,6.68-23.72S25.76,63.5,20,57Z"/><path class="cls-4" d="M29.92,116v.75a2.22,2.22,0,0,0,1,2l19.92,12.7a2,2,0,0,0,1,.32,2,2,0,0,0,1.07-.27l37.47-21.64A2.32,2.32,0,0,0,91.55,108v-.54L51.92,130.3Z"/><g class="cls-9"><path d="M29.92,116v.75a2.22,2.22,0,0,0,1,2l19.92,12.7a2,2,0,0,0,1,.32,2,2,0,0,0,1.07-.27l37.47-21.64A2.32,2.32,0,0,0,91.55,108v-.54L51.92,130.3Z"/></g><path class="cls-4" d="M91.53,107.44,69.87,93.58a1.19,1.19,0,0,0-1.26,0L30.06,115.82a.3.3,0,0,0-.11.4.23.23,0,0,0,.11.11l21.86,14Z"/><g class="cls-26"><path d="M91.53,107.44,69.87,93.58a1.19,1.19,0,0,0-1.26,0L30.06,115.82a.3.3,0,0,0-.11.4.23.23,0,0,0,.11.11l21.86,14Z"/></g><polygon class="cls-8" points="52.09 128.15 40.41 120.68 75.11 100.64 86.86 108.08 52.09 128.15"/><polygon class="cls-6" points="46.35 108.22 46.57 108.36 52.3 112.01 62.74 105.98 62.96 105.86 57.02 102.06 46.35 108.22"/><polygon class="cls-8" points="46.57 108.36 52.3 112.01 62.74 105.98 57.01 102.32 46.57 108.36"/><path class="cls-4" d="M51.92,130.3v1.51a2.07,2.07,0,0,0,1.06-.27l37.48-21.65a2.26,2.26,0,0,0,1.1-1.9v-.55Z"/><g class="cls-27"><path class="cls-28" d="M51.92,130.3v1.51a2.07,2.07,0,0,0,1.06-.27l37.48-21.65a2.26,2.26,0,0,0,1.1-1.9v-.55Z"/></g><g class="cls-29"><path d="M51.92,130.3v1.51a2.07,2.07,0,0,0,1.06-.27l37.48-21.65a2.26,2.26,0,0,0,1.1-1.9v-.55Z"/></g><path class="cls-4" d="M52.5,130.66a2.37,2.37,0,0,0,2.15-.12L92,109a2.63,2.63,0,0,0,1.25-1.82l4.57-25.24a2,2,0,0,0,0-.43,2.75,2.75,0,0,0-.72-1.9L58.34,102a1.92,1.92,0,0,0-.93,1.34Z"/><g class="cls-30"><path d="M52.5,130.66a2.37,2.37,0,0,0,2.15-.12L92,109a2.63,2.63,0,0,0,1.25-1.82l4.57-25.24a2,2,0,0,0,0-.43,2.75,2.75,0,0,0-.72-1.9L58.34,102a1.92,1.92,0,0,0-.93,1.34Z"/></g><path class="cls-4" d="M51.92,130.3l.24.16a2.9,2.9,0,0,0,.34.19l4.91-27.31a2,2,0,0,1,.93-1.34L97.12,79.59a2.86,2.86,0,0,0-.5-.42L57.79,101.65a2,2,0,0,0-.94,1.34Z"/><g class="cls-31"><path d="M51.92,130.3l.24.16a2.9,2.9,0,0,0,.34.19l4.91-27.31a2,2,0,0,1,.93-1.34L97.12,79.59a2.86,2.86,0,0,0-.5-.42L57.79,101.65a2,2,0,0,0-.94,1.34Z"/></g><path class="cls-15" d="M57.8,102.51l-.58-.37a2,2,0,0,0-.37.82L51.92,130.3l.24.16a2.9,2.9,0,0,0,.34.19l4.91-27.31A2.12,2.12,0,0,1,57.8,102.51Z"/><path class="cls-8" d="M73.75,107.75a8.47,8.47,0,0,1,3.81-4.94c1.8-1,3-.52,2.71,1.17a8.48,8.48,0,0,1-3.81,5C74.66,110,73.44,109.44,73.75,107.75Z"/><path class="cls-22" d="M28.72,113.72c2.15,1.94,5.37.37,8.14.75s5.14,1.06,7.36,1,3.32.41,1.76,2.27-6,.8-7.23,1.36a2.82,2.82,0,0,0-1,3.73,2.9,2.9,0,0,0,.44.6c1.3,1.6-7.44-1.51-8.59-3.39S27.13,114,28.72,113.72Z"/></g></g><g id="Layer_2-2" data-name="Layer 2"><g id="Layer_1-2-2" data-name="Layer 1-2"><g id="freepik--Globe--inject-388"><g id="freepik--globe--inject-388-2"><path class="cls-4" d="M50.12,204.82a103.7,103.7,0,1,0,44.51-85.16A103.7,103.7,0,0,0,50.12,204.82Z"/><path class="cls-32" d="M50.12,204.82a103.7,103.7,0,1,0,44.51-85.16A103.7,103.7,0,0,0,50.12,204.82Z"/><path class="cls-8" d="M175.19,118.05c-4.44-1.69-10.71-2.39-7.62,1.75s5.61,5.42,4.34,8.68-4.75,5.82-4.63,8.54.77,6.09,2.75,6,8.62-3.39,11.14-2.11,11.27,5.25,13.73,2.85,3.7-1.66,7.13-4,5-6.75,2.45-7.81-3.38-.09-7.61-2.15-5.09-5.74-9.64-6.68S178.44,119.29,175.19,118.05Z"/><path class="cls-8" d="M158.38,112.65c-6.06.67-18.19.48-22.52-2.82-2.14-1.65-4.63-3.72-7.48-5.57a104,104,0,0,0-59.74,41.33,33.83,33.83,0,0,0,1.65,8.52c2,6,5.73,8.15,10.19,11s1.86,5,3.09,8.77,1.55,5.82,3.69,8.43-2.72,4-5,6.71-3.32,4.31-3.62,11.53,4.08,14.94,5,18.16S80.2,223.48,79,228.94s-6.94,19-5.08,28.62,5.16,9.92,6.83,4.59,2-10.88,6.5-13.56,10.2.77,15.1-5.5,6.08-5.4,10.33-6.49,3.61-3.75,8.85-8,8.22-9.06,4.61-13.12-6.7-5-8.44-11.91a53.54,53.54,0,0,0-10.1-19.74c-4.38-5.28-14.75-5.13-17.89-7.58s-2.67-10.14-1.4-12.62-1.09-4.25-3.9-4.64-3.57-2.58-2.91-6.28,7.7-5.88,12.14-4.48,6,4.32,4.59,10.22A11.64,11.64,0,0,0,103,171.17c3.58,2.58,2.75-2.55,1.06-6.5s-.85-6.6,3.77-12,9.66-2.82,15.85-7,5.22.44,8.93,2.58,4-.21,6.86-3.21,6.68,2.07,11.94.82-1.49-9.24.65-13,6-2,6.18-8.77,3.28-5.8,5.72-7.38S164.38,112,158.38,112.65Zm-11.59,12.07c-2.46,2.39-3.36,1.39-6.77,3.72a12.85,12.85,0,0,1-9.71,2.18c-2.26-.6-4.26-5.84-3.5-8.28s4.47-1.77,8.53-.73,8,.68,12.64-.66c3.61-1.07,1.24,1.38-1.22,3.77Z"/><path class="cls-8" d="M252.72,236l-.08.28a7.35,7.35,0,0,0-5.34,2.26c-4.33,4.49-3.79,2-10.39,3.56s-5.79,5.25-7,9-8.8,5.53-12.26,5.65-8.1,7.94-8.76,12.37-6.17,4.15-10.62,6.66-8.62,8-11.75,10.2a9.79,9.79,0,0,1-10.64.56c-3.28-2-4.21-9.13-4.09-14.94a31.7,31.7,0,0,1,5-16.71c3.29-5.05,2.63-4.53,4.76-13.62s-2.9-14.07-5.88-16.22-9.23-2.42-11.49-5.32-2.53-5.91-1.21-14.76,6-9.08,10.9-12.18,12.85-5.22,19-4.53,9.32,3.66,12,6.71,2.78,7.45,5.08,8.67,4.87.8,7.1,2.23,3.37,3.25,5.87,3.79,2.1-2.75,2.36-4.38-2-2.09-4.83-3.24-3.21-2.21-3.47-4.48-2.52-1.28-3.57-2.59-2.17,2.25-2.82,3.53-.75-1.48-.75-1.48-1.89,1.36-2.06.32,1.79-2.59,2.46-4.72-2.51-2.84-3.74-5.18a7.67,7.67,0,0,0-6.61-3.78c-2.88-.17-3.1-1-5.12.82s-8.16,1.09-9.79.1,1-4.07,3.79-6.61,5.43-.25,8.63-2.65.74-3.91-.83-5.14-1.44-3.14,2-6.44,5.5-1.2,5.76,1.08,2.12,4.09,4.51,5.07,2.48-.92,3.81-4.4,3.67-4.7,7.34-4.76,9.79-.1,12.57-1.17,5.84,1.58,6.91,4.36,4.94,5.21,9,7.71a3.84,3.84,0,0,0,3.52.22A103.2,103.2,0,0,1,252.72,236Z"/><path class="cls-8" d="M215.74,276.11c-2.19-1.34-2.29-.48-4.4.81s-5,2.59-5.37,4.65-1.17,4.51,1,3.74,2.3-2.69,5-2.81S219,278.11,215.74,276.11Z"/><path class="cls-33" d="M213,129.53c-54.22-42.24-82.4-5-60.45,34.32s74.17,70.31,88.63,56S253.38,161,213,129.53Z"/><path class="cls-34" d="M108.38,242.59c-32-58.17-.13-133.48,51.46-141.28h0c-2-.12-4-.2-6-.2a103.69,103.69,0,1,0,73.9,176.41C206.79,290.81,140.38,300.72,108.38,242.59Z"/></g></g></g></g><g id="freepik--character-2--inject-2-2" data-name="freepik--character-2--inject-2"><g id="freepik--Character--inject-2-4" data-name="freepik--Character--inject-2"><path class="cls-13" d="M195.44,171.07c-5.79.26-7.77,1.68-10.53,5.29C181.55,180.77,166,203.1,166,203.1s4.8,6.5,10.65,5.86l12.31-12.56Z"/><rect class="cls-3" x="214.98" y="321.25" width="7.48" height="12.71"/><polygon class="cls-3" points="196.52 320.57 189.04 320.82 188.66 307.38 196.52 307.13 196.52 320.57"/><path class="cls-8" d="M223.52,211.23c0,7.09-.19,64.4-.19,64.4a57.37,57.37,0,0,1,.76,13.37c-.57,10.64-1.32,38.6-1.32,38.6a9.9,9.9,0,0,1-8.33.17S207.36,289,206,278.49c-1.18-9.2-3.16-40.19-3.16-40.19l-4.05,36.06a42.2,42.2,0,0,1,.94,11.75C199.4,291,197,316.4,197,316.4a10.26,10.26,0,0,1-8.64.65s-5.52-38.47-5.6-42.95c-.1-5.1,2.17-63,2.17-63Z"/><path class="cls-7" d="M215,330.29v-1.06c-.71.31-2.38,6.6-5.35,9.29-2.36,2.17-5.58,4.61-6.4,7s4.48,3.84,6.69,3.45c2.57-.45,7-2.24,8.12-3.9s1.63-4.1,2.54-5.32,3-2.57,3.49-4c.27-.77-.06-2.47-.43-3.89s-.75-2.77-1.18-2.64V330a5.94,5.94,0,0,1-3.74,1.26C217.61,331.33,215,331.12,215,330.29Z"/><path class="cls-7" d="M189,318.57c-.39,0-.7.55-1.57,1.47a16.2,16.2,0,0,1-4.4,3.14c-2.8,1.39-8.25,3.54-10.72,4.64-1.51.69-1.46,2.53.13,3.61s5.44,1.8,10,.78c2.52-.56,5.79-2.89,7.87-2.74s5.94.1,7.47-1,.92-3.28.49-5.2c-.47-2.09-1.06-5.36-1.76-5.22v.73c-.9,1.35-5.54,1.9-7.52.9Z"/><path class="cls-7" d="M202.87,238.3a27.84,27.84,0,0,1-10.42-5.93s2,3.73,8,7.21l-1.28,32.17Z"/><path class="cls-18" d="M219.62,172.56s5.86.52,5.45,11.14l-1.3,16.92,0,25.4c-5.51,5.94-31.46,5.49-39.8-.49,0,0,1-29.16,1.51-40.72.4-8.22,3.9-13.25,12.39-14.15l10.43.43Z"/><polygon class="cls-15" points="203 178.14 201.66 187.06 198.52 187 202.05 187.53 203 178.14"/><path class="cls-7" d="M210.59,149.54a10.67,10.67,0,0,1-10.71,10.62,10.85,10.85,0,0,1-10.71-10.62c-.47-10.37,4.8-10.63,10.71-10.63A10.67,10.67,0,0,1,210.59,149.54Z"/><path class="cls-7" d="M217.07,145.45c-1.26-1.86-2.43-1.58-2.43-1.58l-.82,9-1.32.26-.11,12.2a3.59,3.59,0,0,0,1.61-1.66c.45-.85,1.4-6,1.93-9.1C215.92,154.58,218.14,147,217.07,145.45Z"/><path class="cls-3" d="M212.68,155.17c.62.36,1.51-.82,2.27-1.61s3.26-1.89,4.51.72-1.1,6.16-3.07,6.77c-3.39,1-3.9-1.1-3.9-1.1l-.25,12.13c-4.55,6.62-14.7,6.38-11-.32v-3.7a21.64,21.64,0,0,1-4.55.24c-2.49-.38-4.06-2.34-4.81-5.05-1.22-4.33-1.68-7.77-.65-16.22,1.13-9.26,12-9.38,17.86-5.7S212.68,155.17,212.68,155.17Z"/><path class="cls-8" d="M212.3,169.36a15.67,15.67,0,0,1-4.4,5.26,13,13,0,0,1-5.31,2.16,11.42,11.42,0,0,1,3.79,4c1.12,2.35,9.05-4.13,9-8.74,0,0-1.24-4.63-2.95-4.92Z"/><path class="cls-8" d="M202.55,176.78s-2.44-1.16-1.34-5.05V168l-1.07.14a8.87,8.87,0,0,0-2.58,4.25c-.24,1.05-.84,6.41.23,7.47S200.37,177.06,202.55,176.78Z"/><path class="cls-7" d="M196.18,146.42c5,.13,8.16-.89,12.33-1.36a1.71,1.71,0,0,1,.84.05c.92.4,1.12,3.12,1.28,3.92.55,2.65,1,7.15,2.05,7.17.31,0,1.51-1.95,2.27-2.64,1.07-1-.31-9.71-.31-9.72a9.68,9.68,0,0,1,.25-1.19,4,4,0,0,0-.65-2.21,7.07,7.07,0,0,0-3.74-2.89c-2.82-1.05-5.92-.92-8.73-2.16a25,25,0,0,0-3.36-1.45,3.57,3.57,0,0,0-3.44.68,3.94,3.94,0,0,0-.84,2.17,5.82,5.82,0,0,0-2.1-1.87,3.82,3.82,0,0,0-4.55,1.79,7.34,7.34,0,0,0,.5,6.52C189.58,145.59,193.45,146.35,196.18,146.42Z"/><path class="cls-7" d="M214.63,144.3l3.73-2a2.06,2.06,0,0,0-2.65-1l-.19.08A2.22,2.22,0,0,0,214.63,144.3Z"/><path class="cls-14" d="M201.22,168.06s5.56-1.11,7.5-2.16a6.29,6.29,0,0,0,2.69-2.64,8.73,8.73,0,0,1-1.51,3.11c-1.43,1.81-8.68,3.14-8.68,3.14Z"/><path class="cls-7" d="M202.55,153.78a1.08,1.08,0,0,0,1,1.15,1.1,1.1,0,0,0,1.21-1,.54.54,0,0,0,0-.18,1.12,1.12,0,0,0-1.11-1.12A1.14,1.14,0,0,0,202.55,153.78Z"/><path class="cls-7" d="M204,149.71l2.39,1.31a1.4,1.4,0,0,0-.55-1.88,1.34,1.34,0,0,0-1.78.46Z"/><path class="cls-14" d="M201.7,161.42l-2.54,1a1.33,1.33,0,0,0,1.65.86l.08,0A1.41,1.41,0,0,0,201.7,161.42Z"/><path class="cls-7" d="M192.54,151.1l2.17-1.65a1.31,1.31,0,0,0-1.76-.38.51.51,0,0,0-.13.09A1.39,1.39,0,0,0,192.54,151.1Z"/><path class="cls-7" d="M193.28,153.47a1.11,1.11,0,0,0,1.1,1.14h0a1.19,1.19,0,0,0,1.29-1.06,1.16,1.16,0,0,0-1.11-1.23,1.2,1.2,0,0,0-1.29,1.06Z"/><polygon class="cls-14" points="199.25 152.58 199.12 159.28 195.12 158.41 199.25 152.58"/><path class="cls-3" d="M232.58,208.93s-6.47,9.37-7.57,10.6-1.88.81-3.09.27a35.3,35.3,0,0,0-4.49-1.5c-2-.5-2.41,1.37-.45,2.69,1.41,1,3,1.38,2.36,2.17a15.09,15.09,0,0,1-4.72,3c-4.79,1.92-4.42,2.88-3.54,4.46.76,1.38,3,4.33,11.56.84,3.53-1.44,8.5-5.55,10.84-8.19,3.39-3.81,8.66-10.65,8.66-10.65Z"/><path class="cls-13" d="M220.14,172.75c2.34.16,8.07,1.58,13.63,10.94,4.86,8.2,11.24,18.4,11.42,22.62.06,1.38-2.78,6.63-6.14,10.82-3.88-.17-6.92-3.16-8.75-5.34,1.06-1.7,2.27-4.24,2.27-4.24l-9.79-14.42a19.14,19.14,0,0,1-5-9.23C216.8,178.21,218.7,173.18,220.14,172.75Z"/><polygon class="cls-4" points="158.13 190.81 186.12 198.31 193.82 230.56 167.21 222.69 158.13 190.81"/><g class="cls-35"><path d="M170.78,213.64a5.56,5.56,0,0,1-5.23,3.18l-.21-.72Z"/></g><g class="cls-35"><path d="M166.56,195.94s-.1-.48-.22-1.08,1.51-.63,3.66-.06l4.12,1.09c2.16.56,4,1.52,4.14,2.11l.22,1.09Z"/></g><path class="cls-6" d="M164.41,191.84c-.08-.37.58-.47,1.52-.22l1.63.46s-.48-2.35,3.14-1.53a5.76,5.76,0,0,1,4.41,3.49l1.75.51c1,.28,1.84.81,1.95,1.18l.21.67-14.4-3.86A4.61,4.61,0,0,1,164.41,191.84Z"/><path class="cls-7" d="M166.4,193c1.32.32,1.87.49,2.06,1.44s.32,1.83.32,1.83l6.39,1.72s-.31-1.34-.41-1.86.12-.84,1.13-.57l.09-.41-10-2.59Z"/><path class="cls-6" d="M166.18,196s-.1-.5-.23-1.09,1.51-.63,3.67-.06l4.12,1.09c2.15.57,4,1.51,4.13,2.11l.23,1.09Z"/><path class="cls-3" d="M161.08,201.16s1,3.65,1.29,4.51,3.37,2.43,5.43,3,4.31,1.26,3.33,4.18c-.89,2.71-4.28,3.32-6,3.25s-4.08-1.75-5-4.46c-1.19-3.45-.56-7.13-1-9.14S160,200,161.08,201.16Z"/></g></g><g id="freepik--Character--inject-2-5" data-name="freepik--Character--inject-2"><g id="freepik--character--inject-2-6" data-name="freepik--character--inject-2"><g id="freepik--Top--inject-2"><path class="cls-3" d="M113.91,168.65c2.65-.14,7.51-.3,11,4,2.47,3,9.19,10.3,13,15.11,2.55-2.64,8.75-9.07,9.76-10.95a29.34,29.34,0,0,0,2.32-5.52,19.53,19.53,0,0,0,.81-3.44,18.93,18.93,0,0,0,.08-4.32c0-1.32,1.91-.66,2.64,1.43a11,11,0,0,1,.57,3.55l3.15-1.52c1.14-.53,4.77-1.8,5.12.24a4.8,4.8,0,0,0,.13,1.37,2.25,2.25,0,0,0,.4.52,2.36,2.36,0,0,1,.28,2.36,1.77,1.77,0,0,0-.2,1.08,2.88,2.88,0,0,1,.05,1.17,4.92,4.92,0,0,1-.46.84,3.88,3.88,0,0,0-.32,1.2A4.24,4.24,0,0,1,162,177c-.39.91-1.49,1.11-2.33,1.41a38.52,38.52,0,0,0-3.78,1.49c-2,1.32-7.47,11.13-13,17.42-1.89,2.16-3.59,3.5-5.38,3.3h0c-1.45,0-3.25-1.32-5-2.84-5.46-4.78-14.28-14-14.28-14C114.52,179.25,113.49,171.64,113.91,168.65Z"/><path class="cls-14" d="M155.6,168.7c-1.12.39-1.41,1.15-1.32,2.77.05,1-.18,2.76-1.21,3.5a2.51,2.51,0,0,0,1.33-.66c.48-.52.61-.58.9-.31a1.75,1.75,0,0,0,.73.4,1.26,1.26,0,0,0-.07,1.49c.53.82,2.81.76,4.64-.25,0,0-3,1-3.71.1s.83-2.18,2-2.54c0,0-2.89.78-3.37-.15s.71-1.7,2.41-2.18c0,0-2.39.5-2.83-.29A1.48,1.48,0,0,1,155.6,168.7Z"/><path class="cls-4" d="M121.79,195a52.62,52.62,0,0,0-.09,5.89c.17,2.12-.42,2.84-1.26,3.49-13.79,11.28-29.17.38-29.17.38-1.81-.93-1-2.89-1.6-5.93a53.23,53.23,0,0,0-2.28-9.59s8.37-11.51,3-19.69l9.72-.66,9.1-.12,4.64-.13c4.46,5,8.67,10.6,9.75,13.28S126.46,189.47,121.79,195Z"/><path class="cls-23" d="M121.79,195a52.62,52.62,0,0,0-.09,5.89c.17,2.12-.42,2.84-1.26,3.49-13.79,11.28-29.17.38-29.17.38-1.81-.93-1-2.89-1.6-5.93a53.23,53.23,0,0,0-2.28-9.59s8.37-11.51,3-19.69l9.72-.66,9.1-.12,4.64-.13c4.46,5,8.67,10.6,9.75,13.28S126.46,189.47,121.79,195Z"/><g id="freepik--Head--inject-2"><path class="cls-7" d="M94.38,134.17c-4.7-2.1-10,1.54-10.35,9.09-.3,7,2.74,12.61,7.4,14.28,4.48,1.61,5.43-.87,5.43-.87Z"/><path class="cls-6" d="M89.9,140.9C91,136.23,95.31,132,102.08,131c2.53-.34,7.28-1.12,12.48,2a4.84,4.84,0,0,1,2.38,4.4,3.74,3.74,0,0,1,3.36,3c.22,1.27-.25,2.53-.35,3.81a2.29,2.29,0,0,0,.36,1.63,1,1,0,0,0,1.43.21l.07-.06a1.19,1.19,0,0,1-.62,1,2.36,2.36,0,0,1-1.16.27,4.53,4.53,0,0,1-2.08-.47c.09,1.24-.66,2.77-1,4s-.66,2.69-1,4.05c-.29,1.18-.58,2.36-.86,3.54a7.18,7.18,0,0,1-.37,1.52s-16.56,5-16.71,2.12C96.56,156.86,87,152.77,89.9,140.9Z"/><path class="cls-3" d="M98.14,169.2,98,156.55s-1.56,1.71-4.06.09c-2.23-1.46-3.31-4.78-1.9-6.59,1-1.32,4.27-2.15,5.71.43,0,0,3.82-.39,8.61-4.2s5.83-7,8.88-7.51c1.5,1,3.08,4.16,3.39,12.67.23,6.31-2.43,9.46-3.82,10.62-1.12.95-2.65,1.15-5.19.87l0,6C112.85,174.52,104.51,174.08,98.14,169.2Z"/><path class="cls-4" d="M109.65,164.64s.55-.14.73.25-.73,2.09-.73,2.09Z"/><path class="cls-4" d="M97.07,169.1c.77,0,.47-2.81,0-4a2.08,2.08,0,0,1,1.94,0c1,.56.66,1.76,1.53,2.31s1.72-.34,2.45,0,.86,1.54,1.54,1.45,2-1.19,2.58-1,1.29.66,1.76.3.35-1.67.8-1.76,1-1.47,0-1.74c0,0,1-.39,1.1.59s.76,5.13.76,5.13a4.9,4.9,0,0,1-4.51,3.25A11.48,11.48,0,0,1,97.07,169.1Z"/><path class="cls-36" d="M97.07,169.1c.77,0,.47-2.81,0-4a2.08,2.08,0,0,1,1.94,0c1,.56.66,1.76,1.53,2.31s1.72-.34,2.45,0,.86,1.54,1.54,1.45,2-1.19,2.58-1,1.29.66,1.76.3.35-1.67.8-1.76,1-1.47,0-1.74c0,0,1-.39,1.1.59s.76,5.13.76,5.13a4.9,4.9,0,0,1-4.51,3.25A11.48,11.48,0,0,1,97.07,169.1Z"/><path class="cls-8" d="M97.47,168.65c.75.72,4.27,4.12,9.27,3.3s4.53-3.3,4.53-3.3l-.12-.83s-.18,2.57-4.51,3.17c-4.48.66-8-2.34-9.1-3.45Z"/><path class="cls-6" d="M106.07,172.05l-1.71,9.07,1.47-.56.89-8.57,2.47,7.91h2.08l-3.94-8.11a.81.81,0,0,0-1.15.1A.64.64,0,0,0,106.07,172.05Z"/><path class="cls-8" d="M106.65,171a11.18,11.18,0,0,0-3.22,4.4,2,2,0,0,0,2.25,1.11l1-4.52Z"/><path class="cls-8" d="M106.75,172s1.26,2.47,2,4c0,0,1.65-.21,1.65-1.67a8.11,8.11,0,0,0-3.78-3.33Z"/><path class="cls-7" d="M107.91,149.47a1.16,1.16,0,0,1-1,1.29h0a1.18,1.18,0,0,1-1.27-1.06,1.15,1.15,0,0,1,1-1.27h0a1.17,1.17,0,0,1,1.27,1.05Z"/><path class="cls-7" d="M117.17,146.51,114.7,145a1.42,1.42,0,0,1,1.94-.52l0,0A1.47,1.47,0,0,1,117.17,146.51Z"/><path class="cls-16" d="M107.67,155.63l3.76,1.19a1.93,1.93,0,0,1-2.37,1.34l-.07,0A2,2,0,0,1,107.67,155.63Z"/><path class="cls-14" d="M110.05,158.14a1.78,1.78,0,0,0-1.78-1.71,1.84,1.84,0,0,0-.66.12,2,2,0,0,0,1.36,1.56A1.81,1.81,0,0,0,110.05,158.14Z"/><path class="cls-7" d="M116.56,149a1.17,1.17,0,0,1-1,1.29h0a1.2,1.2,0,0,1-1.28-1.06,1.16,1.16,0,0,1,1-1.28h0A1.18,1.18,0,0,1,116.56,149Z"/><polygon class="cls-14" points="110.78 148.4 111.29 154.56 114.56 153.38 110.78 148.4"/><path class="cls-14" d="M109.65,162.93c-2.71-.2-8.31-1.45-9.27-3.54a5.56,5.56,0,0,0,2.09,2.64c1.73,1.32,7.22,2.64,7.22,2.64Z"/><path class="cls-6" d="M97.73,149.89l.2,3.48h0a2.47,2.47,0,0,0,2.36-2.57l-.19-3.37Z"/></g><ellipse class="cls-8" cx="95.44" cy="153.37" rx="1.64" ry="1.63"/><path class="cls-6" d="M100.54,159c-4.3,0-5.08-3.95-5.35-5.37a.32.32,0,0,1,.25-.37.31.31,0,0,1,.37.24c.47,2.44,1.63,5.58,6.16,4.74a.31.31,0,0,1,.37.24.32.32,0,0,1-.26.37A7.88,7.88,0,0,1,100.54,159Z"/><path class="cls-8" d="M104.53,158.85l-1.57.3a.85.85,0,0,1-1-.66h0a.84.84,0,0,1,.66-1h0l1.58-.3a.82.82,0,0,1,1,.65h0a.83.83,0,0,1-.66,1Z"/></g><g id="freepik--Bottom--inject-2"><path class="cls-6" d="M81.94,324.41A64.06,64.06,0,0,0,80.61,331c-.37,2.49-.61,4.33-1.43,8.57-.75,3.87-1.66,6.74,1.2,10.05,2.35,2.72,7.53,3.41,9,.51,1.72-3.29.87-8.05.66-11.42s.28-5,.29-7.73c0-2.37-.09-3.34-.2-5.38C87.47,325.4,84.64,324.66,81.94,324.41Z"/><path class="cls-3" d="M109.18,277a64.73,64.73,0,0,0,1.61,15.28c1.21,5.65,4.74,18.75,5.15,22.55.41,4,.66,4.8-.16,6.08v0c-1,1.47-1.68,2.84-1.55,3.79a7,7,0,0,0,1.68,3,15.21,15.21,0,0,1,1.48,2.68,29.48,29.48,0,0,1,2.13,7,9.1,9.1,0,0,0,.67,2.11c1.13,2.28,3.92,3.3,6.52,3.71a17.74,17.74,0,0,0,7.88-.2c1-.33,2-.83,2.06-2.05s-.7-1.82-2.3-3.07a21,21,0,0,1-2.23-2,7.51,7.51,0,0,1-1.28-1.74,53.54,53.54,0,0,1-3.4-7.43,23.48,23.48,0,0,1-1.75-7.37c-.15-2.91-.71-34.62-.44-43.92.74-17.45-4.93-61.81-4.93-61.81l.31-.72.14-1.87s-2,3.22-11.75,3a97.62,97.62,0,0,1-17-2.18c-1.29,3.48-4.59,4.87-6.81,11.39-2.59,7.6-3.61,30.18-2.48,54.29-2.08,10-.87,14.51-1,19.75-.13,6.89-.16,7.59.08,14.11.22,5.59.2,9.81.11,13-.12,4.39-1.71,11.48-1.1,14.86.92,5.07,7,6.91,8,1.2.56-3.57,1-11.43,1.43-15.33.51-4.5,1.18-8.22,2.22-13.75s4.91-22.52,6.35-32.81c1-7,3.68-21.21,5.34-29.76,1,4.86,4.58,22.25,5.05,28.21"/><path class="cls-7" d="M116.67,340.12l.93-.12c0-2.8-.27-5.35.42-6.68l-1.42-3.39Z"/><path class="cls-7" d="M114,327.47c.27,1.91,1.45,3.85,1.64,7.61a31.16,31.16,0,0,1,0,4.83l1,.21-.08-10.22Z"/><path class="cls-7" d="M136.41,342.18s0,1.12-.5,1.5-1.51,1.51-6.62,1.36-7-1.32-8.75-2.82-2.38-5.5-2.69-7.38a13.92,13.92,0,0,0-3.81-7.37,3.18,3.18,0,0,1-.2-1.9s3.46.52,5.43,5,4.29,8.8,8.46,9.92A73.59,73.59,0,0,0,136.41,342.18Z"/><path class="cls-6" d="M114.18,322.76a28.32,28.32,0,0,1,2-2.7,5.19,5.19,0,0,1,1.73,2.55c.34,1,1.32,5.77,2.65,9.58a7.41,7.41,0,0,0,4.78,5.07,8.93,8.93,0,0,0,4.23.35h0c2.65-.43,2-2.25,2-2.25.66.8,3.24,2.72,4.78,4.14.88.81.52,2.07-.11,2.91-.72.65-2.42,1.9-8.8,1.18-5.68-.66-7.07-3.11-7.64-4.22a26.07,26.07,0,0,1-1.32-5.05,15.41,15.41,0,0,0-2.14-5.34,4.69,4.69,0,0,0-.39-.57h0a20.19,20.19,0,0,0-1.38-1.68c-.41-.45-.72-.66-.86-1.09A4,4,0,0,1,114.18,322.76Z"/><path class="cls-8" d="M81.18,296.85c-.34-6.41-1.32-10.21,1-19.2.15-19.78-.81-46.44,1.23-54.18,2.77-10.55,8.09-15,7.95-18.71a39.64,39.64,0,0,0,14.8,3.2c9.7.25,14.36-3.58,14.36-3.58.12,2.21,1.74,9.09,2.65,17.9,1.87,17.95,2.83,41.19,2.7,54.57-.08,9.27,0,21.38-.33,29.55-2.65,1.82-8,3.11-11.15,1.38-1.75-7.25-2.92-9.23-4.61-17.14a39.36,39.36,0,0,1-1-13.63c-.74-5.71-3.51-20.5-4.47-25.36,0,0-4.5,20-5.48,26.93-1.44,10.29-4.92,26.49-6.17,32-2,1.37-7.76,1.27-10.86-1.18C81.51,302.84,81.52,303.74,81.18,296.85Z"/><path class="cls-6" d="M89.79,209.11a38.22,38.22,0,0,0,17.28,3.74c9.84-.22,14.14-3.36,14.14-3.36h0c-.42-2.4-.74-4.17-.79-5.11,0,0-4.64,3.83-14.37,3.58a39.88,39.88,0,0,1-14.8-3.2,8.86,8.86,0,0,1-1.46,4.35Z"/><path class="cls-6" d="M104.27,251.66l3.16-14.93s6.35-2.26,9.89-5.34c0,0-1.87,3.83-7.69,6.54l-3.31,17.22,2.06,19.38Z"/></g><g id="freepik--Arm--inject-2"><polygon class="cls-4" points="133.76 197.67 106.94 196.97 98.99 226.97 124.49 226.98 133.76 197.67"/><polygon class="cls-10" points="133.76 197.67 106.94 196.97 98.99 226.97 124.49 226.98 133.76 197.67"/><path class="cls-34" d="M111.21,215.44c.1.66-.39,1.45-1.7,2.37-1.06.73-1.83,2.12-3.53,2.36a11.28,11.28,0,0,1-5.15-.14l1.09-4.1Z"/><path class="cls-34" d="M125.91,200.13l.22-.93c.12-.51-1.45-1-3.51-1l-4-.12c-2.06-.07-3.84.3-4,.82l-.22.92Z"/><path class="cls-7" d="M127.77,196.94c.08-.32-.55-.59-1.42-.6h-1.56s.47-2-3-2.24-4.23,2-4.23,2h-1.67c-.92,0-1.76.24-1.87.55l-.2.56,13.82.36Z"/><path class="cls-7" d="M125.87,197.45c-1.27-.06-1.79,0-2,.74-.13.53-.23,1.06-.31,1.59l-6.12-.16s.3-1.13.4-1.58-.11-.8-1.08-.82l-.09-.4,9.58.33Z"/><path class="cls-6" d="M126.08,200.27l.22-.93c.12-.52-1.45-1-3.51-1l-4-.12c-2.07-.06-3.84.3-4,.82l-.22.93Z"/><path class="cls-3" d="M103.6,209.65l-.07.26a.92.92,0,0,0,.32.1,23.7,23.7,0,0,0,4.21.26c1.23-.05,2.47-.17,3.7-.29a1.54,1.54,0,0,1,.74,0,1.13,1.13,0,0,1,.52,1.36,6.56,6.56,0,0,1-.77,1.4c-.49.83-.66,1.78-1.17,2.59-1.81,2.8-5,3.9-12.54,2-2.17-.55-4.57-1.79-7.35-2.43-5.68-1.31-10.53-2-15-4.08-4.8-2.28-4.24-3.66-3.66-7.46.66-4.42,3.27-13.84,6-22.79,2.9-9.51,6-10.71,11.85-11.06,5,7-1.4,18.55-1.4,18.55l-4.94,14.3s6.76,4.2,11.7,5.33a8.06,8.06,0,0,0,2.39.42c1.65-.11,4.31-1.55,6.21-1.47Z"/></g></g></g></g></g></svg>