<svg xmlns="http://www.w3.org/2000/svg" viewBox="0 0 450.21 476.7"><defs><style>.cls-1{fill:#e9e9e9;}.cls-2{fill:#f567b0;}.cls-3{fill:#fff;}.cls-4{fill:#fab2d7;}.cls-5{fill:#9e6767;}.cls-6{fill:#874c4c;}.cls-7{fill:#455a64;}.cls-8{fill:#263238;}.cls-9{fill:#37474f;}.cls-10{opacity:0.45;}.cls-10,.cls-11,.cls-13,.cls-14{isolation:isolate;}.cls-11{opacity:0.2;}.cls-12{fill:#f28f8f;}.cls-13{opacity:0.1;}.cls-14{opacity:0.15;}.cls-15{fill:#ffa8a7;}.cls-16{opacity:0.6;}.cls-17{fill:#e0e0e0;}.cls-18{fill:#ffbda7;}.cls-19{fill:#f5f5f5;}.cls-20{fill:#f0997a;}</style></defs><g id="Layer_2" data-name="Layer 2"><g id="Layer_1-2" data-name="Layer 1"><ellipse class="cls-1" cx="241.59" cy="424.31" rx="176.67" ry="39.76"/><g id="Icons"><g id="_1" data-name="1"><rect class="cls-2" x="169.5" width="37.08" height="32.68" rx="9.07"/><path class="cls-3" d="M195.94,19H194.7V11.58A1.66,1.66,0,0,0,193,9.93h-10a1.66,1.66,0,0,0-1.66,1.65V19h-1.24a.41.41,0,0,0-.42.41v1.24a2.49,2.49,0,0,0,2.49,2.48h11.62a2.49,2.49,0,0,0,2.48-2.48V19.43A.41.41,0,0,0,195.94,19Zm-13.27-7.44a.41.41,0,0,1,.41-.41h10a.41.41,0,0,1,.41.41V19H182.67Zm12.44,9.09a1.25,1.25,0,0,1-1.24,1.24H182.25A1.24,1.24,0,0,1,181,20.67v-.41h4.69a.8.8,0,0,0,.7.41h3.32a.82.82,0,0,0,.7-.41h4.69Zm-8.15-4,.29-.29a.39.39,0,0,0,0-.58l-.92-.93.92-.92a.39.39,0,0,0,0-.58l-.29-.29a.4.4,0,0,0-.59,0l-1.51,1.5a.42.42,0,0,0,0,.59l1.51,1.5a.42.42,0,0,0,.59,0Zm1.9-.29.3.29a.41.41,0,0,0,.58,0l1.52-1.5a.42.42,0,0,0,0-.59l-1.52-1.5a.39.39,0,0,0-.58,0l-.3.29a.41.41,0,0,0,0,.58l.93.92-.93.93a.41.41,0,0,0,0,.58Z"/></g><g id="_2" data-name="2"><rect class="cls-2" x="113.12" y="52.49" width="23.32" height="22.24" rx="5.93"/><path class="cls-3" d="M129.87,60.84v-.31a1.38,1.38,0,0,0-1.49-1.23h-6.7a2.07,2.07,0,0,0-2.24,1.85v4.92a2.07,2.07,0,0,0,2.24,1.85h8.19a1.38,1.38,0,0,0,1.49-1.23V62.07A1.38,1.38,0,0,0,129.87,60.84Zm.37,5.85a.35.35,0,0,1-.37.31h-8.19a1,1,0,0,1-1.12-.93V61.15a1,1,0,0,1,1.12-.93h6.7a.35.35,0,0,1,.37.31v.62h-6.7a.34.34,0,0,0-.37.31.33.33,0,0,0,.37.3h7.82a.35.35,0,0,1,.37.31Zm-1.86-3.08a.7.7,0,0,0-.75.62.69.69,0,0,0,.75.61.68.68,0,0,0,.74-.61A.69.69,0,0,0,128.38,63.61Z"/></g><g id="_3" data-name="3"><rect class="cls-2" x="62.04" y="76.12" width="23.32" height="22.24" rx="5.93"/><path class="cls-3" d="M79,82.2H68.39a1,1,0,0,0-1.06,1v6a1,1,0,0,0,1.06,1H79a1,1,0,0,0,1.06-1v-6A1,1,0,0,0,79,82.2Zm-.13,7H68.52a.13.13,0,0,1-.13-.13V83.33a.13.13,0,0,1,.13-.13H78.89a.13.13,0,0,1,.13.13v5.75A.13.13,0,0,1,78.89,89.21ZM78,92.38a.52.52,0,0,1-.54.5H70a.5.5,0,1,1,0-1h2.18l.41-1.17a.27.27,0,0,1,.25-.17h1.75a.27.27,0,0,1,.25.17l.41,1.17h2.18A.52.52,0,0,1,78,92.38Z"/></g><g id="_4" data-name="4"><rect class="cls-4" x="69.95" y="128.48" width="19.4" height="18.5" rx="4.93"/><path class="cls-3" d="M77.1,134.79h4.15v.72H82v-.72a.72.72,0,0,0-.7-.73H77.1a.71.71,0,0,0-.69.73V137h.69Zm3.23,2.66H76.18a.71.71,0,0,0-.69.73v2.9a.71.71,0,0,0,.69.73h4.15a.71.71,0,0,0,.69-.73v-2.9A.71.71,0,0,0,80.33,137.45Zm0,3.63H76.18v-1.81l1.15.87a1.16,1.16,0,0,0,1.85,0l1.15-.87Zm0-2.7s-1.61,1.24-1.69,1.29a.81.81,0,0,1-.39.2c-.13,0-.32-.16-.45-.26s-1.59-1.25-1.62-1.28v-.15h4.15ZM83.1,136H79a.71.71,0,0,0-.7.72V137H79v-.25H83.1v2.91H81.48v.73H83.1a.71.71,0,0,0,.69-.73v-2.91A.7.7,0,0,0,83.1,136Zm-1.38,1.21v1h.92v-1Z"/></g><g id="_5" data-name="5"><rect class="cls-2" x="82.83" y="187.28" width="28.51" height="27.19" rx="7.25"/><path class="cls-3" d="M102.28,199h-.06a13.27,13.27,0,0,0-5.13,1.2A13.28,13.28,0,0,0,92,199h0a1.29,1.29,0,0,0-1.33,1.27v4.48A1.27,1.27,0,0,0,91.8,206a13,13,0,0,1,4.51.95,1,1,0,0,0,.43.1h.69a1,1,0,0,0,.44-.1,13,13,0,0,1,4.5-.95,1.27,1.27,0,0,0,1.23-1.26v-4.48A1.29,1.29,0,0,0,102.28,199Zm-5.8,6.71a14.66,14.66,0,0,0-4.61-.9c-.05,0-.08,0-.08-.06v-4.49a.31.31,0,0,1,.1-.05,12.34,12.34,0,0,1,4.6,1Zm5.9-1s0,.05-.07.06a14.56,14.56,0,0,0-4.61.9v-4.46a12.21,12.21,0,0,1,4.58-1,.13.13,0,0,1,.1.06ZM97.09,199a2.42,2.42,0,1,0-2.45-2.42A2.43,2.43,0,0,0,97.09,199Zm0-3.62a1.21,1.21,0,1,1-1.22,1.2A1.21,1.21,0,0,1,97.09,195.39Z"/></g><g id="_6" data-name="6"><rect class="cls-2" x="164.88" y="198.16" width="19.88" height="18.96" rx="5.06"/><path class="cls-3" d="M173,204.51h-2.11a.1.1,0,0,1-.11-.1v-.64a.11.11,0,0,1,.11-.11H173a.11.11,0,0,1,.11.11v.64A.1.1,0,0,1,173,204.51Zm6.51,0v6.26a.86.86,0,0,1-.87.85H171a.86.86,0,0,1-.88-.85v-5.12a.86.86,0,0,1,.88-.85h2.47l.61-.8a.9.9,0,0,1,.7-.34h3.78A.86.86,0,0,1,179.47,204.51Zm-.87,1.14H171v5.12h7.56Zm0-1.14h-3.78l-.22.29h4Zm-1.6,3.7a2.18,2.18,0,1,0-2.18,2.13A2.16,2.16,0,0,0,177,208.21Zm-.87,0a1.31,1.31,0,1,1-1.31-1.28A1.3,1.3,0,0,1,176.13,208.21Zm-1.75,0a.44.44,0,0,1,.44-.43.29.29,0,1,0,0-.57,1,1,0,0,0-1,1,.29.29,0,0,0,.58,0Z"/></g><g id="_7" data-name="7"><rect class="cls-4" x="172.09" y="273.53" width="31.35" height="29.9" rx="7.97"/><path class="cls-3" d="M193.85,285.08h-2.21v-1.27a1.3,1.3,0,0,0-1.32-1.28h-4.41a1.3,1.3,0,0,0-1.32,1.28v1.27h-2.21a1.3,1.3,0,0,0-1.32,1.27v6.8a1.3,1.3,0,0,0,1.32,1.27h11.47a1.3,1.3,0,0,0,1.32-1.27v-6.8A1.3,1.3,0,0,0,193.85,285.08Zm-7.94-1.27h4.41v1.27h-4.41Zm-3.36,2.54h11.13a.17.17,0,0,1,.17.16v2H182.38v-2A.17.17,0,0,1,182.55,286.35Zm11.13,6.8H182.55a.17.17,0,0,1-.17-.16v-3.24h4v.64a.65.65,0,0,0,.66.63h2.21a.65.65,0,0,0,.66-.63v-.64h4V293A.17.17,0,0,1,193.68,293.15Z"/></g><g id="_8" data-name="8"><rect class="cls-2" x="257.46" y="237.03" width="18.84" height="17.97" rx="4.79"/><path class="cls-3" d="M269.41,241.56a.4.4,0,0,0-.15,0l-4.61,1.65a.56.56,0,0,0-.33.53v4.06a1.47,1.47,0,0,0-.73-.19,1.38,1.38,0,1,0,1.44,1.53.76.76,0,0,0,0-.15v-3l4.13-1.48v2.22a1.59,1.59,0,0,0-.73-.19,1.38,1.38,0,1,0,1.44,1.53.61.61,0,0,0,0-.14h0v-5.8A.52.52,0,0,0,269.41,241.56Zm-5.82,8a.58.58,0,1,1,.73-.55A.67.67,0,0,1,263.59,249.57Zm5.58-1.66a.76.76,0,1,1-.73-.55A.67.67,0,0,1,269.17,247.91Zm0-4.28L265,245.11V244l4.13-1.48Z"/></g><g id="_9" data-name="9"><rect class="cls-2" x="294.7" y="183.73" width="18.84" height="17.97" rx="4.79"/><path class="cls-3" d="M309.59,193.14l-.86-3.14a1.67,1.67,0,0,0-2-1.1l-.13,0-.29.09a.28.28,0,0,0-.19.35h0l.1.26a.31.31,0,0,0,.38.18l.25-.08a.91.91,0,0,1,.63,0,.69.69,0,0,1,.38.44l.73,2.66a5.38,5.38,0,0,0-4.05.41h-.69a5.38,5.38,0,0,0-2.52-.63,5.29,5.29,0,0,0-1.53.22l.73-2.66a.69.69,0,0,1,.38-.44.91.91,0,0,1,.63,0l.25.08a.31.31,0,0,0,.38-.18h0l.09-.26a.27.27,0,0,0-.19-.35l-.29-.09a1.71,1.71,0,0,0-2.1,1l0,.11-.86,3.14a1.09,1.09,0,0,0,0,.26v1.21a2.07,2.07,0,0,0,2.17,2h.7a2.1,2.1,0,0,0,2.17-1.82l.06-.67h.67l.06.67a2.1,2.1,0,0,0,2.17,1.82h.7a2.07,2.07,0,0,0,2.17-2V193.4A1.09,1.09,0,0,0,309.59,193.14Zm-9.94,1.47v-.83a4.86,4.86,0,0,1,1.67-.31Zm5.83.09-.08-.91a4.39,4.39,0,0,1,1.64-.32Z"/></g><g id="_10" data-name="10"><rect class="cls-2" x="299.52" y="97.98" width="31.21" height="29.77" rx="7.94"/><path class="cls-3" d="M312.91,115.51c-.66,0-.83.24-1.59.24s-.93-.24-1.59-.24a2.15,2.15,0,0,0-2.22,2.18v.88a1,1,0,0,0,.95.94h5.71a1,1,0,0,0,1-.94v-.88a2.16,2.16,0,0,0-2.22-2.18Zm1.07,2.87h-5.33v-.69a1,1,0,0,1,1.08-1,5.39,5.39,0,0,0,3.18,0,1,1,0,0,1,1.07,1ZM311.32,115a2.26,2.26,0,1,0-2.29-2.25A2.27,2.27,0,0,0,311.32,115Zm0-3.38a1.13,1.13,0,1,1,0,2.26,1.13,1.13,0,1,1,0-2.26Zm10.28-4.14h-9.14a1.15,1.15,0,0,0-1.14,1.17v1.09a3.7,3.7,0,0,1,1.14.22V108.6h9.14v7.52h-1.14V115a.76.76,0,0,0-.76-.75h-3.05a.76.76,0,0,0-.76.75v2.26h5.71a1.15,1.15,0,0,0,1.14-1.16v-7.45A1.15,1.15,0,0,0,321.6,107.47Zm-2.28,8.65H317v-.75h2.29Z"/></g><g id="_11" data-name="11"><rect class="cls-4" x="341.52" y="189.03" width="23.57" height="22.48" rx="6"/><path class="cls-3" d="M357.87,195.09h-9.13a1,1,0,0,0-1.05,1v8.42a1,1,0,0,0,1.05,1h9.13a1,1,0,0,0,1.05-1v-8.42A1,1,0,0,0,357.87,195.09Zm0,9.39h-9.13v-3.72h9.13Zm0-4.69h-9.13v-3.73h9.13Zm-6.67-1.14h.35a.34.34,0,0,0,.35-.32v-.16h2.81v.16a.33.33,0,0,0,.35.32h.35a.34.34,0,0,0,.35-.32v-.49a.68.68,0,0,0-.7-.64h-3.51a.68.68,0,0,0-.71.64v.49A.34.34,0,0,0,351.2,198.65Zm0,4.7h.35a.34.34,0,0,0,.35-.32v-.17h2.81V203a.34.34,0,0,0,.35.32h.35a.34.34,0,0,0,.35-.32v-.49a.68.68,0,0,0-.7-.65h-3.51a.68.68,0,0,0-.71.65V203A.35.35,0,0,0,351.2,203.35Z"/></g><g id="_12" data-name="12"><rect class="cls-4" x="345.24" y="93.93" width="24.9" height="23.75" rx="6.33"/><path class="cls-3" d="M357.94,109.89a.38.38,0,0,1-.51,0l-2.66-2.56H353.1l3.51,3.37a1.57,1.57,0,0,0,2.16,0l3.51-3.37h-1.67Zm2.17-9.41a3.86,3.86,0,0,0-2.42.83,3.86,3.86,0,0,0-2.42-.83,3.81,3.81,0,0,0-3.84,3.71,3.56,3.56,0,0,0,.92,2.38h2.86l.73-1.71,1.39,3a.4.4,0,0,0,.71,0l1.22-2.36.54,1H363a3.56,3.56,0,0,0,.92-2.38,3.81,3.81,0,0,0-3.84-3.71Zm2.05,5.33h-1.88l-.67-1.32a.4.4,0,0,0-.7,0l-1.2,2.33-1.42-3.07a.39.39,0,0,0-.72,0l-.88,2h-1.47a2.56,2.56,0,0,1,2-4.19c.76,0,1.25.15,2.42,1.27,1.25-1.2,1.69-1.27,2.42-1.27A2.56,2.56,0,0,1,362.16,105.81Z"/></g><g id="_13" data-name="13"><rect class="cls-4" x="277.21" y="43.42" width="19.92" height="18.99" rx="5.07"/><path class="cls-3" d="M291.83,54.81l-2.32-2.07,1.06-.94,1.08-1a1,1,0,0,0,0-1.52l-.43-.38a1.27,1.27,0,0,0-.85-.32,1.31,1.31,0,0,0-.86.32l-1.08,1h0l-1.06,1-.68-.61-1.64-1.46a.64.64,0,0,0-.85,0l-1.7,1.51a.49.49,0,0,0,0,.75l1.9,1.69.42.38L282.69,55l-.36,1.81a.38.38,0,0,0,.4.42h.07l2-.32L287,55l2.33,2.07a.65.65,0,0,0,.42.16.69.69,0,0,0,.43-.16l1.69-1.51A.48.48,0,0,0,291.83,54.81Zm-1.68-5.31a.33.33,0,0,1,.22-.08.33.33,0,0,1,.21.08l.43.38a.25.25,0,0,1,0,.38l-1,.87-.85-.76ZM285,52.15l-1.68-1.49,1.26-1.12.74.65-.42.37a.25.25,0,0,0,0,.38l.22.19a.31.31,0,0,0,.42,0l.42-.37,0,0,.69.61-1.26,1.12Zm-.65,4-1,.17.18-.93,5-4.45.85.76-5,4.45Zm5.32.16-2.1-1.88,1.26-1.12.72.65-.41.37a.25.25,0,0,0,0,.38l.21.19a.35.35,0,0,0,.43,0l.42-.37.73.65Z"/></g></g><g id="freepik--Character--inject-2"><g id="freepik--character--inject-2-2" data-name="freepik--character--inject-2"><path class="cls-5" d="M206.78,91.52c-6.5,0-10.94,1.66-15.55,8C187,105.44,175.37,125,175.37,125s-8.51-17-9.36-20.42-.8-4.9,0-6.38a13.1,13.1,0,0,0,2.14-5.8c.33-4.08,1.35-7.57.42-7.69-2.6-.14-2.7,3.11-4.06,5a1.67,1.67,0,0,1-2.31.1,1.61,1.61,0,0,1-.31-.38c-.57-1.13-.27-3-.54-4.34a18.85,18.85,0,0,1,.37-2.23,10.63,10.63,0,0,0,3,.09c1.12,1.71,1.89,2.43,3.45,1.74.21-.32-.67-2.49-1.7-4.15a1.14,1.14,0,0,0-.7-.51,13.53,13.53,0,0,0-5.77-.16,1.08,1.08,0,0,0-.74.4,13.47,13.47,0,0,0-1.7,3.31c-.11.36-.45.35-.54.05a67.39,67.39,0,0,1-.85-12.36c0-2.1-3.14-2.43-3.25.57A95.49,95.49,0,0,0,153.12,84c0,.37-.38.54-.53.15-.55-1.42-1.88-5.71-2.44-13.11a1.72,1.72,0,1,0-3.41.48,68.88,68.88,0,0,0,2,14.71c.1.35-.23.65-.48.25a46.47,46.47,0,0,1-3.69-9.12c-.71-2.41-4-1.79-3.41,1.2,1,5.37,2.67,12.15,5.11,17,2.6,5.18,4.85,7.78,6.14,11.85s6.65,27.14,12.37,36.13c4.49,7,9.62,6.4,15.14,2.68s25.26-30.52,25.26-30.52Z"/><path class="cls-6" d="M175.37,125s2.76,4.57,3.19,8.23a14.09,14.09,0,0,0-2-10.31Z"/><path class="cls-7" d="M208.16,91.52a17.88,17.88,0,0,0-12,2.37c-4.58,2.82-6.18,6.73-8.4,10.16s-9.9,15.56-9.9,15.56,2.82,11.52,14,13.89l16.77-22.18Z"/><path class="cls-8" d="M223.19,294.1c.85-.11,2,2.72,2,3.64s-.93,2.91-2.18,4.77a32.91,32.91,0,0,0-4.13,7.15,24,24,0,0,1-4.53,7.58c-3,3.72-10,9.95-20.59,7.25a10,10,0,0,1-4.84-2.38,3,3,0,0,1-.74-3.17Z"/><path class="cls-9" d="M202.33,290.87V291a6.3,6.3,0,0,0,.07,2.33,16,16,0,0,1-4,12.77,25.13,25.13,0,0,1-5,3.91c-5.38,3.32-6,5.58-5.2,9,1.81,3.94,14,6.33,21,.47a20.11,20.11,0,0,0,6.68-8.85,62.15,62.15,0,0,1,3.54-7.3c1.36-2.49,3.92-5.29,4-7.86,0-1.41-1.39-4-2.77-6.18-1.28-2-2.6-3.87-3.75-3.65l.33,1.12c-1,1-2.35,1.33-3.19,2.49-1,1.4-1,3.31-1.64,4.89a.57.57,0,0,1-.31.37.42.42,0,0,1-.45-.22,1.15,1.15,0,0,1-.1-.52l-.07-2.41a2,2,0,0,0-.36-1.31c-.67-.73-2.3-.65-3.21-.68a34.59,34.59,0,0,0-3.67.22,1.74,1.74,0,0,0-1.19.3A2,2,0,0,0,202.33,290.87Z"/><path class="cls-5" d="M184.3,242.64c2.84,9.09,16.09,40.53,16.88,42.42l2.64,6.24a10.1,10.1,0,0,0,5.37.22c.29,3,.75,7.73.93,10.11.07,2.77.32,6.18-.3,8.91-.51,2.33-1.12,4.76-1.57,7.09-.2,1-.39,2.07-.55,3.11A5,5,0,0,0,208,324a4,4,0,0,0,1.06,1.16,9.57,9.57,0,0,0,6.67,1.91,7.08,7.08,0,0,0,3.54-1.15c2.06-1.43,2.78-3.93,3.83-6.05,1.14-2.3.77-2.56.85-5,.07-1.73.56-6.11,1.27-10.69s3.75-20.67,5.21-36.7a127.44,127.44,0,0,0,0-21.4c11.63-30.78,16.8-49.09,18.32-59.31,1.54-10.38.8-14.1.61-20.06L192.79,168C188.26,196.5,180.5,230.47,184.3,242.64Z"/><path class="cls-2" d="M183.42,219.92c1.16-10.47,9.2-50.71,9.2-50.71h56.95s.36,7.72.26,11.27-1.28,10-3.31,18.25-9.57,31.42-11.06,34.84-4.26,13.33-4.26,13.33c1.4,18.61-2.24,35.32-5,57.52,0,0-.79,3-8.86,2.41-7.84-.58-9.43-3.4-9.43-3.4l-.52-19.16s-4.25,1.28-6.8.7c0,0-16.86-40.57-17.68-43S182.25,230.38,183.42,219.92Z"/><path class="cls-10" d="M183.42,219.92c1.16-10.47,9.2-50.71,9.2-50.71h56.95s.36,7.72.26,11.27-1.28,10-3.31,18.25-9.57,31.42-11.06,34.84-4.26,13.33-4.26,13.33c1.4,18.61-2.24,35.32-5,57.52,0,0-.79,3-8.86,2.41-7.84-.58-9.43-3.4-9.43-3.4l-.52-19.16s-4.25,1.28-6.8.7c0,0-16.86-40.57-17.68-43S182.25,230.38,183.42,219.92Z"/><path class="cls-11" d="M207.58,195.44c-8.07-7.09-9.87-12.73-9.87-12.73a53.49,53.49,0,0,0,14.21,11.09s-7.66,39.42-7.1,47.52,2.61,42.95,2.61,42.95c0,.34-5.43-36.85-5.59-39.81C201.48,236.62,207.58,195.44,207.58,195.44Z"/><path class="cls-8" d="M225.3,324.15c.8.23.69,2.53.34,3.4a10.68,10.68,0,0,1-3.66,3.69,17.58,17.58,0,0,0-5.4,5.66,27,27,0,0,1-8.47,8.07,20.94,20.94,0,0,1-14.89,2c-5.34-1.48-5.84-2.76-5.79-4.72Z"/><path class="cls-7" d="M208.79,312.09c-1.4,6.64-3.84,11.52-9.5,15.61-4.51,3.27-7.78,4.93-11.38,7.84-1.52,1.25-1.65,3.89-.48,6.75,2.43,1.9,5.89,3,10.52,3,5.19,0,7.19-.9,10.16-2.88a27.18,27.18,0,0,0,4.07-3.32c2.49-2.44,4.26-5.45,6-7.38s5.69-3.91,6.8-6.24c.62-1.28.36-4.24,0-6.76-.37-2.32.35-6.38-.79-6.64l-.16,1.66c-.09.37-.33.57-1.13.83a6.2,6.2,0,0,1-2.19.06,1.32,1.32,0,0,0-1.47.41c-.77.87-1,2.12-2,2.85a.57.57,0,0,1-.22.11.25.25,0,0,1-.25,0,.38.38,0,0,1,0-.28l.28-2.49a2.3,2.3,0,0,0,0-.74,1.69,1.69,0,0,0-.85-1.1,9.89,9.89,0,0,0-2.29-.92,13.71,13.71,0,0,0-2.55-.42A8.39,8.39,0,0,0,208.79,312.09Z"/><path class="cls-2" d="M244.43,93.9a32.92,32.92,0,0,1,4.25,9.6,153.13,153.13,0,0,1,3.57,32.28c0,14.66-2,38.41-2,38.41-17.45,8.52-45.61,3.48-58-4.84.51-2.64.93-16.51,1.91-25.65.66-15.7,1.2-23.92,1.31-30.9.23-14,7.35-21.16,12.77-21.27l13.66.21Z"/><path class="cls-6" d="M248.73,169.88c-2.59,2.08-7.66,6.08-8.62,8.1-1.07,2.3-1.7,5.8-2.42,7.11s.36,2,1.86,1.51,2.39-1.71,3.55-4.73a14.5,14.5,0,0,1,4.37-5.39Z"/><path class="cls-5" d="M239.25,197c.62,1.17,2.07,1.18,3.41,1.28a11.12,11.12,0,0,0,4.82-.53,8.84,8.84,0,0,0,4.64-3.15c1.31-1.84,1.65-4.14,2.4-6.26,1.56-4.44,6.23-7.64,7-12.34.32-1.94.32-4.23.85-5.43.34-.72,8-13.58,10.74-19.16,2.62-5.36,4.59-7.88,2.21-14.31s-10.5-29.09-16.24-37c-3.25-4.47-8.42-5.74-14.68-6.27-4.76,12.1.78,24.6.78,24.6l12.64,23.7s-4.9,16.33-8,25.4c-.85,2.49-2.56,4.08-4.51,6.88a56.72,56.72,0,0,0-3.45,4.63c-.85,1.66-.85,2.76-1.28,5.11C240,188,238.92,196.47,239.25,197Z"/><path class="cls-7" d="M243.75,93.84c3.3.12,8,.67,10.85,2.06s4.79,3.11,8,9.47,8,18.69,8,18.69-1.57,9.32-16.69,11.73l-10.21-18.36S239.2,106,243.75,93.84Z"/><path class="cls-9" d="M204.49,64.19a18.89,18.89,0,0,1,1.16,2.45,14.25,14.25,0,0,0,1.91,3.08c2,2.19,4.71,3.8,7.22,5.36a7.8,7.8,0,0,0,5.1,1.58,26.78,26.78,0,0,1,5.84.3l6.7.59L232,84.41s.85-1.82,2-4c1-1.87,5-11.33,5.05-11.38,2-4.68,4.41-10.94,2-15.86a6.47,6.47,0,0,0-2.62-2.93,5.62,5.62,0,0,0,.22-2.34,7.51,7.51,0,0,0-3.55-5.49,17.17,17.17,0,0,0-6.32-2.54,41.21,41.21,0,0,0-9.14-1,55.24,55.24,0,0,0-9,1,33.35,33.35,0,0,1-5,.5,9.18,9.18,0,0,1-2.16-.1,24.66,24.66,0,0,1-2.62-.92.61.61,0,0,0-.46,0,.54.54,0,0,0-.25.39,7.23,7.23,0,0,0,1.39,6,3.82,3.82,0,0,1-1.11-.31,9.78,9.78,0,0,1-1.15-.62,6.65,6.65,0,0,1-1.62-1.51.47.47,0,0,0-.26-.2.55.55,0,0,0-.41.25,5.71,5.71,0,0,0-.85,4.59,10,10,0,0,0,2.21,4.24,5.68,5.68,0,0,0-.3,5.56,7.87,7.87,0,0,0,1.5,2.11c.77.76,1.71,1.39,2.48,2.1A14.18,14.18,0,0,1,204.49,64.19Z"/><path class="cls-5" d="M224.89,52.76a12.3,12.3,0,0,0,.48,3.67,7.24,7.24,0,0,0,1.9,2.74,21.61,21.61,0,0,1,2.64,2.6,10.79,10.79,0,0,1,1.48,4.78,3.28,3.28,0,0,0,1.29,2.57c1.82,1.1,2.91-1,3.88-2.08,1.25-1.12,5-2.48,6.69,1.35,1.78,4-1.51,9.26-4.49,10.07-5.15,1.4-6.27-2-6.27-2l-1,17.92c-2.9,5.37-9.73,7.07-14.21,6.22-3.87-.74-6-3.38-2.36-7.22l.2-5.45a32.55,32.55,0,0,1-6.89.12c-3.73-.68-5.58-3.77-6.59-7.76-1.61-6.42-2.35-13.16-.35-27.6.91-.49,4.59,2.31,10.21,2.68A26.49,26.49,0,0,0,224.89,52.76Z"/><path class="cls-6" d="M215.09,87.89s8.43-1.38,11.41-2.8a9.52,9.52,0,0,0,4.16-3.78,12.57,12.57,0,0,1-2.45,4.53C226,88.44,215,90.06,215,90.06Z"/><path class="cls-8" d="M219.47,59.17l3.93,1.17A2.09,2.09,0,0,0,222,57.78a2,2,0,0,0-2.49,1.33A.14.14,0,0,1,219.47,59.17Z"/><path class="cls-6" d="M218.11,77.29l-5.78,1.91a3,3,0,0,0,3.73,2l.09,0A3.1,3.1,0,0,0,218.11,77.29Z"/><path class="cls-12" d="M217.64,78.67a3.38,3.38,0,0,0-3.29,2.48,2.91,2.91,0,0,0,1.8,0,3.07,3.07,0,0,0,2.06-2.43A2.75,2.75,0,0,0,217.64,78.67Z"/><path class="cls-8" d="M202,59.78l4-.51a1.93,1.93,0,0,0-2.16-1.66h0A2,2,0,0,0,202,59.78Z"/><path class="cls-8" d="M226.5,61.44l13.16,4.37a4.88,4.88,0,0,0-3.8,1.87l-9.31-3.45Z"/><path class="cls-8" d="M203.93,66.45a1.56,1.56,0,0,0,1.47,1.65h0a1.6,1.6,0,0,0,1.63-1.55h0a1.57,1.57,0,0,0-1.48-1.66h0a1.58,1.58,0,0,0-1.62,1.55Z"/><path class="cls-8" d="M219,66.45A1.55,1.55,0,0,0,220.55,68a1.54,1.54,0,0,0,1.56-1.54,1.55,1.55,0,0,0-1.52-1.53A1.61,1.61,0,0,0,219,66.45Z"/><path class="cls-8" d="M196.16,62.37a3.32,3.32,0,0,0,.85,1.8,1.67,1.67,0,0,1,.33.65,31.75,31.75,0,0,0,1.17,4.89,5.53,5.53,0,0,0,5.39,3.46,7.54,7.54,0,0,0,1.84-.14h.14a6.14,6.14,0,0,0,1.49-.58l.09-.06.13-.07.16-.11.14-.11.16-.13.16-.13a4,4,0,0,0,.29-.29,6.84,6.84,0,0,0,1.2-1.85c.78-1.71.58-4.1,1.85-4.38h.33c1.7,0,1.54,2.63,2.55,4.49s2.55,3.67,6.35,3.72h.49a2.54,2.54,0,0,0,.39,0,6.86,6.86,0,0,0,.91-.12l.28-.07.28-.07.17,0a5.67,5.67,0,0,0,1-.48,3.26,3.26,0,0,0,.34-.22,4,4,0,0,0,.58-.51,5.52,5.52,0,0,0,1.15-1.72c.59-1.29.74-3.63,1-4.85a2,2,0,0,1,.29-.7,3.32,3.32,0,0,0,.85-1.74,1.53,1.53,0,0,0-1-1.54l-.93-.11c-3-.36-6.86-.51-9.18.1-2.91.78-3.93,1.66-5.55,1.66s-2.5-1-5.27-1.85c-2.19-.7-5.83-.68-8.6-.43l-.85.09A1.42,1.42,0,0,0,196.16,62.37Zm19.16,1.78a2.5,2.5,0,0,1,.85-.66l.15-.08h.08l.41-.19.38-.15a10.61,10.61,0,0,1,1.25-.38l.49-.12c.43-.08.85-.15,1.28-.19h.3c2.8-.22,4.56.43,5.19,1s.36,3.11.1,4.4V68a2.26,2.26,0,0,1-.12.52,2.54,2.54,0,0,1-.1.32h0c-.06.17-.11.35-.18.53h0l-.09.18a.49.49,0,0,1,0,.11l-.06.12-.08.15-.09.18s-.08.11-.12.17a.94.94,0,0,1-.12.18,4.45,4.45,0,0,1-3.92,1.81,5.54,5.54,0,0,1-4.14-1.54h0a5.68,5.68,0,0,1-1.35-2.59C215,66.64,214.78,64.93,215.32,64.15Zm-16.49-1.34a2.77,2.77,0,0,1,.68-.42h.05l.31-.11.19-.06h.45c.19,0,.4-.08.64-.11h1.48a10.14,10.14,0,0,1,1.3.12c2,.28,4.09,1.18,4.63,2s.43,2.48.17,3.89a6.49,6.49,0,0,1-.26,1v.23l-.05.12-.1.23c0,.07-.07.14-.11.21v.06l-.09.14-.07.12h0A4.47,4.47,0,0,1,203.88,72a5.22,5.22,0,0,1-2.1-.5c-2-1-2.5-3.16-2.73-4.15-.42-1.48-.82-4-.22-4.58Z"/><path class="cls-6" d="M212.33,65.36,212,76l-6.1-1.73,5.69-9A1.65,1.65,0,0,1,212.33,65.36Z"/></g></g><g id="freepik--Ladder--inject-2"><g id="freepik--ladder--inject-2-2" data-name="freepik--ladder--inject-2"><path class="cls-9" d="M309.66,361.37l-21.15,58.1c-.95,1.89,2.22,2.93,3.61,2.12a3.44,3.44,0,0,0,1-1.08l20.79-56.89Z"/><polygon class="cls-8" points="281.04 445.36 248.9 426.73 249.9 422.28 282.04 440.92 281.04 445.36"/><path class="cls-9" d="M258.18,394.07l-19.44,53.55c-1,1.89,2.22,2.93,3.62,2.12a2,2,0,0,0,1-1h0l19-51.95Z"/><polygon class="cls-8" points="331.52 416.07 301.13 398.46 302.65 394.32 332.52 411.63 331.52 416.07"/><path class="cls-7" d="M341.09,446a3,3,0,0,0,0-.42l-16.49-77.2L318,364.56l17.46,81.57a1.41,1.41,0,0,0,.68.8,4.75,4.75,0,0,0,4.31,0,1.23,1.23,0,0,0,.66-.72A2.09,2.09,0,0,0,341.09,446Z"/><path class="cls-2" d="M285.43,436.85l-18.11-10.46a2.37,2.37,0,0,1-1.08-1.87v-.43a2.37,2.37,0,0,1,1.08-1.87l53.4-31a2.41,2.41,0,0,1,2.16,0L341,401.68a2.37,2.37,0,0,1,1.08,1.87V404a2.4,2.4,0,0,1-1.08,1.88l-53.39,31A2.37,2.37,0,0,1,285.43,436.85Z"/><path class="cls-13" d="M266.56,423a2.09,2.09,0,0,0-.32,1.06v.43a2.37,2.37,0,0,0,1.08,1.87l18.11,10.46a2.19,2.19,0,0,0,1.09.26v-2.56Z"/><path class="cls-14" d="M286.52,434.55v2.56a2.13,2.13,0,0,0,1.08-.26l21.72-12.54L341,405.89a2.4,2.4,0,0,0,1.08-1.88v-.39a2.09,2.09,0,0,0-.32-1.06Z"/><path class="cls-2" d="M291.74,463.81l-18.12-10.46a2.38,2.38,0,0,1-1.08-1.87v-.43a2.38,2.38,0,0,1,1.08-1.87l53.4-31a2.41,2.41,0,0,1,2.16,0l18.11,10.46a2.37,2.37,0,0,1,1.08,1.87v.43a2.37,2.37,0,0,1-1.08,1.87l-53.39,31A2.41,2.41,0,0,1,291.74,463.81Z"/><path class="cls-13" d="M272.82,450a2.34,2.34,0,0,0-.32,1.07v.43a2.38,2.38,0,0,0,1.08,1.87l18.16,10.46a2.13,2.13,0,0,0,1.08.26v-2.56Z"/><path class="cls-14" d="M292.74,461.51v2.56a2.13,2.13,0,0,0,1.08-.26l21.73-12.54,31.66-18.43a2.37,2.37,0,0,0,1.08-1.87v-.43a2.21,2.21,0,0,0-.31-1.06Z"/><path class="cls-2" d="M280.08,409.88,250,392.5a2.37,2.37,0,0,1-1.08-1.87v-.43a2.37,2.37,0,0,1,1.08-1.87l53.39-31a2.41,2.41,0,0,1,2.16,0l30.1,17.38a2.36,2.36,0,0,1,1.11,1.91v.43a2.37,2.37,0,0,1-1.08,1.87l-53.39,31A2.42,2.42,0,0,1,280.08,409.88Z"/><path class="cls-14" d="M281.16,407.62v2.56a2.13,2.13,0,0,0,1.08-.26L304,397.38,335.63,379a2.37,2.37,0,0,0,1.08-1.87v-.46a2.21,2.21,0,0,0-.31-1.06Z"/><path class="cls-13" d="M249.21,389.14a2.21,2.21,0,0,0-.31,1.06v.42a2.37,2.37,0,0,0,1.08,1.87l30.1,17.38a2.13,2.13,0,0,0,1.08.26v-2.51Z"/><path class="cls-7" d="M276.2,407.62l14.36,67.21a1.3,1.3,0,0,1,.05.44v.2a1.37,1.37,0,0,1-.66.72,4.38,4.38,0,0,1-2.16.51,4.24,4.24,0,0,1-2.15-.51,1.49,1.49,0,0,1-.61-.56l-.07-.22v-.09l-15.3-71.48"/></g></g><g id="freepik--character-2--inject-2"><g id="freepik--Character--inject-2-3" data-name="freepik--Character--inject-2"><path class="cls-8" d="M294,361.62c-1.52,1.29-3.62,7.47-3.93,8.16a81.76,81.76,0,0,1-4.19,8.76c-.6,1-1.35,1.82-2,2.75a4.11,4.11,0,0,1-2.1,1.61,2.51,2.51,0,0,1-2.27-.3,2.42,2.42,0,0,1-.82-1.66,18,18,0,0,1,.38-3.58,17.44,17.44,0,0,1-4,4.22c-1.11.85-1.61,1.13-2.77,1.88a20.93,20.93,0,0,0-2.7,2,4.39,4.39,0,0,0-1.43,2.31,3.64,3.64,0,0,0,1.53,3.59,8.25,8.25,0,0,0,3.87,1.32c4.89.63,10.83.12,14.41-3.61a11.3,11.3,0,0,0,2.56-4.22,45.9,45.9,0,0,1,2.43-6.41,28.1,28.1,0,0,1,3.79-5.34,7.73,7.73,0,0,0,1.45-2.16,5.42,5.42,0,0,0-.25-3.8,28.2,28.2,0,0,0-2.74-5.18,1.53,1.53,0,0,0-.49-.52C294.53,361.31,294.29,361.39,294,361.62Z"/><path class="cls-15" d="M399.9,289.62a15.07,15.07,0,0,0-2-1.39,18.28,18.28,0,0,1-6-5.23c-1.81-2.78-2.27-6.39-4.57-8.78a7.69,7.69,0,0,0-6-2.21c-2.71.21-3.7,2.13-5.81,3.48-1.71,1.08-6,1.39-9.12,1.51s-6.56,0-9.68.11c-4.64.17-12.77-.48-20.64,2.85-5.73-20.43-12-61.11-26.76-73.08a3,3,0,0,0-2,.2v-.14l-37.48,12.2c-.65,12.74,3.06,63.4,6,81.5,1,6.35,3,32.36,5.26,46.73.43,2.82.85,5.63,1.28,8.44a37.28,37.28,0,0,1,.64,9.19c-.09,1-.2,2-.36,3a20.9,20.9,0,0,1-1.71,5.09,32,32,0,0,1-3.75,6.36c-.75,1-4.34,3.88-1.93,4.73a9.1,9.1,0,0,0,8.12-1.53,20.9,20.9,0,0,0,5.47-6.54c1.52-2.56,3.05-5.14,4.34-7.82a12.64,12.64,0,0,0,1.34-4.11c.18-1.69-.36-1.61-.21-4.34s1.22-17.6,1.22-17.6c.92-11,1.88-22.73,2-27,.24-6.92-2-20.68-2-20.68l2.05-40.44c7.63,14.67,19,34.15,22.69,39.79,5.19,7.83,9.55,7.14,19.52,4,8.43-2.65,26-8,35.12-9.13,3.26.27,6.31,2.47,9,4.28a51.45,51.45,0,0,1,7.81,6.55,12,12,0,0,1,2.2,2.81c.36.69,1.08,1.34,1.51,2a3.64,3.64,0,0,0,5,1.14,3.68,3.68,0,0,0,.69-.56c2.09-1.9,2.39-4.85,2.36-7.41A11,11,0,0,0,399.9,289.62Z"/><path d="M387.28,274.17c2.3,2.39,2.76,6,4.57,8.78a18.28,18.28,0,0,0,6,5.23,15.07,15.07,0,0,1,2,1.39,12.19,12.19,0,0,1,3.82,8.37c0,2.55-.46,5.57-2.55,7.48a4,4,0,0,1-5.66-.06,4.33,4.33,0,0,1-.43-.53c-.43-.65-.95-1.75-1.31-2.44a12,12,0,0,0-2.2-2.81,3.26,3.26,0,0,0,2.79-3.46c-.25-2.3-5.73-8.66-8.5-12.2s-8.06-9-10.42-8.48c2.11-1.35,3.1-3.27,5.81-3.48A7.68,7.68,0,0,1,387.28,274.17Z"/><path class="cls-7" d="M315.45,212.62c-1.22-1.54-9.21-9.49-9.21-9.49-8.09,7.33-31,8.12-38.49,3.58.28,12.39,1.16,26.7,1.81,39.93.6,12.1,1.49,21.43,1.49,21.43.72,10.45,2,22.14,4.15,41.6,1.87,16.94,6.14,40.16,6.14,40.16s5.38,2.21,13.71-.08c0,0,2.05-18.26,2.73-26.24.75-8.71,1.59-13.89-1.45-28.67l1.29-39.69s12.75,25.44,16.57,31.41,8.21,12.44,11.08,14,4.92.75,17.37-2.87,23.19-7.22,23.19-7.22.82-8.34-1.7-14.07c0,0-8.56,0-13.32.16s-11.34.83-14.46,2.67c0,0-4.81-21.86-7.86-33S322,221,315.45,212.62Z"/><g id="freepik--character--inject-2-4" data-name="freepik--character--inject-2"><path class="cls-15" d="M195.09,157.25s20.78,12,24.71,14.08c4.19,2.17,7,3,9.35,3.16,0,0,22.68,1.13,27.45,1.23,6,.13,8.62.36,11.73-1,1.72-.79,1.71-.83,6.17-4.06a17.87,17.87,0,0,0-1.48-4.72c-.59-1.14-5-6.8-6.23-7-5.3-1-18.86.16-22.76.36-4.49.24-10.57.36-15.07.39,0,0-25.74-10.33-27.19-12.11s-2-5.37-3.61-7.82c-1.06-1.65-2.58-2.93-3.39-4.75-.2-.45-.58-1-1-.83a.84.84,0,0,0-.31.28,3.84,3.84,0,0,0-.27,3.47c.31,1,.85,2.65-.2,4.08-1.22-.85-2.08-3.36-2.49-5.52a9.11,9.11,0,0,0-1.29-3.68c-1.25-1.61-8.61-1.42-9.68.23s-1.16,4.62-.08,8C182.74,151.4,195.09,157.25,195.09,157.25Z"/><g id="freepik--Light--inject-2"><path class="cls-9" d="M192.45,143.71a3.2,3.2,0,1,1-4.06-2h0A3.2,3.2,0,0,1,192.45,143.71Z"/><path class="cls-7" d="M185.83,146.13c-2.4-.49-3-2.38-1.4-4.21a8.52,8.52,0,0,1,7.3-2.42c2.4.49,3,2.38,1.39,4.21A8.44,8.44,0,0,1,185.83,146.13Z"/><path class="cls-9" d="M185.35,145.07c-2.47-.51-3.12-2.45-1.44-4.34a8.78,8.78,0,0,1,7.52-2.5c2.47.51,3.12,2.46,1.44,4.34A8.75,8.75,0,0,1,185.35,145.07Z"/><path class="cls-7" d="M184.86,144c-2.55-.53-3.21-2.53-1.48-4.48a9,9,0,0,1,7.75-2.57c2.55.53,3.21,2.53,1.48,4.47A9,9,0,0,1,184.86,144Z"/><path class="cls-9" d="M184.35,142.85c-2.62-.54-3.31-2.6-1.53-4.61a9.31,9.31,0,0,1,8-2.65c2.63.54,3.32,2.6,1.53,4.61A9.28,9.28,0,0,1,184.35,142.85Z"/><path class="cls-7" d="M183.87,141.62c-2.69-.55-3.39-2.65-1.57-4.7a9.49,9.49,0,0,1,8.15-2.71c2.69.55,3.39,2.66,1.57,4.71A9.49,9.49,0,0,1,183.87,141.62Z"/><path class="cls-2" d="M176.17,104.87a15.27,15.27,0,0,0-9.67,19.31h0c3.82,11.5,13.94,10.26,15.48,14.89a2.62,2.62,0,0,0,2.15,1.56,8.28,8.28,0,0,0,7.07-2.35,2.63,2.63,0,0,0,.78-2.53h0c-1.54-4.63,7.32-9.7,3.5-21.2A15.28,15.28,0,0,0,176.17,104.87Z"/><g class="cls-16"><path class="cls-3" d="M176.17,104.87a15.27,15.27,0,0,0-9.67,19.31h0c3.82,11.5,13.94,10.26,15.48,14.89a2.62,2.62,0,0,0,2.15,1.56,8.28,8.28,0,0,0,7.07-2.35,2.63,2.63,0,0,0,.78-2.53h0c-1.54-4.63,7.32-9.7,3.5-21.2A15.28,15.28,0,0,0,176.17,104.87Z"/></g><path class="cls-2" d="M184.79,139.71c-1.75-.36-2.2-1.74-1-3.07a6.19,6.19,0,0,1,5.32-1.77c1.75.36,2.21,1.74,1,3.07A6.19,6.19,0,0,1,184.79,139.71Z"/><path class="cls-3" d="M188.74,136.29a.53.53,0,0,1-.66-.32,37.88,37.88,0,0,1-1.73-8.62,17.94,17.94,0,0,1,0-2.54,6.58,6.58,0,0,1-1.46-.2,8.78,8.78,0,0,1-2.46-1,9.17,9.17,0,0,1-1.39,2.25,7.63,7.63,0,0,1-1,1,20.08,20.08,0,0,1,1.49,2.07,37,37,0,0,1,3.76,7.94.52.52,0,1,1-1,.3h0a36.37,36.37,0,0,0-3.65-7.69,17.1,17.1,0,0,0-1.5-2,3.19,3.19,0,0,1-3,.1,1.65,1.65,0,0,1-.89-2,1.38,1.38,0,0,1,1.15-1c.83-.11,1.85.44,2.93,1.52a6.24,6.24,0,0,0,1-.92,8.11,8.11,0,0,0,1.31-2.19,3.81,3.81,0,0,1-1.64-2.52,1.39,1.39,0,0,1,1-1.42,1.36,1.36,0,0,1,1.65.54,3.86,3.86,0,0,1,.2,3,7.81,7.81,0,0,0,2.36,1,5.88,5.88,0,0,0,1.32.16,4.1,4.1,0,0,1,1.43-3,1.38,1.38,0,0,1,1.52.12,1.66,1.66,0,0,1,.47,2.1,3.24,3.24,0,0,1-2.48,1.71,17.94,17.94,0,0,0,0,2.54,36.6,36.6,0,0,0,1.68,8.35.52.52,0,0,1-.31.67h0ZM176.4,125.67a.39.39,0,0,0-.22.28c-.13.41.27.66.4.73a2,2,0,0,0,1.74,0c-.84-.79-1.5-1.08-1.85-1Zm11.11-2a2.07,2.07,0,0,0,1.39-1c.06-.13.23-.58-.12-.83-.2-.14-.32-.11-.41-.06a3,3,0,0,0-.86,1.84Zm-6.28-3.56a.35.35,0,0,0-.29.39,2.54,2.54,0,0,0,.91,1.49,2.52,2.52,0,0,0-.11-1.77.35.35,0,0,0-.47-.16l0,0Z"/></g><path class="cls-17" d="M184.79,98.19A1,1,0,0,1,184,97v0l1-5.18a1,1,0,0,1,1.16-.81h0a1,1,0,0,1,.8,1.17h0l-1,5.19a1,1,0,0,1-1.16.8h0Z"/><path class="cls-17" d="M173.18,99.08a1,1,0,0,1-.76-.66l-1.75-5a1,1,0,0,1,1.91-.68l1.75,5a1,1,0,0,1-.6,1.28h0A1.06,1.06,0,0,1,173.18,99.08Z"/><path class="cls-17" d="M163.57,105.62a1,1,0,0,1-.47-.23l-4-3.43a1,1,0,0,1,1.32-1.53h0l4,3.43a1,1,0,0,1-.85,1.76Z"/><path class="cls-17" d="M153.35,115.17a1,1,0,0,1,.38-2l5.18,1h0a1,1,0,1,1-.38,2h0Z"/><path class="cls-17" d="M154.44,129.51a1,1,0,0,1-.76-.66,1,1,0,0,1,.6-1.28h0l5-1.75a1,1,0,0,1,.67,1.91l-5,1.75A1.06,1.06,0,0,1,154.44,129.51Z"/><path class="cls-17" d="M202.74,124.45a1,1,0,0,1,.37-2l5.19,1h0a1,1,0,0,1-.38,2Z"/><path class="cls-17" d="M201.86,112.84a1,1,0,0,1-.16-1.93h0l5-1.75a1,1,0,0,1,.67,1.91l-5,1.74A.87.87,0,0,1,201.86,112.84Z"/><path class="cls-17" d="M195.29,103.23a1.07,1.07,0,0,1-.47-.22,1,1,0,0,1-.08-1.39l3.44-4a1,1,0,0,1,1.53,1.32h0l-3.43,4A1,1,0,0,1,195.29,103.23Z"/><path class="cls-8" d="M272.74,150.49c1.55,1.37,2.69,4.2,4,5.81a47,47,0,0,0,31.84,17,23.91,23.91,0,0,0,9.33-.78,12.12,12.12,0,0,0,7.14-5.76,8.19,8.19,0,0,0-.81-8.85c3.81-1.93,7.42-5.25,7.67-9.51.19-3.36-1.84-6.56-4.57-8.53a23.62,23.62,0,0,0-9.36-3.58,72.22,72.22,0,0,1-9.85-2.2c-5.09-1.79-8.91-4.28-11.13-9.21-3.08-6.83-3.06-13-11-12.77-1.53-4.21-4.11-5.85-7.62-7.11s-7.27-.81-10.78,0c-5.66,1.29-10.6,5.17-16.37,5.77-1.55.16-3.13.08-4.67.39a5.26,5.26,0,0,0-3.82,2.46,6,6,0,0,0,.69,5.54,15.41,15.41,0,0,0,4.14,3.53c-1.62,1-2.53,6.49,2.22,8.71a14.53,14.53,0,0,0,7.39,1.77c-.16,0,1.18,11.22,1.46,12.22.72,2.63,5.91,3.34,8.16,3.87,1.67.4,4.36,0,5.7,1Z"/><path class="cls-8" d="M285.9,112.94l5.22-2.51a3.06,3.06,0,0,0-4-1.38,2.82,2.82,0,0,0-1.28,3.78Z"/><path class="cls-2" d="M257.36,176.29a100.27,100.27,0,0,1,9.43-17.41l19.56-2.8c2.07-.27,5.13-.56,6.26-.58a9.8,9.8,0,0,1,3,.42c3.74,1.21,4.7,4.53,5.54,8.52.93,4.38,3.33,8.45,3.43,15.94l-1,8.85-.08,1.48v.77a13.29,13.29,0,0,0,3.39,10c5.91,7,6.88,8,9.22,11.26-4.71,8.85-36.07,20.78-48.19,10.69,0,0-.71-16.13-1-20.25-1.09-5.55-2.29-9.32-2.58-10.65C257.29,190.62,255.07,181.77,257.36,176.29Z"/><path class="cls-13" d="M270.84,190.38s6.23,3.8,12.5.73a11.27,11.27,0,0,0,6.56-8.91s1.56,7.41-6.39,10.91A10.88,10.88,0,0,1,270.84,190.38Z"/><path class="cls-15" d="M253.06,137.09c1.88,11.75,4.93,14.71,8,15.29,2.07.39,5.66-.19,9.2-1.12l.66,7.11s-2.65,3.46-2.52,5.32c.21,3.29,6.2,2.84,11.15.08a17.85,17.85,0,0,0,5.55-5.39,4.51,4.51,0,0,0,.57-2.3l-1.44-15.62s2.23,2.13,5-1.13,3-7.23.25-9.28c-1.89-1.41-4.54-1.34-6.14,1.62-.85,2.13-.81,4.2-2,3.46-3-1.74-1.76-6-3.84-8.12-2.29-2.37-5.92-3.4-9.07-4-4.75-.83-9.6-.24-13-4.24C254.37,118.92,251,124.14,253.06,137.09Z"/><path class="cls-8" d="M266.14,133.48a1.6,1.6,0,1,0,1.53-1.73,1.62,1.62,0,0,0-1.53,1.7Z"/><path class="cls-8" d="M254.91,134a1.53,1.53,0,0,0,1.56,1.5h0a1.43,1.43,0,0,0,1.45-1.43,1.34,1.34,0,0,0,0-.2,1.52,1.52,0,0,0-1.54-1.5h0A1.55,1.55,0,0,0,254.91,134Z"/><polygon class="cls-12" points="262.14 132.26 262.8 142.24 257.42 141.1 262.14 132.26"/><path class="cls-12" d="M270.3,151.26c3.75-.85,11.35-3.82,12.29-7a8.1,8.1,0,0,1-2.38,4.2c-2.15,2.22-9.69,5.2-9.69,5.2Z"/><path class="cls-8" d="M267.26,128.28l3.87,1.28a2.14,2.14,0,0,0-1.34-2.64,2,2,0,0,0-2.51,1.3Z"/><path class="cls-8" d="M253.91,130.74l3.53-2a2.14,2.14,0,0,0-2.86-.77,2,2,0,0,0-.69,2.74Z"/><path class="cls-12" d="M270.41,142.16l-4.83,2.2A2.59,2.59,0,0,0,269,145.8l.09,0a2.66,2.66,0,0,0,1.41-3.5A.42.42,0,0,0,270.41,142.16Z"/><path class="cls-15" d="M350.74,211.35s-9.15-21.24-11-25.24c-2.27-4.77-3.89-6.37-5.79-7.81,0,0-18.29-15.16-22.26-17.81-5-3.33-7.64-4.87-11-5.35-1.88-.26-2.76,0-8.26.38-3.87,9.77,1.93,25.07,12.18,24.86l.25-4.12,22.38,14.9s13.74,21.82,14,24.09-.39,5.53-.37,8.45c0,2,.61,3.86.32,5.83-.08.49-.06,1.17.42,1.25a.65.65,0,0,0,.41-.07,3.75,3.75,0,0,0,2.09-2.77c.3-1,.17-1.76.46-2.8a22.56,22.56,0,0,1,1,5.46c.14,1.19.39,2.56.49,3.62.2,2,3.16,1.9,4.85.9a7,7,0,0,0,3.3-4.35C356.6,223.78,350.74,211.35,350.74,211.35Z"/><path class="cls-12" d="M304.8,176.26c-3.41-1.54-8.5-5.67-8.5-5.67s4.11,7,8.37,7.8Z"/></g><path class="cls-9" d="M297.62,255.13,292,241.84s-9-.8-14.44-4.47c0,0,3.74,5.16,12,6.87l6.53,11.38.56,28.33Z"/></g></g><g id="freepik--character-1--inject-2"><g id="freepik--character--inject-2-5" data-name="freepik--character--inject-2"><path class="cls-18" d="M166.74,207.7c5-.53,11.46.66,15.5,7.54,1.32,2.24,7.27,16.45,12.26,28.83,5-10.22,9.18-18.89,9.75-20.49,1.52-4.26,1.26-7,2.8-11.41a35.19,35.19,0,0,0,1.88-7.48c.3-1.74,1.91-.65,2.51.05a7.93,7.93,0,0,1,1.86,4.17c.17,1.37.14,3.06,1.35,3.71,1,.54,2.23,0,3.2-.62a64.73,64.73,0,0,0,10.25-7.72,6.34,6.34,0,0,1,1.73-1.27,1.78,1.78,0,0,1,2.59,2.07,5.94,5.94,0,0,1-.84,1.93,3.71,3.71,0,0,1,2,3c.12.87,0,1.71.08,2.57a7.22,7.22,0,0,1,0,3,7.88,7.88,0,0,1-2.2,3.36,38.4,38.4,0,0,1-6.57,5.43q-2.34,1.55-4.65,3.15a16.22,16.22,0,0,0-4.06,3.27c-1.87,2.56-2.9,5.62-4.08,8.53-1.84,4.5-4.52,17-10.21,26.23-3.27,5.34-8.31,7.56-12.84,1.9a62.39,62.39,0,0,1-6.58-10.34c-6.48-13-11-23.83-11-23.83S164.24,219.43,166.74,207.7Z"/><path class="cls-9" d="M165.67,207.49c3.72-.26,7.56-.27,10.85,1.27,4.13,1.92,6.17,6.68,8.1,11s8,18.58,8,18.58l-16.2,10.34-8.34-17A61.67,61.67,0,0,1,165.67,207.49Z"/><path class="cls-8" d="M194.49,244.07a3.35,3.35,0,0,0-1,0c-1.16.17-2.54.42-7.51,5.85-4.76,5.18-3.36,7.47-3.36,7.47l.52,1s-.94,1-2.11-.62a78.27,78.27,0,0,1-5.22-8.35c-.4-1.13.53-7.86,5.9-12.27,5-4.13,9.35-3.14,10.24-2.44s3.29,7.8,3.29,7.8Z"/><g id="freepik--Botom--inject-2"><path class="cls-18" d="M124.74,440.42c3.35,1.8,7.06,1.65,11,0l2-21.74-13,1.72Z"/><path class="cls-18" d="M164.83,427.42c2.83,6.13,7.94,4.43,13.71.51l-1-21.85H163.63Z"/><path class="cls-8" d="M149.2,461c.37.35.26,2.72-.15,3.36s-2.94,2.82-7.47,3.15c-4.33.31-8.2-.28-10.74-1.89s-3.78-3.4-4-5.86,0-4.85-1.14-6.75-2.81-3.73-3.19-4.68a9.63,9.63,0,0,1,0-5Z"/><path class="cls-7" d="M137.32,439.46a11.65,11.65,0,0,0,.53,2.74,25.05,25.05,0,0,0,2.65,5.43,22.55,22.55,0,0,0,1.8,2.55c1.31,1.55,2.94,2.83,4.33,4.33a8.89,8.89,0,0,1,2.67,5.31c.19,3.4-3.5,4.55-6.34,5.06a20.82,20.82,0,0,1-9.22-.46,8.47,8.47,0,0,1-6.21-6.77c-.16-.94-.1-1.91-.21-2.86a13.47,13.47,0,0,0-2.64-5.94,17.58,17.58,0,0,1-2-3.23c-.89-2.11-.18-4.47.39-6.57.49-1.8,1-3.85,1.68-3.68a2.26,2.26,0,0,0,.15,1.09,4.55,4.55,0,0,1,.5,1.07,7.86,7.86,0,0,0,.52,1.4,3.61,3.61,0,0,0,1.5,1.66c0-1.28.09-2.57.13-3.85a1.35,1.35,0,0,1,1.08-1.58,1.51,1.51,0,0,1,.3,0,24,24,0,0,1,7.27-.6,1.32,1.32,0,0,1,1,.43,1.42,1.42,0,0,1,.16.86A33.82,33.82,0,0,0,137.32,439.46Z"/><path class="cls-19" d="M141,448.34c-1.27-1-4.1-1-5.65-.79a9.31,9.31,0,0,0-4.41,1.54,1,1,0,0,1-1.29-.1h0a1,1,0,0,1,.06-1.41l0,0a9.54,9.54,0,0,1,5-1.84c3.81-.27,4.93.38,4.93.38S141.33,447.21,141,448.34Z"/><path class="cls-19" d="M143.87,451.82c-1.6-.94-4.71-.8-6.26-.64a8.85,8.85,0,0,0-4.28,1.63,1,1,0,0,1-1.3-.1h0a1,1,0,0,1,.06-1.41l0,0a9.9,9.9,0,0,1,5.07-2c3.81-.27,4.8.51,4.8.51A3.2,3.2,0,0,1,143.87,451.82Z"/><path class="cls-19" d="M133.14,442.06a9.52,9.52,0,0,1,4.79.4c.68.38,1.12,1.44.69,1.71a8.82,8.82,0,0,0-4.25-.58,12.62,12.62,0,0,0-4.13,1.13c-.32.14-.71.35-1.05.53a.89.89,0,0,1-1.22-.33l0-.06h0a.84.84,0,0,1,.33-1.09A12.24,12.24,0,0,1,133.14,442.06Z"/><path class="cls-8" d="M201.29,441.4a4,4,0,0,1-.17,3c-.42.89-5,3.49-11.27,3.07A26,26,0,0,1,177,443c-2.37-1.58-4.85-1.87-7.93-2.05s-7.14-1.71-7.82-3.16.1-3.92.1-3.92Z"/><path class="cls-7" d="M176.25,422.23l1.62-.59a1.27,1.27,0,0,1,.92-.1c.4.15.55.62.66,1a14.93,14.93,0,0,0,.68,2.71,6.49,6.49,0,0,0,1.75,1.83,29.19,29.19,0,0,0,5,3.22c2,1.09,4,1.94,6.14,2.89s5,1.55,6.66,2.68c2.45,1.65,2.76,5.79,0,7.42-2.4,1.42-8.73,2.94-15.36,1.07-3.61-1-7.63-4.89-12.37-5.26-3-.24-8.72-1.08-10.66-3.37-.72-1,.24-4.24,1-7,.86-3,1.18-7.78,2.19-7.51.07,1,.94,1.59,1.47,2.44a17.37,17.37,0,0,1,1.08,2.41,4.49,4.49,0,0,0,1.58,2.07,2,2,0,0,0,2.44-.14c.89-.91.36-2.52,1-3.62a3.86,3.86,0,0,1,2.13-1.4Z"/><path class="cls-19" d="M184.05,428.69a2.81,2.81,0,0,0-2.23-1.49c-1.37-.26-3.8.75-5.3,2a1.12,1.12,0,0,0-.18,1.57,1.05,1.05,0,0,0,.34.29h0a1.12,1.12,0,0,0,1.28-.14A8.6,8.6,0,0,1,184.05,428.69Z"/><path class="cls-19" d="M188.3,431.07a3.22,3.22,0,0,0-2.64-1.36,10,10,0,0,0-5.8,2.17,1.11,1.11,0,0,0-.15,1.55,1.42,1.42,0,0,0,.3.25h0a1.07,1.07,0,0,0,1.24-.15A8.63,8.63,0,0,1,188.3,431.07Z"/><path class="cls-19" d="M193,433.22a3.59,3.59,0,0,0-2.74-1.23,9.61,9.61,0,0,0-5.56,2.19,1.11,1.11,0,0,0-.15,1.55,1.42,1.42,0,0,0,.3.25h0a1.07,1.07,0,0,0,1.24-.15A8.23,8.23,0,0,1,193,433.22Z"/><path class="cls-9" d="M125.11,281.79c-.79,23.79-1.64,76.24-1.64,76.24-.25,3-1.13,10.08-1.35,20.74-.32,15.46,1.91,49.5,1.91,49.5s6.45,3.46,13.21.65c0,0,7.34-48.85,9.69-64.1,2.07-13.39,6.14-38.61,6.14-38.61l3.21,32.41a107,107,0,0,0,1.11,19.59c1.09,7,6.24,37.45,6.24,37.45a28.06,28.06,0,0,0,14.91-.32s-.13-49.92,0-56.42c.14-7.4-.58-83.45-.58-83.45Z"/><path class="cls-8" d="M153.07,326.21l3.52-19.49s9.75-.86,15.14-6.29c0,0-1,5.33-13.22,8.53L155,328.68l.14,18.23Z"/></g><path class="cls-2" d="M129.12,210.05c-4.67.83-5,3.14-6,7.77-.51,2.3-1.64,7.24-1.19,11.38l3.47,27.42-1.19,31.53c7.51,8.17,37.56,10.79,54-1.19,0,0-.18-51.79-.94-60.11-1.32-14.52-7.9-19.68-17.57-19.65l-16.56,1.42Z"/><path class="cls-8" d="M144.74,173.69a14.67,14.67,0,1,0,13.87-15.43,14.67,14.67,0,0,0-13.87,15.43Z"/><path class="cls-8" d="M140.27,176.78l-3.53-8.24a5.48,5.48,0,0,0-4.46,1.84c-1.85,2.1-.43,8.3,2.33,14.3,0,0,3,11,4,12.81a5.09,5.09,0,0,0,3,2.2Z"/><path class="cls-18" d="M140.44,184.89c-.87.58-2.24-1.08-3.41-2.17s-4.86-2.49-6.46,1.4,2.06,8.89,5,9.63c5,1.28,5.55-1.9,5.55-1.9l1.32,17.65s3.62,7.68,12.37,8.39,6.58-6.35,3.54-9.71l-.3-5.37a31.84,31.84,0,0,0,6.62,0c3.57-.75,5.69-3.72,6.57-7.67,1.43-6.36,1.82-11.45-.32-23.69-2.35-13.42-18.06-12.72-26.26-6.93S140.44,184.89,140.44,184.89Z"/><path class="cls-8" d="M140.52,186.39c-.46,0-2.32-2.72-3.49-3.67-1.62-1.33-.31-14.18-.31-14.18a6,6,0,0,1,1.15-6.53c2-2.44,5.53-2.89,11.52-4.16,3-.63,6.47-1,9.4-1.74a30.14,30.14,0,0,0,8.65-3.24,2.72,2.72,0,0,1,1.65-.52,1.56,1.56,0,0,1,1.1.83,2.89,2.89,0,0,1,.32,1.38,5.38,5.38,0,0,1-.18,1.49c-.08.29-.62,1.17-.48,1.42.33.59,2.61-.56,3.06-.72a.53.53,0,0,1,.35,0,.36.36,0,0,1,.19.21,5.64,5.64,0,0,1,0,4.91A13,13,0,0,1,169.2,167a15.69,15.69,0,0,1-6.45,2.53,60.91,60.91,0,0,1-12.65.77c-1.06,0-2.11-.11-3.16-.21a4.67,4.67,0,0,0-2.23,0c-.8.39-1,1.55-1.19,2.32-.26,1.16-.41,2.33-.58,3.5C142.33,179.69,142,186.28,140.52,186.39Z"/><path class="cls-8" d="M136.79,169.53l-5.58-2.62a3,3,0,0,1,3.92-1.61l.08,0A3.25,3.25,0,0,1,136.79,169.53Z"/><path class="cls-20" d="M158,202.81s-8.13-1.2-11-2.54a9.25,9.25,0,0,1-4.09-3.64,12.56,12.56,0,0,0,2.45,4.42c2.19,2.52,12.77,3.9,12.77,3.9Z"/><path class="cls-8" d="M155.74,182.1a1.62,1.62,0,1,1-1.7-1.6,1.63,1.63,0,0,1,1.7,1.6Z"/><path class="cls-8" d="M152.74,176.19l-2.62,3.36a2.23,2.23,0,0,1-.37-3.07,2.08,2.08,0,0,1,2.92-.35Z"/><path class="cls-20" d="M157.55,194.27a2.13,2.13,0,1,1-2.25-2h0a2.12,2.12,0,0,1,2.24,2Z"/><path class="cls-8" d="M169,176.25l-3.5-1.89a1.93,1.93,0,0,1,2.57-.89l.07,0A2.08,2.08,0,0,1,169,176.25Z"/><path class="cls-8" d="M168.34,180.17a1.63,1.63,0,0,1-1.5,1.75h0a1.68,1.68,0,1,1,1.51-1.83A.22.22,0,0,1,168.34,180.17Z"/><polygon class="cls-20" points="160.15 180.09 162.04 190.31 167.18 187.78 160.15 180.09"/><path class="cls-7" d="M179.33,238.48c-.46-10.81-1.3-20.36-5.32-25.43s-6.19-6-15.73-5.89v.61a3.64,3.64,0,0,1,2.72,1.61,56.28,56.28,0,0,1,7.34,16.31c2.77,10.5,3.24,34,3.39,46.59s0,22.8,0,22.8,6.38-1.49,8.36-4.69C180.09,290.39,179.74,249.29,179.33,238.48Zm-31.59-17.79c-1.36-5.76-4.17-9.55-5.43-12.49l-15,2a11.48,11.48,0,0,0-6.63,11.42L123.81,257l-.87,33.53c6.81,10.59,27.14,8.63,27.14,8.63s.58-15.08-.08-44.22C149.64,238.62,149.45,228,147.74,220.69Z"/><path class="cls-9" d="M148.29,223.53c-.79-3.7-1.22-10.58-1.86-12s-4.2-4.14-4.34-6l-.3-4.14s-1.81-.28-2.36,1.11-4.79,6.65-4.79,6.65.2,5.61,1.58,8.74,3.5,4.48,4.28,4.25c.59-.17,2.07-4.43,2.79-6.07.89-2,1.1-2.92,2.06-.89C146.11,216.85,148.29,223.53,148.29,223.53Z"/><path class="cls-9" d="M167,221.42c1,3.11-1.39-12.76-3-15.2s-6-3.41-6-3.41l.28,5a4.48,4.48,0,0,1,2.69,1.87A52.35,52.35,0,0,1,167,221.42Z"/><path class="cls-9" d="M132.06,234.38l14.22-1.2s.43,9,.43,11.38c0,1.49-2.37,3.94-4.13,5.56a3.71,3.71,0,0,1-4.18.59c-2.11-1.07-4.94-2.8-5.21-4.54C132.74,243.38,132.06,234.38,132.06,234.38Z"/><path class="cls-9" d="M173.2,232.09h6.13s.75,7.33.75,11.28c0,2.85-.26,4.65-.78,4.64-1.08,0-4.71-2.47-5.07-5.29C173.94,240.39,173.2,232.09,173.2,232.09Z"/><path class="cls-17" d="M148.74,226.48a255.4,255.4,0,0,0-27.22,4.26l.09,1a255.8,255.8,0,0,1,27.24-4.27A5.56,5.56,0,0,1,148.74,226.48Z"/><path class="cls-17" d="M178.48,226.84c-3-.35-6.35-.66-10.06-.84l.24,1c3.66.19,7,.5,9.94.84Z"/><path class="cls-18" d="M127.74,210.1c-5,0-10.89-.22-14.2,7-1.07,2.37-5.52,17.12-9.2,30-6-9.65-11.09-17.83-11.82-19.36-2-4.09-2-6.85-4-11.06a36.17,36.17,0,0,1-2.64-7.25c-.47-1.69-2-.44-2.49.31A8,8,0,0,0,82,214c0,1.38.19,3.07-1,3.84s-2.22.19-3.25-.29a65.22,65.22,0,0,1-11-6.61,6.63,6.63,0,0,0-1.85-1.09,1.8,1.8,0,0,0-2.39,2.36,5.94,5.94,0,0,0,1,1.83,3.68,3.68,0,0,0-1.66,3.13c0,.88.23,1.7.19,2.57a7.32,7.32,0,0,0,.3,2.94,7.7,7.7,0,0,0,2.54,3.11A38.7,38.7,0,0,0,72,230.54q2.49,1.29,5,2.64A16.61,16.61,0,0,1,81.32,236c2.13,2.36,3.47,5.29,5,8.07,2.29,4.29,6.26,16.4,12.88,25,3.81,5,9.66,7,13.58.93a65.19,65.19,0,0,0,5.76-11.17c5.09-13.56,8.78-24.73,8.78-24.73S131.42,221.5,127.74,210.1Z"/><path class="cls-9" d="M128.74,210c-3.42-.2-7.83-.16-10.93,1.74-3.87,2.38-5,5.6-6.45,10.11s-5.86,19.38-5.86,19.38l17.24,8.42,6.34-17.88S131.63,222.83,128.74,210Z"/><path class="cls-8" d="M104.33,247.09a3.74,3.74,0,0,1,1-.1c1.17,0,2.63.06,8.13,4.95S118.1,260,118.1,260l-.4,1s1.25.57,2.24-1.12a100.43,100.43,0,0,0,4.6-10.34c.27-1.16-2.41-8-8.31-10.81s-9.64-2-10.45-1.25-2.39,8.06-2.39,8.06Z"/><path class="cls-17" d="M182.74,182.26a.91.91,0,0,1-.35-1.76l6.7-2.85a.92.92,0,0,1,.72,1.69l-6.71,2.85A.89.89,0,0,1,182.74,182.26Z"/><path class="cls-17" d="M191.48,191h-.13l-9.17-1.26a.91.91,0,0,1,.25-1.81l9.17,1.25a.91.91,0,0,1-.12,1.82Z"/><path class="cls-17" d="M186.74,200.94a.93.93,0,0,1-.51-.16l-6-4a.92.92,0,0,1-.25-1.27.9.9,0,0,1,1.26-.24h0l6,4a.92.92,0,0,1,.24,1.28h0A.9.9,0,0,1,186.74,200.94Z"/></g></g><g id="freepik--light-bulb--inject-2"><g id="freepik--Idea--inject-2"><g id="freepik--light--inject-2-2" data-name="freepik--light--inject-2"><path class="cls-9" d="M310.74,121.8A2.94,2.94,0,1,1,309,118a2.93,2.93,0,0,1,1.72,3.79Z"/><path class="cls-7" d="M304.58,119.7c-1.43-1.74-.79-3.45,1.44-3.82a7.8,7.8,0,0,1,6.61,2.5c1.42,1.74.78,3.45-1.44,3.81A7.8,7.8,0,0,1,304.58,119.7Z"/><path class="cls-9" d="M304.85,118.67c-1.47-1.8-.81-3.56,1.48-3.94a8.11,8.11,0,0,1,6.82,2.57c1.47,1.8.81,3.56-1.49,3.93A8,8,0,0,1,304.85,118.67Z"/><path class="cls-7" d="M305.13,117.62c-1.51-1.85-.83-3.66,1.53-4a8.31,8.31,0,0,1,7,2.64c1.52,1.85.84,3.67-1.52,4.06A8.29,8.29,0,0,1,305.13,117.62Z"/><path class="cls-9" d="M305.42,116.5c-1.56-1.9-.85-3.77,1.58-4.17a8.54,8.54,0,0,1,7.24,2.72c1.56,1.91.86,3.78-1.58,4.18A8.58,8.58,0,0,1,305.42,116.5Z"/><path class="cls-7" d="M305.74,115.37c-1.6-2-.88-3.86,1.61-4.27a8.68,8.68,0,0,1,7.39,2.79c1.6,1.94.88,3.85-1.61,4.26A8.71,8.71,0,0,1,305.74,115.37Z"/><path class="cls-2" d="M321.56,84.62a14,14,0,0,0-18.06,8.12l0,.06c-3.93,10.42,4,15.39,2.44,19.59a2.41,2.41,0,0,0,.63,2.35,7.57,7.57,0,0,0,6.4,2.42,2.41,2.41,0,0,0,2-1.35h0c1.58-4.2,10.83-2.69,14.76-13.12a14,14,0,0,0-8.12-18.06Z"/><g class="cls-16"><path class="cls-3" d="M321.56,84.62a14,14,0,0,0-18.06,8.12l0,.06c-3.93,10.42,4,15.39,2.44,19.59a2.41,2.41,0,0,0,.63,2.35,7.57,7.57,0,0,0,6.4,2.42,2.41,2.41,0,0,0,2-1.35h0c1.58-4.2,10.83-2.69,14.76-13.12a14,14,0,0,0-8.12-18.06Z"/></g><path class="cls-2" d="M307.56,114.51c-1-1.27-.58-2.51,1-2.78a5.73,5.73,0,0,1,4.82,1.82c1,1.27.57,2.51-1.05,2.78A5.67,5.67,0,0,1,307.56,114.51Z"/><path class="cls-3" d="M312.36,114.36a.48.48,0,0,1-.28-.6,33.78,33.78,0,0,1,3.75-7.14,17.16,17.16,0,0,1,1.44-1.84,6.3,6.3,0,0,1-.93-1,8.14,8.14,0,0,1-1.19-2.16,8.45,8.45,0,0,1-2.29.81,6.11,6.11,0,0,1-1.35.12,18.36,18.36,0,0,1-.13,2.34,33.72,33.72,0,0,1-1.91,7.85.48.48,0,1,1-.88-.36,33.81,33.81,0,0,0,1.84-7.61,15,15,0,0,0,.12-2.32,3,3,0,0,1-2.21-1.67,1.53,1.53,0,0,1,.5-1.91,1.27,1.27,0,0,1,1.41-.05,3.59,3.59,0,0,1,1.2,2.78,5.54,5.54,0,0,0,1.22-.11,7.61,7.61,0,0,0,2.21-.8,3.48,3.48,0,0,1,.29-2.75,1.34,1.34,0,0,1,2.39.9A3.46,3.46,0,0,1,316,101.1a7.36,7.36,0,0,0,1.12,2.06,5.44,5.44,0,0,0,.85.88,3.62,3.62,0,0,1,2.74-1.29,1.26,1.26,0,0,1,1,1,1.51,1.51,0,0,1-.88,1.76,3,3,0,0,1-2.76-.2,15.85,15.85,0,0,0-1.45,1.82,33,33,0,0,0-3.63,6.94.48.48,0,0,1-.61.29Zm-2.68-14.74a.3.3,0,0,0-.31.07c-.33.21-.2.63-.15.75a1.91,1.91,0,0,0,1.25,1,2.72,2.72,0,0,0-.72-1.8Zm9.11,5a2,2,0,0,0,1.61.06c.11-.06.49-.28.39-.66-.06-.22-.17-.26-.26-.28C320.21,103.68,319.59,103.92,318.79,104.62Zm-2.42-6.17a.32.32,0,0,0-.44.11h0a2.25,2.25,0,0,0-.2,1.59,2.35,2.35,0,0,0,.89-1.33.32.32,0,0,0-.25-.38h0Z"/></g><path class="cls-17" d="M323.52,79.68a.69.69,0,0,1-.24-.05.92.92,0,0,1-.54-1.18L324.4,74a.92.92,0,0,1,1.17-.55h0a.92.92,0,0,1,.54,1.18l-1.66,4.48A.92.92,0,0,1,323.52,79.68Z"/><path class="cls-17" d="M313,78.71a.9.9,0,0,1-.82-.75l-.81-4.71a.92.92,0,0,1,1.81-.31l.81,4.7a.92.92,0,0,1-.75,1.06A.65.65,0,0,1,313,78.71Z"/><path class="cls-17" d="M303.43,83.13a.91.91,0,0,1-.63-.33l-3.06-3.68A.92.92,0,1,1,301.15,78l3.06,3.67a.92.92,0,0,1-.12,1.29A.89.89,0,0,1,303.43,83.13Z"/><path class="cls-17" d="M297.33,91.74a1,1,0,0,1-.24,0l-4.48-1.66a.91.91,0,0,1-.55-1.15v0a.91.91,0,0,1,1.16-.55h0l4.5,1.61a.91.91,0,0,1,.5,1.2.93.93,0,0,1-.9.57Z"/><path class="cls-17" d="M332.54,118.17a.91.91,0,0,1-.63-.33l-3.05-3.67a.92.92,0,0,1,1.41-1.18l3.05,3.68a.92.92,0,0,1-.13,1.29A.9.9,0,0,1,332.54,118.17Z"/><path class="cls-17" d="M340.06,107.53a1,1,0,0,1-.24,0l-4.48-1.71a.91.91,0,0,1-.53-1.18.9.9,0,0,1,1.17-.53l4.48,1.65a.91.91,0,0,1,.5,1.2.93.93,0,0,1-.9.57Z"/><path class="cls-17" d="M336.55,95.37a.92.92,0,0,1-.07-1.82l4.71-.8a.9.9,0,0,1,1.05.72v0a.92.92,0,0,1-.73,1.06h0l-4.71.81A1,1,0,0,1,336.55,95.37Z"/><path class="cls-17" d="M332.14,85.78a.91.91,0,0,1-.83-1,.9.9,0,0,1,.32-.62l3.68-3a.92.92,0,0,1,1.17,1.41l-3.68,3.05A.91.91,0,0,1,332.14,85.78Z"/></g></g><g id="freepik--Shines--inject-2"><g id="freepik--Shine--inject-2"><path class="cls-2" d="M339,136.45a.63.63,0,0,1-.62-.57v-.59a3.11,3.11,0,0,0-2.88-2.88l-.6,0a.61.61,0,0,1,0-1.22h.6a3.11,3.11,0,0,0,2.88-2.88v-.59a.63.63,0,0,1,.62-.57h0a.61.61,0,0,1,.61.57v.59a3.11,3.11,0,0,0,2.88,2.88h.6a.61.61,0,0,1,0,1.22l-.6,0a3.11,3.11,0,0,0-2.88,2.88v.59A.61.61,0,0,1,339,136.45Zm-1.6-4.7a4.28,4.28,0,0,1,1.6,1.59,4.33,4.33,0,0,1,1.59-1.59,4.33,4.33,0,0,1-1.59-1.59A4.28,4.28,0,0,1,337.39,131.75Z"/><path class="cls-2" d="M353.33,126.88a3.94,3.94,0,1,1,3.94-3.94,3.93,3.93,0,0,1-3.94,3.94Zm0-6.65A2.72,2.72,0,1,0,356,123v0A2.71,2.71,0,0,0,353.33,120.23Z"/><path class="cls-2" d="M356.61,137.74a.61.61,0,0,1-.62-.6h0v-2a.62.62,0,0,1,.62-.62.61.61,0,0,1,.61.61h0v2A.61.61,0,0,1,356.61,137.74Z"/><path class="cls-2" d="M355.38,139h-2.05a.62.62,0,0,1-.62-.62.61.61,0,0,1,.61-.61h2.06a.62.62,0,0,1,0,1.23Z"/><path class="cls-2" d="M356.61,142.37a.62.62,0,0,1-.62-.62v-2a.62.62,0,0,1,.62-.62.61.61,0,0,1,.61.61h0v2a.61.61,0,0,1-.6.62Z"/><path class="cls-2" d="M360,139H358a.61.61,0,0,1-.61-.61h0a.61.61,0,0,1,.61-.61H360a.61.61,0,0,1,.62.6h0A.62.62,0,0,1,360,139Z"/></g><g id="freepik--shine--inject-2-2" data-name="freepik--shine--inject-2"><path class="cls-2" d="M284.62,80.08a.61.61,0,0,1-.61-.57v-.59A3.11,3.11,0,0,0,281.12,76l-.59-.05a.61.61,0,1,1,0-1.22h.59A3.11,3.11,0,0,0,284,71.89V71.3a.61.61,0,0,1,.61-.57.63.63,0,0,1,.62.57v.59a3.11,3.11,0,0,0,2.88,2.88h.6a.61.61,0,0,1,0,1.22l-.59.05a3.11,3.11,0,0,0-2.88,2.88v.59A.63.63,0,0,1,284.62,80.08ZM283,75.38A4.33,4.33,0,0,1,284.62,77a4.33,4.33,0,0,1,1.59-1.59,4.33,4.33,0,0,1-1.59-1.59A4.33,4.33,0,0,1,283,75.38Z"/><path class="cls-2" d="M277.21,93.94A3.94,3.94,0,1,1,281.15,90,3.93,3.93,0,0,1,277.21,93.94Zm0-6.65A2.71,2.71,0,1,0,279.92,90h0A2.71,2.71,0,0,0,277.21,87.29Z"/><path class="cls-2" d="M265,77a.61.61,0,0,1-.61-.61V74.28a.61.61,0,0,1,.61-.61.62.62,0,0,1,.62.61v2.06A.61.61,0,0,1,265,77Z"/><path class="cls-2" d="M263.74,78.18h-2a.62.62,0,0,1-.62-.62.61.61,0,0,1,.61-.61h2a.62.62,0,0,1,0,1.23Z"/><path class="cls-2" d="M265,81.62a.61.61,0,0,1-.61-.61v-2.1a.61.61,0,0,1,.6-.62h0a.62.62,0,0,1,.62.62v2a.61.61,0,0,1-.56.66Z"/><path class="cls-2" d="M268.36,78.18h-2.05a.61.61,0,0,1-.61-.61h0a.61.61,0,0,1,.61-.61h2.05a.61.61,0,0,1,.62.6h0A.62.62,0,0,1,268.36,78.18Z"/></g><g id="freepik--shine--inject-2-3" data-name="freepik--shine--inject-2"><path class="cls-2" d="M135.63,126.29h0a.62.62,0,0,1-.64-.54l-.07-.59h0a3.1,3.1,0,0,0-3-2.76h-.59a.62.62,0,0,1-.54-.69.64.64,0,0,1,.54-.54l.59-.07a3.1,3.1,0,0,0,2.76-3v-.6a.63.63,0,0,1,.58-.59.61.61,0,0,1,.64.54l.07.59a3.1,3.1,0,0,0,3,2.76h.6a.62.62,0,0,1,.64.59.61.61,0,0,1-.59.63l-.6.07a3.11,3.11,0,0,0-2.75,3v.6a.62.62,0,0,1-.64.6Zm-1.81-4.67a4.34,4.34,0,0,1,1.66,1.52,4.38,4.38,0,0,1,1.52-1.65,4.19,4.19,0,0,1-1.65-1.53A4.36,4.36,0,0,1,133.82,121.62Z"/><path class="cls-2" d="M146.28,145a3.88,3.88,0,0,1-2.35-.56,3.93,3.93,0,1,1,2.35.56Zm-.53-6.63a2,2,0,0,0-.43.07,2.69,2.69,0,1,0,2,.28,2.65,2.65,0,0,0-1.58-.35Z"/><path class="cls-2" d="M123.14,139.9h0l-2,.13a.62.62,0,1,1-.21-1.22h.14l2-.12a.62.62,0,0,1,.66.57A.63.63,0,0,1,123.14,139.9Z"/><path class="cls-2" d="M124.57,143.1h0a.62.62,0,0,1-.65-.58l-.13-2.05a.64.64,0,0,1,.57-.65.62.62,0,0,1,.65.58l.13,2a.62.62,0,0,1-.53.7Z"/><path class="cls-2" d="M127.74,139.62h0l-2,.13a.61.61,0,0,1-.65-.57h0a.62.62,0,0,1,.57-.66l2-.12a.61.61,0,0,1,.65.57h0a.61.61,0,0,1-.57.65Z"/><path class="cls-2" d="M124.28,138.48h0a.61.61,0,0,1-.65-.57h0l-.13-2a.62.62,0,0,1,.65-.59.61.61,0,0,1,.58.51l.12,2a.61.61,0,0,1-.51.69Z"/></g></g><g id="freepik--paper-planes--inject-2"><g id="freepik--paper-planes--inject-2-2" data-name="freepik--paper-planes--inject-2"><g id="freepik--paper-plane--inject-2"><polygon class="cls-2" points="25.97 263.34 60.11 243.16 36.41 269.5 25.97 263.34"/><polygon class="cls-2" points="60.11 243.16 21.97 259.1 11.53 252.93 60.11 243.16"/><polygon class="cls-2" points="21.97 259.1 24.3 268.92 25.97 263.34 60.11 243.16 21.97 259.1"/><polygon class="cls-11" points="21.97 259.1 24.3 268.92 25.97 263.34 60.11 243.16 21.97 259.1"/><polygon class="cls-2" points="24.3 268.92 29.45 265.39 25.97 263.34 24.3 268.92"/><polygon class="cls-11" points="25.97 263.34 29.45 265.39 28.63 265.95 25.97 263.34"/><path class="cls-17" d="M16,271.94a.67.67,0,0,1-.46-1.16c.69-.65,1.38-1.25,2.06-1.8a.67.67,0,0,1,.94.1.68.68,0,0,1-.1.95c-.65.52-1.32,1.1-2,1.73A.72.72,0,0,1,16,271.94Z"/><path class="cls-17" d="M66.15,348.73c-1.32,0-2.63,0-3.92-.06a.68.68,0,0,1,.05-1.35q2.56.09,5.25.06h0a.67.67,0,0,1,.67.67h0a.67.67,0,0,1-.65.67h-1.4Zm5.79-.11a.67.67,0,1,1,0-1.34c1.71-.08,3.48-.2,5.24-.35a.69.69,0,0,1,.73.61.68.68,0,0,1-.61.73c-1.78.15-3.57.27-5.3.35Zm-14.08-.16h0c-1.77-.13-3.55-.31-5.29-.53a.67.67,0,0,1,.22-1.31c1.72.22,3.47.39,5.22.52a.67.67,0,0,1,0,1.34Zm23.73-.64a.67.67,0,1,1-.08-1.34c1.71-.21,3.46-.45,5.21-.72a.68.68,0,0,1,.77.56.68.68,0,0,1-.57.77c-1.76.27-3.53.51-5.25.72Zm-33.33-.53h-.12c-1.77-.31-3.53-.66-5.21-1.06a.67.67,0,0,1-.51-.78v0a.67.67,0,0,1,.8-.5c1.66.39,3.39.74,5.14,1.05a.67.67,0,0,1-.11,1.33Zm-9.44-2.17h-.18c-1.72-.5-3.43-1.06-5.07-1.66A.67.67,0,0,1,34,342.2h0c1.61.59,3.29,1.14,5,1.63a.67.67,0,0,1,.46.83h0a.68.68,0,0,1-.67.43Zm-9.08-3.3a.86.86,0,0,1-.27-.05c-1.65-.72-3.26-1.5-4.8-2.32a.67.67,0,0,1-.33-.89.68.68,0,0,1,.89-.33l.07,0c1.5.8,3.09,1.56,4.71,2.27a.67.67,0,0,1-.27,1.28Zm-8.57-4.49a.65.65,0,0,1-.36-.1c-1.53-1-3-2-4.39-3a.67.67,0,0,1-.13-.94h0a.68.68,0,0,1,.94-.13c1.36,1,2.8,2,4.3,3a.68.68,0,0,1,.22.92.68.68,0,0,1-.58.32Zm-7.73-5.81a.67.67,0,0,1-.45-.18,48.28,48.28,0,0,1-3.77-3.8.69.69,0,0,1,.06-1,.68.68,0,0,1,1,.06,47.32,47.32,0,0,0,3.66,3.7.68.68,0,0,1,0,.95h0a.69.69,0,0,1-.47.22ZM7,324.32a.67.67,0,0,1-.55-.28,39,39,0,0,1-2.82-4.57.68.68,0,0,1,.18-.94.69.69,0,0,1,1,.18.61.61,0,0,1,.07.14,36.21,36.21,0,0,0,2.71,4.41.68.68,0,0,1-.14.94h0a.73.73,0,0,1-.41.12ZM2.45,315.8a.68.68,0,0,1-.63-.44,29.12,29.12,0,0,1-1.08-3.89c-.1-.44-.18-.88-.26-1.33a.67.67,0,0,1,1.26-.22c.07.42.15.85.24,1.28A29.64,29.64,0,0,0,3,314.91a.65.65,0,0,1-.37.84h0a.52.52,0,0,1-.21,0ZM.67,306.33a.67.67,0,0,1-.67-.65V304.4a34.92,34.92,0,0,1,.23-4.09.67.67,0,0,1,.71-.63.69.69,0,0,1,.63.72s0,0,0,.06a34.56,34.56,0,0,0-.22,3.94v1.23a.69.69,0,0,1-.65.7Zm1-9.62H1.47a.67.67,0,0,1-.51-.8H1a43.89,43.89,0,0,1,1.52-5.14.67.67,0,0,1,.86-.4h0a.68.68,0,0,1,.4.86,44,44,0,0,0-1.47,5,.66.66,0,0,1-.67.49Zm3.12-9.09a.55.55,0,0,1-.28-.07.66.66,0,0,1-.33-.87v0c.75-1.59,1.59-3.18,2.51-4.72a.67.67,0,0,1,.92-.23h0a.68.68,0,0,1,.24.92c-.9,1.5-1.73,3.05-2.46,4.6A.67.67,0,0,1,4.74,287.62Zm4.9-8.35a.69.69,0,0,1-.39-.12.66.66,0,0,1-.15-.93h0c1-1.45,2.14-2.85,3.32-4.19a.67.67,0,0,1,.95-.06h0a.68.68,0,0,1,.06,1c-1.13,1.28-2.22,2.66-3.24,4.08a.67.67,0,0,1-.52.25Z"/><path class="cls-17" d="M91.22,346.32A.67.67,0,0,1,91.1,345l2.63-.51A.67.67,0,1,1,94,345.8l-2.64.51Z"/></g><g id="freepik--paper-plane--inject-2-2" data-name="freepik--paper-plane--inject-2"><polygon class="cls-2" points="394 256.9 434.19 236.79 450.21 243.87 394 256.9"/><polygon class="cls-2" points="394 256.9 429.41 233.22 423.07 224.11 394 256.9"/><polygon class="cls-2" points="429.41 233.22 428.74 239.52 394 256.9 429.41 233.22"/><polygon class="cls-11" points="429.41 233.22 428.74 239.52 394 256.9 429.41 233.22"/><path class="cls-17" d="M435,233.15a.67.67,0,0,1-.66-.7.67.67,0,0,1,.24-.5l.47.49.37.56A.66.66,0,0,1,435,233.15Zm3.39-3a.66.66,0,0,1-.46-.19.67.67,0,0,1,0-1l0,0a27.3,27.3,0,0,0,3.24-4.1.67.67,0,0,1,1.13.73,28.89,28.89,0,0,1-3.41,4.3.63.63,0,0,1-.5.26Zm5.47-8.12a.67.67,0,0,1-.28-.06.69.69,0,0,1-.33-.89,31.64,31.64,0,0,0,1.78-5,.66.66,0,0,1,.82-.47.68.68,0,0,1,.48.82,32.73,32.73,0,0,1-1.86,5.19.65.65,0,0,1-.61.41Zm2.69-9.44h-.09a.67.67,0,0,1-.57-.75,36.3,36.3,0,0,0,.29-4.54v-.68a.67.67,0,0,1,.64-.68h0a.67.67,0,0,1,.67.65v.75a37,37,0,0,1-.31,4.71.67.67,0,0,1-.64.57Zm-.07-9.81a.67.67,0,0,1-.66-.57,36.4,36.4,0,0,0-1.13-5.15.67.67,0,0,1,1.28-.38,37.38,37.38,0,0,1,1.17,5.34.68.68,0,0,1-.56.76Zm-2.71-9.44a.65.65,0,0,1-.61-.41,39.08,39.08,0,0,0-2.42-4.68.67.67,0,0,1,.23-.92.66.66,0,0,1,.92.22h0a38.43,38.43,0,0,1,2.5,4.86.68.68,0,0,1-.35.88A.86.86,0,0,1,443.74,193.34Zm-5-8.46a.7.7,0,0,1-.54-.26,41.27,41.27,0,0,0-3.47-4,.67.67,0,0,1,.95-1h0a43.71,43.71,0,0,1,3.59,4.1.67.67,0,0,1-.13.94h0a.59.59,0,0,1-.33.17Zm-6.84-7a.67.67,0,0,1-.43-.16c-.81-.67-1.66-1.32-2.52-1.93-.57-.41-1.15-.81-1.75-1.2a.67.67,0,0,1-.19-.93h0a.65.65,0,0,1,.91-.2h0c.61.4,1.2.81,1.79,1.23.88.63,1.76,1.3,2.59,2a.67.67,0,0,1,.1.94.69.69,0,0,1-.45.2Zm-8.16-5.48a.63.63,0,0,1-.33-.09c-1.5-.83-3.1-1.63-4.75-2.37a.66.66,0,0,1-.34-.88h0a.68.68,0,0,1,.89-.33c1.68.76,3.32,1.57,4.85,2.42a.66.66,0,0,1,.27.91h0a.7.7,0,0,1-.52.31Zm-8.94-4.11a.89.89,0,0,1-.23,0c-1.63-.62-3.32-1.2-5-1.73a.67.67,0,0,1-.44-.84h0a.68.68,0,0,1,.83-.45c1.75.54,3.47,1.13,5.12,1.76a.67.67,0,0,1,.4.86.66.66,0,0,1-.64.44Zm-9.38-2.95h-.17c-1.68-.43-3.43-.82-5.2-1.18a.67.67,0,1,1,.15-1.33l.11,0c1.8.35,3.57.76,5.28,1.19a.68.68,0,0,1,.45.85.66.66,0,0,1-.62.48Zm-54.05-.12a.68.68,0,0,1-.68-.66.68.68,0,0,1,.51-.66c1.71-.44,3.48-.85,5.27-1.2a.67.67,0,0,1,.26,1.32c-1.76.35-3.51.74-5.19,1.18Zm44.4-1.85h0c-1.73-.27-3.51-.5-5.29-.69a.67.67,0,1,1,.14-1.34c1.8.2,3.61.43,5.36.7a.67.67,0,0,1,.62.72.68.68,0,0,1-.73.62Zm-34.76-.1a.67.67,0,1,1-.1-1.34c1.75-.26,3.55-.49,5.35-.67a.67.67,0,0,1,.74.6.66.66,0,0,1-.58.73h0c-1.78.18-3.56.41-5.29.67Zm25-1H386c-1.76-.12-3.56-.2-5.33-.23a.69.69,0,0,1-.66-.69.68.68,0,0,1,.62-.73h.15c1.79,0,3.61.12,5.39.24a.68.68,0,0,1,0,1.35Zm-15.2,0a.68.68,0,0,1,0-1.35c1.78-.1,3.59-.17,5.39-.2h0a.67.67,0,0,1,.67.65h0a.67.67,0,0,1-.66.68h0c-1.78,0-3.57.1-5.33.2Z"/></g></g></g></g></g></svg>