<svg xmlns="http://www.w3.org/2000/svg" viewBox="0 0 446.4 364.54"><defs><style>.cls-1{fill:#e9e9e9;}.cls-2{fill:#f567b0;}.cls-3,.cls-5{opacity:0.1;}.cls-13,.cls-14,.cls-20,.cls-3,.cls-8{isolation:isolate;}.cls-4,.cls-8{fill:#fff;}.cls-6{fill:#37474f;}.cls-7{fill:#455a64;}.cls-19,.cls-8{opacity:0.4;}.cls-9{fill:#e0e0e0;}.cls-10{fill:#fafafa;}.cls-11{fill:#f0f0f0;}.cls-12{fill:#263238;}.cls-13{opacity:0.2;}.cls-14{opacity:0.3;}.cls-15{fill:#b16668;}.cls-16{fill:#f5f5f5;}.cls-17{fill:#9a4a4d;}.cls-18{fill:#ffa8a7;}.cls-20{opacity:0.15;}.cls-21{fill:#f28f8f;}</style></defs><g id="Layer_2" data-name="Layer 2"><g id="Layer_1-2" data-name="Layer 1"><g id="Layer_2-2" data-name="Layer 2"><g id="Layer_1-2-2" data-name="Layer 1-2"><ellipse class="cls-1" cx="296.94" cy="299.62" rx="149.46" ry="48.44"/><g id="freepik--Plants--inject-123"><g id="freepik--plants--inject-123-2"><g id="freepik--plants--inject-123-3"><path class="cls-2" d="M385.19,322.14c.09-4.71,3.66-14.41,8.66-20.44s12.76-10.37,18.18-8.41c5.06,1.83,4.39,8.49-1.86,12.8s-15.61,9.71-18.46,17.3l-5.85,9.28Z"/><path class="cls-3" d="M385.19,322.14c.09-4.71,3.66-14.41,8.66-20.44s12.76-10.37,18.18-8.41c5.06,1.83,4.39,8.49-1.86,12.8s-15.61,9.71-18.46,17.3l-5.85,9.28Z"/><path class="cls-4" d="M384.73,328.58a.34.34,0,0,0,.32-.27c3.43-16,16.67-28.87,24.5-31.62a.36.36,0,0,0,.22-.44.34.34,0,0,0-.43-.22h0c-8,2.8-21.47,15.85-24.95,32.12a.36.36,0,0,0,.26.41Z"/><path class="cls-2" d="M387,338.91c.81-2.63,4.12-7,9.41-10.46,5.86-3.9,13.21-5.6,15-8.68,2.1-3.7-1-7.28-7-6.65s-16.54,8.56-18.43,20.74Z"/><path class="cls-4" d="M385.85,336.07a.36.36,0,0,0,.3-.22c5.17-13.69,15.77-18.34,20.65-18.89a.35.35,0,0,0,.3-.38.33.33,0,0,0-.35-.31h0c-5.4.6-15.93,5.35-21.21,19.33a.34.34,0,0,0,.2.44h.14Z"/></g><g id="freepik--plants--inject-123-4"><path class="cls-2" d="M55.72,307.07l5.92-3.38s2.84-15.64.72-29.08c-3-18.9-15.86-25.42-20.53-23.54s-5.77,7.48,2.67,18.4C49.48,275.92,55.88,289.54,55.72,307.07Z"/><g class="cls-5"><path d="M55.72,307.07l5.92-3.38s2.84-15.64.72-29.08c-3-18.9-15.86-25.42-20.53-23.54s-5.77,7.48,2.67,18.4C49.48,275.92,55.88,289.54,55.72,307.07Z"/></g><path class="cls-4" d="M57.87,299.58h-.06a.42.42,0,0,1-.36-.47c2.45-17.7-4.67-37.08-12.66-44.89a.43.43,0,0,1,0-.6.41.41,0,0,1,.59,0h0c8.14,8,15.39,27.66,12.91,45.61A.44.44,0,0,1,57.87,299.58Z"/><path class="cls-2" d="M39.31,316.57c-.94.53-2.86-.64-3.6-1.14a8.93,8.93,0,0,1-3-3.4,8.3,8.3,0,0,1-.74-5,18.54,18.54,0,0,1,.64-2.67c.24-.87.49-1.73.74-2.6a6.65,6.65,0,0,0,.38-2.61c-.23-1.77-1.8-3-3.23-4.08s-3.23-2.75-3.22-4.89a7.52,7.52,0,0,1,1.88-4.46c1-1.3,2.23-2.44,3.15-3.8a5.25,5.25,0,0,0,1.09-3.34,5.4,5.4,0,0,0-.73-2.07,30.89,30.89,0,0,1-2.27-4.15,4.16,4.16,0,0,1,.72-4.42,4.82,4.82,0,0,1,3.67-.91,8.16,8.16,0,0,1,3.41,1.2c3.39,1.88,5.32,5.89,8.92,7.34a38.34,38.34,0,0,0,4.35,1.07,5.32,5.32,0,0,1,3.59,2.45c1.32,2.64-1.13,5.89-.2,8.69.82,2.47,3.22,3.42,4.58,5.65a5.29,5.29,0,0,1,.63,3.24,15.57,15.57,0,0,1-1.37,5.48,40,40,0,0,1-3,4.93C55.67,307.14,39.45,316.48,39.31,316.57Z"/><path class="cls-4" d="M48.91,311.45h0a.43.43,0,0,1-.41-.43h0c.7-16.75-7.19-35.24-12.93-40.61a.41.41,0,0,1,0-.58h0a.41.41,0,0,1,.59,0h0c5.85,5.47,13.9,24.27,13.2,41.25A.45.45,0,0,1,48.91,311.45Z"/><path class="cls-4" d="M46.4,291.66h-.12a57.52,57.52,0,0,0-12.15-2,.42.42,0,0,1-.42-.42.42.42,0,0,1,.42-.42h0a57,57,0,0,1,12.37,2,.39.39,0,0,1,.28.5v0h0A.45.45,0,0,1,46.4,291.66Z"/></g></g></g><g id="freepik--Board--inject-123"><polygon class="cls-6" points="109.53 247.86 109.53 245.46 66.88 270.13 68.91 271.33 109.53 247.86"/><path class="cls-6" d="M56.4,85.44a.59.59,0,0,1,.27.62L21.28,242.94l-1,4.45a2.86,2.86,0,0,1-1.41-.28h0l-2.37-1.37a.59.59,0,0,1-.27-.62l36.28-161a.56.56,0,0,1,.66-.44h0a.44.44,0,0,1,.16.06Z"/><path class="cls-7" d="M60.78,83.3,24.32,245.07a1,1,0,0,1-.45.61l-2.37,1.39a2.63,2.63,0,0,1-1.23.3l1-4.45L56.7,85.63Z"/><path class="cls-6" d="M64.85,301.36v4.71a3,3,0,0,1-1.31-.3h0l-2.2-1.27a.93.93,0,0,1-.53-.76V163.19l4.07,2.35Z"/><path class="cls-7" d="M68.92,163.2V303.74a.94.94,0,0,1-.54.71l-2.19,1.27a2.69,2.69,0,0,1-1.33.32V165.54Z"/><path class="cls-6" d="M117.58,275.6a2.83,2.83,0,0,1-1.27-.37l-2.26-1.31a1.2,1.2,0,0,1-.56-.78L89.26,146.74l4.07,2.35,23.38,122Z"/><path class="cls-7" d="M121.64,273.23h0a1,1,0,0,1-.56.77L119,275.2l-.1.06a2.93,2.93,0,0,1-1.33.32L116.7,271,93.32,149l4.08-2.34,24.2,126.38h0Z"/><polygon class="cls-7" points="67.51 276.81 113.59 250.21 113.59 245.52 67.51 272.12 67.51 276.81"/><path class="cls-2" d="M3.92,207.15v1.69a2.87,2.87,0,0,0,1.3,2.25L18.87,219a2.88,2.88,0,0,0,2.59,0l115.21-66.51a2.9,2.9,0,0,0,1.29-2.25v-1.69a2.87,2.87,0,0,0-1.29-2.25L123,138.39a2.84,2.84,0,0,0-2.6,0L5.22,204.9A2.86,2.86,0,0,0,3.92,207.15Z"/><path class="cls-8" d="M5.22,206.4l13.65,7.88a2.88,2.88,0,0,0,2.59,0l115.21-66.51a.79.79,0,0,0,.5-1h0a.76.76,0,0,0-.5-.5L123,138.39a2.84,2.84,0,0,0-2.6,0L5.22,204.9A.79.79,0,0,0,5.22,206.4Z"/><path class="cls-3" d="M20.16,214.59v4.69a2.88,2.88,0,0,1-1.29-.31l-13.65-7.9a2.91,2.91,0,0,1-1.3-2.25v-1.69a2.86,2.86,0,0,1,1-2.07.75.75,0,0,0-.11,1.07.74.74,0,0,0,.37.25l13.65,7.88A2.94,2.94,0,0,0,20.16,214.59Z"/><path class="cls-9" d="M13.94,211.43l-3.8-2.19a5.24,5.24,0,0,1-2.31-3.74L0,69.77A4.42,4.42,0,0,1,2,66L115.49.52a4.79,4.79,0,0,1,4.33,0l3.8,2.19a5.13,5.13,0,0,1,2.3,3.74l7.84,135.73a4.44,4.44,0,0,1-2,3.74L18.27,211.43A4.79,4.79,0,0,1,13.94,211.43Z"/><path class="cls-10" d="M125.87,6.07c-.23-1.1-1.17-1.49-2.26-.87L10.14,70.72a4.18,4.18,0,0,0-1.49,1.63L.52,67.66A4.27,4.27,0,0,1,2,66.07L115.49.52a4.77,4.77,0,0,1,4.32,0l3.82,2.2A5.15,5.15,0,0,1,125.87,6.07Z"/><path class="cls-11" d="M8.12,74.47,16,210.19a1.41,1.41,0,0,0,1.24,1.56,1.39,1.39,0,0,0,1.07-.32l113.47-65.51a4.44,4.44,0,0,0,2-3.74L125.92,6.45a1.41,1.41,0,0,0-1.24-1.56h0a1.36,1.36,0,0,0-1,.32L10.14,70.72A4.42,4.42,0,0,0,8.12,74.47Z"/><path class="cls-12" d="M93.28,23.77v7.3a2,2,0,0,1-.91,1.58L45.45,59.72a2,2,0,0,1-1.82,0l-2.23-1.3a2,2,0,0,1-.9-1.57V53.21l-8.1-4.69-4,2.34V42.53A2,2,0,0,1,29.31,41L76.23,13.9a2,2,0,0,1,1.82,0L92.4,22.19A2,2,0,0,1,93.28,23.77Z"/><path class="cls-6" d="M93.28,23.77v7.3a2,2,0,0,1-.91,1.57L45.45,59.72a2,2,0,0,1-.91.21V50.56a2,2,0,0,0,.91-.22l47-27.1c.44-.25.49-.65.16-.93A2,2,0,0,1,93.28,23.77Z"/><path class="cls-7" d="M29.2,42l14.43,8.33a2,2,0,0,0,1.82,0l47-27.1a.56.56,0,0,0,.33-.72h0a.52.52,0,0,0-.33-.33L78,13.86a2,2,0,0,0-1.82,0L29.2,41a.55.55,0,0,0-.36.69h0A.58.58,0,0,0,29.2,42Z"/><path class="cls-2" d="M22,100.78c.56,9.68,7.94,13.53,16.49,8.6S53.49,92.6,53,82.91,45,69.38,36.4,74.32,21.4,91.07,22,100.78Z"/><path class="cls-3" d="M47.4,73l-10,18.86-1-17.53C40.55,71.94,44.4,71.6,47.4,73Z"/><path class="cls-13" d="M50.51,95,37.4,91.85,47.4,73c3.15,1.47,5.27,4.92,5.56,9.93A27.46,27.46,0,0,1,50.51,95Z"/><path class="cls-6" d="M60.61,71.28l.09,1.54a.85.85,0,0,0,.76.93.86.86,0,0,0,.62-.18L114.6,43.26A2.67,2.67,0,0,0,115.81,41l-.08-1.54a.86.86,0,0,0-.75-1,.88.88,0,0,0-.64.2L61.83,69.07A2.66,2.66,0,0,0,60.61,71.28Z"/><path class="cls-2" d="M64.77,80.07l.15,2.54a1.79,1.79,0,0,1-.81,1.5l-1.83,1a.58.58,0,0,1-.79-.06.59.59,0,0,1-.13-.44L61.22,82A1.77,1.77,0,0,1,62,80.5l1.82-1a.56.56,0,0,1,.79,0A.55.55,0,0,1,64.77,80.07Z"/><path class="cls-7" d="M115.23,54.55,70.4,80.4a.85.85,0,0,1-1.2-.09.83.83,0,0,1-.2-.66l-.08-1.54a2.67,2.67,0,0,1,1.21-2.25L114.94,50a.85.85,0,0,1,1.2.11h0a.89.89,0,0,1,.18.63l.09,1.55A2.64,2.64,0,0,1,115.23,54.55Z"/><path class="cls-2" d="M65.28,91.41,65.42,94a1.79,1.79,0,0,1-.81,1.5l-1.82,1a.58.58,0,0,1-.79-.06.59.59,0,0,1-.13-.44l-.14-2.54a1.77,1.77,0,0,1,.81-1.5l1.82-1a.56.56,0,0,1,.79.07h0A.52.52,0,0,1,65.28,91.41Z"/><path class="cls-3" d="M65.28,91.41,65.42,94a1.79,1.79,0,0,1-.81,1.5l-1.82,1a.58.58,0,0,1-.79-.06.59.59,0,0,1-.13-.44l-.14-2.54a1.77,1.77,0,0,1,.81-1.5l1.82-1a.56.56,0,0,1,.79.07h0A.52.52,0,0,1,65.28,91.41Z"/><path class="cls-7" d="M115.74,65.94,70.93,91.8a.84.84,0,0,1-1.19-.13.82.82,0,0,1-.19-.62l-.08-1.54a2.67,2.67,0,0,1,1.21-2.25L115.49,61.4a.85.85,0,0,1,1.2.11h0a.89.89,0,0,1,.18.63L117,63.7A2.66,2.66,0,0,1,115.74,65.94Z"/><path class="cls-2" d="M65.78,102.9l.15,2.53a1.79,1.79,0,0,1-.81,1.5L63.28,108a.57.57,0,0,1-.92-.5l-.14-2.5a1.74,1.74,0,0,1,.81-1.5l1.83-1.06a.56.56,0,0,1,.79.06h0A.57.57,0,0,1,65.78,102.9Z"/><path class="cls-13" d="M65.78,102.9l.15,2.53a1.79,1.79,0,0,1-.81,1.5L63.28,108a.57.57,0,0,1-.92-.5l-.14-2.5a1.74,1.74,0,0,1,.81-1.5l1.83-1.06a.56.56,0,0,1,.79.06h0A.57.57,0,0,1,65.78,102.9Z"/><path class="cls-7" d="M116.23,77.43,71.4,103.28a.84.84,0,0,1-1.19-.13.82.82,0,0,1-.19-.62L69.94,101a2.67,2.67,0,0,1,1.21-2.25L116,72.89a.85.85,0,0,1,1.2.11h0a.89.89,0,0,1,.18.63l.09,1.54A2.67,2.67,0,0,1,116.23,77.43Z"/><path class="cls-6" d="M28.53,122.45l21.72-12.57a.85.85,0,0,1,1.39.75l.21,3.63a2.67,2.67,0,0,1-1.21,2.25L28.91,129.07a.85.85,0,0,1-1.2-.11h0a.83.83,0,0,1-.19-.64l-.21-3.63A2.66,2.66,0,0,1,28.53,122.45Z"/><path class="cls-7" d="M24,151.84l31.92-18.43a.85.85,0,0,1,1.2.11h0a.89.89,0,0,1,.18.63l.09,1.54a2.64,2.64,0,0,1-1.21,2.3L24.26,156.38a.84.84,0,0,1-1.19-.13.82.82,0,0,1-.19-.62l-.09-1.56A2.65,2.65,0,0,1,24,151.84Z"/><path class="cls-7" d="M24.7,164l31.92-18.44a.84.84,0,0,1,1.18.09.8.8,0,0,1,.2.65l.09,1.55a2.67,2.67,0,0,1-1.21,2.25L25,168.47a.88.88,0,0,1-1.2-.13.9.9,0,0,1-.18-.61l-.09-1.53A2.64,2.64,0,0,1,24.7,164Z"/><path class="cls-7" d="M25.4,176.07l31.92-18.46a.85.85,0,0,1,1.2.11h0a.89.89,0,0,1,.18.63l.09,1.54a2.64,2.64,0,0,1-1.21,2.25L25.66,180.57a.84.84,0,0,1-1.19-.13.82.82,0,0,1-.19-.62l-.09-1.51A2.65,2.65,0,0,1,25.4,176.07Z"/><path class="cls-7" d="M26.11,188.17,58,169.7a.85.85,0,0,1,1.2.1h0a.88.88,0,0,1,.19.63L59.5,172a2.7,2.7,0,0,1-1.22,2.25L26.4,192.66a.85.85,0,0,1-1.2-.11h0a.83.83,0,0,1-.19-.64l-.08-1.49A2.67,2.67,0,0,1,26.11,188.17Z"/><path class="cls-2" d="M68.18,133.41l4.59-2.65a.85.85,0,0,1,1.2.11h0a.89.89,0,0,1,.18.63l1.42,24.16a2.67,2.67,0,0,1-1.21,2.25l-4.59,2.64a.85.85,0,0,1-1.2-.11h0a.91.91,0,0,1-.19-.63L67,135.66A2.63,2.63,0,0,1,68.18,133.41Z"/><path class="cls-6" d="M70,165.07l4.59-2.65c.72-.41,1.33-.24,1.37.39a2.39,2.39,0,0,1-1.24,1.88l-4.59,2.65c-.71.42-1.33.25-1.36-.38A2.38,2.38,0,0,1,70,165.07Z"/><path class="cls-2" d="M84.52,135.84l4.59-2.65a.85.85,0,0,1,1.39.75l.74,12.66A2.67,2.67,0,0,1,90,148.85l-4.6,2.65a.85.85,0,0,1-1.2-.11h0a.83.83,0,0,1-.19-.64l-.7-12.68A2.67,2.67,0,0,1,84.52,135.84Z"/><path class="cls-3" d="M84.52,135.84l4.59-2.65a.85.85,0,0,1,1.39.75l.74,12.66A2.67,2.67,0,0,1,90,148.85l-4.6,2.65a.85.85,0,0,1-1.2-.11h0a.83.83,0,0,1-.19-.64l-.7-12.68A2.67,2.67,0,0,1,84.52,135.84Z"/><path class="cls-6" d="M85.7,156.07l4.59-2.65c.72-.41,1.33-.24,1.36.39a2.38,2.38,0,0,1-1.23,1.88l-4.59,2.65c-.72.41-1.33.24-1.36-.39A2.36,2.36,0,0,1,85.7,156.07Z"/><path class="cls-2" d="M99.18,108.34l4.59-2.65a.85.85,0,0,1,1.2.11h0a.89.89,0,0,1,.18.63l1.76,31.1a2.69,2.69,0,0,1-1.21,2.25l-4.59,2.65a.85.85,0,0,1-1.2-.11h0a.83.83,0,0,1-.19-.64L98,110.59A2.63,2.63,0,0,1,99.18,108.34Z"/><path class="cls-13" d="M99.18,108.34l4.59-2.65a.85.85,0,0,1,1.2.11h0a.89.89,0,0,1,.18.63l1.76,31.1a2.69,2.69,0,0,1-1.21,2.25l-4.59,2.65a.85.85,0,0,1-1.2-.11h0a.83.83,0,0,1-.19-.64L98,110.59A2.63,2.63,0,0,1,99.18,108.34Z"/><path class="cls-6" d="M101.4,147l4.59-2.65c.71-.42,1.33-.25,1.36.38a2.41,2.41,0,0,1-1.23,1.89l-4.59,2.65c-.72.41-1.33.24-1.37-.39A2.36,2.36,0,0,1,101.4,147Z"/><path class="cls-2" d="M115.65,113l4.59-2.65a.85.85,0,0,1,1.2.11h0a.89.89,0,0,1,.18.63l1,17.37a2.67,2.67,0,0,1-1.22,2.24l-4.59,2.65a.88.88,0,0,1-1.2-.13.9.9,0,0,1-.18-.61l-1-17.37A2.68,2.68,0,0,1,115.65,113Z"/><path class="cls-14" d="M115.65,113l4.59-2.65a.85.85,0,0,1,1.2.11h0a.89.89,0,0,1,.18.63l1,17.37a2.67,2.67,0,0,1-1.22,2.24l-4.59,2.65a.88.88,0,0,1-1.2-.13.9.9,0,0,1-.18-.61l-1-17.37A2.68,2.68,0,0,1,115.65,113Z"/><path class="cls-6" d="M117,137.91l4.59-2.65c.71-.41,1.32-.24,1.36.39a2.39,2.39,0,0,1-1.23,1.88l-4.59,2.65c-.72.42-1.33.24-1.37-.38A2.42,2.42,0,0,1,117,137.91Z"/></g><g id="freepik--character-2--inject-123"><path class="cls-15" d="M229.47,158.36l7.8-4.59c.53,1.39,1,2.61,1.46,3.61s2.44,2.23,3.4,2.67c2.55,1.17,3.7,2.56,5.72,4.19,1.58,1.28,2.82,1.49,2.69,2a2.31,2.31,0,0,1-2.8,1.42,16.45,16.45,0,0,1-3.59-1.38,21.63,21.63,0,0,0,4.2,5.45c3.84,3.63,4.31,6.11-2.37,7-4.18.58-7.86-1.57-12.22-10.4A75.62,75.62,0,0,1,229.47,158.36Z"/><path class="cls-2" d="M218.31,80.89a54.92,54.92,0,0,1-3.2,7.24c-1.27,2.17-.2,36.79.44,39.69s13.31,31.25,13.31,31.25a10.66,10.66,0,0,0,9.92-3.09l-9.38-29.67-.63-25.24S229.14,82.82,218.31,80.89Z"/><path class="cls-3" d="M218.31,80.89a54.92,54.92,0,0,1-3.2,7.24c-1.27,2.17-.2,36.79.44,39.69s13.31,31.25,13.31,31.25a10.66,10.66,0,0,0,9.92-3.09l-9.38-29.67-.63-25.24S229.14,82.82,218.31,80.89Z"/><rect class="cls-15" x="178.61" y="264.61" width="9.37" height="16.04"/><polygon class="cls-15" points="216.92 268.51 226.28 268.83 226.75 251.86 216.92 251.54 216.92 268.51"/><path class="cls-6" d="M179.93,150.14c0,9-.62,61-.62,61-.22,2.57-2.69,7.15-2.89,16.42-.28,13.44,1.79,45.11,1.79,45.11a12.32,12.32,0,0,0,10.43.21s7.36-44.8,9-58.1c1.46-11.62,6.52-42.62,6.52-42.62l7.24,39.22a53.51,53.51,0,0,0-1.16,14.88c.44,6.16,6.14,37,6.14,37a12.87,12.87,0,0,0,10.82.83s.56-48.4.66-54c.13-6.44-2.68-61.82-2.68-61.82Z"/><path class="cls-12" d="M188,276.07v-1.33c.5,0,.81.48,1,1.69.14.86.27,1.51.55,2.65a32.61,32.61,0,0,0,1.64,4.79c1.32,3.27,2.43,4.48,5.47,8.3a34.41,34.41,0,0,1,2.91,3.35c.56,1,.76,3.81-.2,4.45-3.54,2.36-8.91,2.42-12.71,1.31a7.66,7.66,0,0,1-5.51-6.2c-.14-.86-.09-1.74-.19-2.61a12.34,12.34,0,0,0-2.35-5.44,16.87,16.87,0,0,1-1.79-3c-.79-1.93-.16-4.1.34-6,.44-1.66.91-3.48,1.47-3.33v1a7.5,7.5,0,0,0,4.69,1.58C184.67,277.34,188,277.07,188,276.07Z"/><path class="cls-12" d="M226.4,265.94c.49,0,.89.7,2,1.86a20.53,20.53,0,0,0,5.51,4c3.51,1.75,10.33,4.45,13.41,5.84,1.93.87,1.84,3.2-.15,4.53s-6.81,2.28-12.58,1c-3.15-.71-7.25-3.62-9.84-3.46s-7.45.12-9.36-1.2-1.15-4.14-.61-6.56c.59-2.64,1.33-6.76,2.2-6.58v.91c1.13,1.71,6.94,2.4,9.42,1.14Z"/><path class="cls-12" d="M204.2,172.12a34.78,34.78,0,0,0,13-7.48s-2.52,4.71-10,9.1l3.62,34.92Z"/><path class="cls-16" d="M196.17,81.52c-3.18.77-9.61,1.82-11,8.17-1.73,7.62-2.3,24.23-2.3,24.23l-.59,37c6.45,4.69,30.15,7.25,43.72-2.66,0,0-1.66-44.37-1.66-51.27s-3.84-15.21-14.43-15.82Z"/><path class="cls-2" d="M209.71,80.4s4.76,3.78,6,9.37,1.5,68,1.5,68,6.62-1.22,9.72-3.66c0,0-.4-49.25-1-57.39-1-12.35-.85-15.91-16.23-17.21Z"/><path class="cls-2" d="M193.4,79.49s8.83,5.43,8.92,27c.09,18.68.71,51.22.71,51.22s-14.61,2.15-23.87-3.38c0,0-1.1-45.31-.93-52.32.2-8,2.08-18.42,4.66-19.45A71.41,71.41,0,0,1,193.4,79.49Z"/><path class="cls-15" d="M173.13,94.42c-4.14,7-13.1,21.2-13.1,21.2-.79-.62-19.63-12.42-23.88-17.69a30.55,30.55,0,0,0-3.2-5.65c-1.62-2.12-3.3-4.19-5-6.23a1.72,1.72,0,0,0-.44-.41c-.64-.38-1.49.18-1.7.89a3.67,3.67,0,0,0,.25,2.17c.3.92,1.24,2.2-.07,2.42a6.33,6.33,0,0,1-3.25-.73c-1.66-.72-3.3-1.51-4.9-2.36a7.29,7.29,0,0,0-3.28-1.17,4.2,4.2,0,0,0-3.82,2.9,6.28,6.28,0,0,0,.6,4.94,12.7,12.7,0,0,0,3.44,3.75c2.93,2.27,6.81,3.31,10.36,4.25a15.78,15.78,0,0,1,5,2.34c2.83,2,17.57,14.54,24.63,19.7,6.39,4.68,8.19,2.85,11.92-.93s17.79-21.55,17.79-21.55Z"/><path class="cls-2" d="M185.48,81.64c-9.58,2.8-8.94,6.19-15.32,16.38s-10.65,14.8-10.65,14.8L139.15,100a19.12,19.12,0,0,0-6.53,8.36s20.47,15.88,23.32,17.66c4.06,2.54,6.15,3.52,9.48.7s16.81-17.64,16.81-17.64C188.4,102.86,189.68,86.23,185.48,81.64Z"/><path class="cls-3" d="M185.48,81.64c-9.58,2.8-8.94,6.19-15.32,16.38s-10.65,14.8-10.65,14.8L139.15,100a19.12,19.12,0,0,0-6.53,8.36s20.47,15.88,23.32,17.66c4.06,2.54,6.15,3.52,9.48.7s16.81-17.64,16.81-17.64C188.4,102.86,189.68,86.23,185.48,81.64Z"/><polygon class="cls-3" points="192.39 91.3 196.43 96.31 194.41 102 199.72 115.62 193.32 102 195.56 96.63 192.39 91.3"/><polygon class="cls-3" points="220.9 89.69 220.03 94.87 223.53 99.42 218.66 114.76 222.43 99.59 219.2 95.33 220.9 89.69"/><circle class="cls-12" cx="211.33" cy="50.73" r="12.87"/><path class="cls-12" d="M189.08,59.89s2.08,9.8,2.92,11.41a4.46,4.46,0,0,0,2.56,2.07l-.16-6.9Z"/><path class="cls-12" d="M191.69,45.85a4.8,4.8,0,0,0-4,1.4c-1.72,1.76-.76,7.25,1.38,12.64l3.92.45Z"/><path class="cls-15" d="M194.18,60.34c-.79.47-1.91-1-2.88-2.06s-4.14-2.4-5.73.93,1.4,7.89,3.9,8.67c4.3,1.35,5-1.41,5-1.41l.31,16h0c3,3.81,9.67,8.3,13.26,7.66,2.88-.51,3.5-5.37.76-8.55V76.86a28.15,28.15,0,0,0,5.8.3c3.16-.49,5.15-3,6.11-6.41,1.54-5.51,2.13-10,.82-20.77-1.43-11.86-15.23-12-22.68-7.3S194.18,60.34,194.18,60.34Z"/><path class="cls-12" d="M194.18,61.67c-.39,0-1.9-2.5-2.88-3.39-1.36-1.24.39-12.43.39-12.43a5.44,5.44,0,0,1,.94-6c1.86-2,4.46-4.55,12.91-3.55,6,.71,12.57,2.59,17.87,0a9,9,0,0,1-3.14,9.57s-1.92,1.24-7,1.85a77,77,0,0,1-14-.26c-1.46-.2-1.77,1.21-2.56,5.08C196.09,55.88,195.51,61.64,194.18,61.67Z"/><path class="cls-12" d="M191.7,46.72l-4.76-2.56a2.62,2.62,0,0,1,3.49-1.25h0l.11.06A2.83,2.83,0,0,1,191.7,46.72Z"/><path class="cls-17" d="M208.74,76.86s-7.07-1.42-9.54-2.74a8.15,8.15,0,0,1-3.41-3.37,11.1,11.1,0,0,0,1.94,4c1.8,2.31,11,4,11,4Z"/><path class="cls-12" d="M207,58.57a1.42,1.42,0,0,1-2.84-.16h0a1.42,1.42,0,0,1,2.84.12h0Z"/><path class="cls-12" d="M205.54,53.23l-3,1.67a1.81,1.81,0,0,1,.7-2.41,1.68,1.68,0,0,1,2.28.7v0Z"/><path class="cls-17" d="M208.1,68.35l3.23,1.22a1.72,1.72,0,0,1-2.16,1.08h0A1.82,1.82,0,0,1,208.1,68.35Z"/><path class="cls-12" d="M219.66,54.41l-2.76-2.13a1.68,1.68,0,0,1,2.34-.42h.06a1.82,1.82,0,0,1,.36,2.55Z"/><path class="cls-12" d="M218.81,58.17a1.42,1.42,0,1,1-2.84-.1h0a1.42,1.42,0,0,1,2.84.1Z"/><polygon class="cls-17" points="211.6 56.83 212.06 65.34 216.51 63.83 211.6 56.83"/><path class="cls-2" d="M213.14,89.15c-.87,2.06-2.47,2.9-5.38,3.23a10.75,10.75,0,0,1-8-2.8L203.37,86,208,89.44l.39-3.85Z"/><path class="cls-3" d="M213.14,89.15c-.87,2.06-2.47,2.9-5.38,3.23a10.75,10.75,0,0,1-8-2.8L203.37,86,208,89.44l.39-3.85Z"/><path class="cls-2" d="M210.86,88.07a9.58,9.58,0,0,1,.48,3.87,6.64,6.64,0,0,1-1.29,3.22,3.58,3.58,0,0,1-3.12.34,8.6,8.6,0,0,1-3-6.46l4,.45Z"/><path class="cls-2" d="M210.05,95.07s4.7,26,4.89,28-2.7,9.54-4.49,9.6-5.31-6.67-5.37-8.57,1.85-28.73,1.85-28.73Z"/><path class="cls-3" d="M206.93,95.45a3.15,3.15,0,0,0,3.12-.34l.07.41a3.6,3.6,0,0,1-3.24.65Z"/><path class="cls-9" d="M207.92,89.44,194.67,79.35l-.06-3s-3.08,1.16-3.77,6.6a23.5,23.5,0,0,0,10.33,11L204,89Z"/><path class="cls-9" d="M208.74,77.73A6.56,6.56,0,0,1,213,80.36c1.32,2.18,1,10.54,1,10.54l-3.15-2.83-2.94,1.42c.28-2.79.83-7.86.83-7.86Z"/></g><g id="freepik--character-1--inject-123"><g id="freepik--Legs--inject-123"><path class="cls-12" d="M290.79,313.73c.53.71.63,2.33,1.16,4.52s.72,3.89.36,5a8.34,8.34,0,0,1-5.6,4.38,11.1,11.1,0,0,1-7.83-1.69c-3.44-2.06-4.79-3.63-12.64-4.2a18.59,18.59,0,0,1-11-4.55c-3-2.69-2.3-7.46,2.94-7.43,6.29,0,15.11,1.14,23.64,0Z"/><path class="cls-12" d="M321.21,303.86c.53.71.63,2.33,1.16,4.52s.72,3.89.36,5a8.34,8.34,0,0,1-5.6,4.38,11.1,11.1,0,0,1-7.83-1.69c-3.44-2.06-4.79-3.63-12.64-4.2a18.59,18.59,0,0,1-11-4.55c-3-2.69-2.3-7.46,2.94-7.43,6.29,0,15.11,1.14,23.64,0Z"/><path class="cls-18" d="M321.23,297.25V305s-1.06,2.56-5.45,2.72a6.66,6.66,0,0,1-5.83-2.78V297.3Z"/><path class="cls-6" d="M306.52,246.87c-.06,9.58,2.69,53.76,2.69,53.76s3.92,4.95,12.43,0l2.89-49Z"/><path class="cls-18" d="M292.33,307.31l-1.54,7.7s-1.06,2.56-5.45,2.72a6.59,6.59,0,0,1-5.82-2.79l.62-8.85Z"/><path class="cls-6" d="M283.58,260.07c-.81,4.42-4.11,48.72-4.11,48.72s4.35,6.06,12.86,1.1l9.07-43.23Z"/></g><path class="cls-7" d="M306.87,277.07v61.21a1.78,1.78,0,0,1-.81,1.4L303.87,341a1.84,1.84,0,0,1-1.62,0l-2.19-1.26a1.87,1.87,0,0,1-.81-1.41V277.07a2.76,2.76,0,0,1,2.75-2.76h2.12A2.76,2.76,0,0,1,306.87,277.07Z"/><path class="cls-12" d="M301.16,274.29h0a1.91,1.91,0,0,1,1.9,1.91v64.26c0,.51-.36.72-.81.47L300,339.65a1.76,1.76,0,0,1-.78-1.36V276.2a1.91,1.91,0,0,1,1.91-1.91h0Z"/><path class="cls-7" d="M380.49,277.07v61.21a1.79,1.79,0,0,0,.82,1.4l2.18,1.27a1.86,1.86,0,0,0,1.63,0l2.18-1.26a1.81,1.81,0,0,0,.81-1.41V277.07a2.76,2.76,0,0,0-2.75-2.76h-2.12A2.76,2.76,0,0,0,380.49,277.07Z"/><path class="cls-12" d="M386.21,274.29h0a1.92,1.92,0,0,0-1.91,1.91v64.26c0,.51.37.72.81.47l2.22-1.28a1.76,1.76,0,0,0,.78-1.36V276.2A1.91,1.91,0,0,0,386.21,274.29Z"/><path class="cls-7" d="M347.49,298.68v63a1.81,1.81,0,0,1-.81,1.41l-2.19,1.26a1.78,1.78,0,0,1-1.62,0l-2.19-1.26a1.81,1.81,0,0,1-.81-1.41v-63a.94.94,0,0,1,.94-.93h5.74A.93.93,0,0,1,347.49,298.68Z"/><path class="cls-12" d="M340.81,297.75h1.93a.93.93,0,0,1,.94.93v65.23c0,.52-.36.73-.81.47l-2.19-1.26a1.81,1.81,0,0,1-.81-1.41v-63a.94.94,0,0,1,.88-1h0Z"/><path class="cls-2" d="M294.4,278.52v.85a5.52,5.52,0,0,0,2,4l45.2,25.93a4.23,4.23,0,0,0,4.2.21l45.6-26.27a4.81,4.81,0,0,0,2.16-3.75v-.86a4.27,4.27,0,0,0-2.27-3.55l-45.57-26.31a5.42,5.42,0,0,0-4.44.2l-44.69,25.8A4.79,4.79,0,0,0,294.4,278.52Z"/><g class="cls-19"><path class="cls-4" d="M296.59,274.77,341.28,249a5.42,5.42,0,0,1,4.44-.2l45.57,26.3c1.25.58,1.3,1.61.11,2.3l-45.55,26.2a4.26,4.26,0,0,1-4.2-.22l-45.2-25.9a1.5,1.5,0,0,1-.61-2A1.44,1.44,0,0,1,296.59,274.77Z"/></g><g id="freepik--Character--inject-123"><polygon class="cls-2" points="302.97 178.85 272.99 194.49 287.89 235.22 315.86 219.55 302.97 178.85"/><polygon class="cls-16" points="301.59 182.83 276.44 195.96 289.63 230.97 313.1 217.83 301.59 182.83"/><path class="cls-20" d="M296.29,186.61l-.49-1.24c-.27-.69-2.36-.28-4.68.91l-4.42,2.29c-2.32,1.19-4,2.72-3.71,3.41l.49,1.24Z"/><path class="cls-6" d="M295.8,181.63c-.17-.43-1.08-.36-2,.16l-1.74.93S291,180,287,181.89s-3.08,5-3.08,5l-1.84,1c-1,.56-1.74,1.37-1.62,1.8l.22.8,15.45-8.06Z"/><path class="cls-12" d="M294.13,183.44c-1.43.7-2,1-1.58,2.1s.91,2.09.91,2.09l-6.83,3.57s-.57-1.54-.82-2.14-.75-.87-1.84-.31l-.4-.42,10.77-5.5Z"/><path class="cls-6" d="M296.58,186.68l-.49-1.25c-.27-.69-2.36-.28-4.67.92L287,188.63c-2.31,1.2-4,2.72-3.7,3.41l.49,1.25Z"/><path class="cls-12" d="M379.91,258.6s-39.71-12-46.61-13.87-20.15-5.07-24-3.34-5.83,3.75-6.19,9.33c-.07,1.05,0,6.16,0,6.16s19.19,5.94,34.92,5.94S379.91,258.6,379.91,258.6Z"/><polygon class="cls-18" points="346.39 191.1 346.1 205.57 360.05 210.18 361.96 190.51 346.39 191.1"/><path class="cls-21" d="M335.4,177.21s-3.07,5.37-2.57,5.84,3.09.83,3.09.83Z"/><path class="cls-18" d="M342.83,159.54c-3,2.08-6.23,5.93-7.47,17.13-1.35,12.28,1.59,16.23,3,17.25,2,1.52,10.13,1.27,13-.06,3.62-1.67,10.71-6.2,13.71-13,3.54-8,3.18-17.93-2.52-21.1C354.5,155.31,345.4,157.77,342.83,159.54Z"/><path class="cls-12" d="M337.72,164a21.33,21.33,0,0,0,5.72,4.63c1.39,2.2-.84,8.26,2.21,9.73,0,0,1.4-4.59,5.28-3.83s4.22,5.79,1.61,8.73-4.87,1.67-4.87,1.67a9,9,0,0,0,3.51,8.06,11.38,11.38,0,0,0,10.43,1.21c2.64-1,7.06-4.69,9.53-9.59,5.21-10.37,6.42-18.88-.21-22-.52-4.91-2.57-6.87-6.91-8.07-9.32-2.58-16.87,3.16-24.73,1.54C335.19,155.19,335.4,161.18,337.72,164Z"/><path class="cls-12" d="M364.06,159l4.83-2.07a2.63,2.63,0,0,0-5,1.66c0,.07.05.13.07.19Z"/><path class="cls-6" d="M378.58,254c0,7.63,1,15.86-2.21,21.45-3.07,5.41-16.61,16.68-32.84,14-10.6-1.79-44.86-14.84-44.86-14.84S283.51,269,283.44,265c0-1-.1-2,0-3,.32-5.31,2.47-11,13.56-10.73,12.12.32,48.08,6.21,48.08,6.21Z"/><path class="cls-11" d="M377.33,205.81c-1.31-4-6.71-9.61-11.77-8.67-9.29,1.73-19.45,4.74-22.15,5.53h0s1.21,20.48-9.3,26.68l-.37,36s.76,2.57,4.77,5.12c4.34,2.76,12.74,4,23.3,1.11,14.19-3.85,16.77-12,16.77-12s-.11-24.14,0-35.18C378.68,214.41,378.23,208.55,377.33,205.81Z"/><path class="cls-9" d="M334.06,234.16s5.27-5.46,7.21-12.07c0,0,.29,9.85-7.24,15.07Z"/><path class="cls-18" d="M343.4,202.67c-5.74,1.72-9.23,2-15.57,11.78s-20.68,28-22.05,30.35c-1.91,3.23-2.27,8.14-.62,11.11,1.54,2.78,5.24,1.14,11.53-4.37,6.08-5.34,18.91-20,18.91-20A103.73,103.73,0,0,0,343.4,202.67Z"/><path class="cls-11" d="M343.4,202.67a43.91,43.91,0,0,0-8.29,2.63,15,15,0,0,0-7.07,4.88c-5.15,6.88-11.79,18.51-11.79,18.51s1.18,9,12.27,12.2l5.45-6.64a33.16,33.16,0,0,0,5.88-8.76C342.4,220,345.21,211.29,343.4,202.67Z"/><path class="cls-18" d="M307.1,257.28c-5.31-.64-16.76-16.69-20.28-22.18a38.9,38.9,0,0,0-10.74-11.32c-5.61-4.15-4.8-10.53-2.35-16.37.85-2,3.73-.71,3.73-.71l1,2.78,1.76,4.8c1.19,1.1,1.86,1.46,1.94,1.13.15-.62-.87-3.2-.84-5.89,0-3.24,2.29-1.11,3,0a38.14,38.14,0,0,1,2.39,5.34c1.13,2.9.67,5.83,2,7.81s19.86,19.68,19.86,19.68Z"/></g><path class="cls-12" d="M355.4,258.66V299a.9.9,0,0,0,.4.71l1.1.63a.89.89,0,0,0,.81,0l1.09-.63a.9.9,0,0,0,.41-.71V258.66a1.38,1.38,0,0,0-1.38-1.38h-1.06a1.37,1.37,0,0,0-1.37,1.37Z"/><path class="cls-7" d="M358.28,257.28h0a1,1,0,0,0-1,1v41.79c0,.26.19.37.41.24l1.11-.64a.91.91,0,0,0,.39-.68v-40.8A1,1,0,0,0,358.28,257.28Z"/><path class="cls-12" d="M375.73,247.17v40.35a.9.9,0,0,0,.4.71l1.1.63a.89.89,0,0,0,.81,0l1.09-.63a.92.92,0,0,0,.41-.71V247.17a1.38,1.38,0,0,0-1.38-1.38H377.1a1.37,1.37,0,0,0-1.37,1.37Z"/><path class="cls-7" d="M378.58,245.79h0a1,1,0,0,0-.95,1v41.88c0,.26.19.37.41.24l1.11-.64a.91.91,0,0,0,.39-.68v-40.8A1,1,0,0,0,378.58,245.79Z"/><path class="cls-2" d="M387.79,213.54a5.21,5.21,0,0,0-4.3-.13L347.4,230.07a3.94,3.94,0,0,0-1.59,1.44l-.17.28c-.08.16-.16.32-.23.49a3.61,3.61,0,0,0-.28,1.34v26.72a4.69,4.69,0,0,0,2,3.68,5.37,5.37,0,0,0,4.07.21.92.92,0,0,0,.23-.09l1.79-.83,34.29-15.84a4.25,4.25,0,0,0,2.27-3.54V217.21A4.65,4.65,0,0,0,387.79,213.54Z"/><path class="cls-8" d="M389.82,217.21a1.49,1.49,0,0,0-1.26-1.68,1.41,1.41,0,0,0-1,.23l-36.08,16.66a4,4,0,0,0-1.59,1.45l-4.06-2.35a4,4,0,0,1,1.58-1.45l36.08-16.67a5.21,5.21,0,0,1,4.3.13A4.62,4.62,0,0,1,389.82,217.21Z"/><path class="cls-3" d="M351.24,264.24a5.37,5.37,0,0,1-4.07-.21,4.69,4.69,0,0,1-2-3.68V233.63a3.61,3.61,0,0,1,.28-1.34c.07-.17.15-.33.23-.49l.17-.28,4.06,2.35a4,4,0,0,0-.68,2.1V262.7a1.43,1.43,0,0,0,1.21,1.63h0A1.61,1.61,0,0,0,351.24,264.24Z"/></g></g></g></g></g></svg>