<svg id="Layer_1" data-name="Layer 1" xmlns="http://www.w3.org/2000/svg" viewBox="0 0 134.78 273.83"><defs><style>.cls-1{fill:#e9e9e9;}.cls-2{fill:#263238;}.cls-3{fill:#37474f;}.cls-4{fill:#455a64;}.cls-5{fill:#ffa8a7;}.cls-6{fill:#f567b0;}.cls-7{opacity:0.2;isolation:isolate;}.cls-8{fill:#f0f0f0;}.cls-9{fill:#fafafa;}.cls-10{fill:#e6e6e6;}.cls-11{opacity:0.1;}.cls-12{fill:#e0e0e0;}.cls-13{fill:#f28f8f;}.cls-14{fill:#ebebeb;}</style></defs><g id="Layer_2" data-name="Layer 2"><g id="Layer_1-2" data-name="Layer 1-2"><g id="Layer_2-2" data-name="Layer 2-2"><g id="Layer_1-2-2" data-name="Layer 1-2-2"><ellipse class="cls-1" cx="63.56" cy="253.83" rx="63.56" ry="20"/><g id="freepik--Character--inject-509"><g id="freepik--character--inject-509-2"><g id="freepik--Bottom--inject-509"><path class="cls-2" d="M35.48,236.46a10.05,10.05,0,0,0-.87,4.62,23.16,23.16,0,0,1,.49,6.38c-.34,3.14-1,4.14-1.31,6.37a8.34,8.34,0,0,0,1.12,5.93c1.21,2.11,3.87,3.8,9.1,3.59,4.23-.15,5.94-2.52,6-5.15Z"/><path class="cls-3" d="M36.72,229.92a10.86,10.86,0,0,0-.26,1.71c-.15,1.07-.45,2.08-.69,3.13a4,4,0,0,1-.18.83,38.47,38.47,0,0,0,0,6.44,39,39,0,0,1-1.23,7.51c-1,4.46-1.09,7.45,2.5,10.55a9.23,9.23,0,0,0,6.33,1.72,9.42,9.42,0,0,0,5.3-1.4c1.59-1.23,1.59-2.26,1.59-2.68.14-4.74-1.43-10.31-1.76-15a24.49,24.49,0,0,1,0-3.83c.16-1.58.65-3.13.81-4.72a3,3,0,0,0-.19-1.72,2.53,2.53,0,0,0-1.95-1c-1.92-.27-3.85-.48-5.76-.63a1.66,1.66,0,0,0-1.31.29c-.38.36-.38,1-.48,1.51s-.47,1.14-1,1a.91.91,0,0,1-.58-.79c0-.36-.17-3.11-.17-3.44C37.62,229.57,36.91,229.45,36.72,229.92Z"/><path class="cls-2" d="M100.34,245.65a3.93,3.93,0,0,1,0,2.62c-.31.77-3.89,3.17-8.84,3a19.48,19.48,0,0,1-10.37-3.44,11.14,11.14,0,0,0-6.33-1.48c-2.45,0-5.34-1-6.16-2.21a6.83,6.83,0,0,1,0-3.59Z"/><path class="cls-3" d="M82.43,229.76a10.32,10.32,0,0,1,.5,1.19,9.41,9.41,0,0,0,2.73,3.69,28.27,28.27,0,0,0,5.47,3.2c1.22.6,2.5.75,3.74,1.23a19.32,19.32,0,0,1,4,1.91,4.06,4.06,0,0,1,1.13,5.33,3.56,3.56,0,0,1-.91,1.06,16.14,16.14,0,0,1-12.15,1.45c-2.9-.74-6.21-3.94-10-4.09-2.41-.11-7-.62-8.58-2.53-.59-2.85,0-3.66.6-6.08A21.2,21.2,0,0,0,69.4,232c0-.74-.44-2.85,1-3.11l.15,1.58s.27.53,1.74.83c.49.08.87.77,1.12,1.39s.41,1.1.9,1.08a.93.93,0,0,0,.75-.62q.15-.51.27-1.05a3.91,3.91,0,0,1,2.24-2.4,10.79,10.79,0,0,1,2.63-.6c.68-.12,1.24-.43,1.84.19A2.5,2.5,0,0,1,82.43,229.76Z"/><path class="cls-4" d="M44.82,108.16c-1.83,19.44-2.56,28.66-4.9,67.43a119.63,119.63,0,0,0-3.6,22.33c-.5,9.42-1.72,37.8-1.72,37.8s7,6.24,15.06,3.35c0,0,7.32-41.66,9.86-54.67,2.46-12.47,4.94-28.16,4.94-28.16l1.1,19.28s-.32,7.73-.1,19.29c.13,6.19,2.86,39.66,2.86,39.66s9.8,4.83,16.42-1.38c0,0,.49-54.27.58-59.86.11-6.39-.9-70.62-.9-70.62Z"/><path class="cls-2" d="M64.42,156.13l4.4-26.46s7.74-.72,12-5.41c0,0-.77,4.59-10.5,7.36l-4,22.08-.83,21.82Z"/><path class="cls-3" d="M34.77,230.5a15.08,15.08,0,0,0,10.75,4.21,19.8,19.8,0,0,1-10.69-5.86Z"/><path class="cls-3" d="M68,230.59s6.82,2.59,12.66.61c0,0-4.46,3.25-12.5.57Z"/></g><g id="freepik--Top--inject-509"><path class="cls-5" d="M116.46,74.14a157.52,157.52,0,0,1-17.67,10c-2-4.64-4.29-11.39-7.21-18.26-4.45-10.5-6.07-14.42-13.32-15.47a132.55,132.55,0,0,0,.34,13.37c.23,3.33,1.88,13.11,1.88,13.11s7,16,11.81,21.3c3.16,3.44,6.33,1.86,8.28.66,8.32-5.16,19.35-17.55,20.93-20.28Z"/><path class="cls-6" d="M78.6,50.09c4.3,1,6.74,1.71,9.49,7.42S98.63,82.42,98.63,82.42L88.12,92.73,78.63,74.52Z"/><path class="cls-7" d="M78.6,50.09c4.3,1,6.74,1.71,9.49,7.42S98.63,82.42,98.63,82.42L88.12,92.73,78.63,74.52Z"/><path class="cls-8" d="M100.34,83.3c-2.28,1.44-9.21,8.59-9.3,13.23l.46.6s-.43,1.34-1.9,0a22.91,22.91,0,0,1-3.82-6.46c-.3-.94.37-4.16,3.52-7A16.34,16.34,0,0,1,98,79.48C99.05,79.61,100.34,83.3,100.34,83.3Z"/><path class="cls-9" d="M126.57,46.86A2.74,2.74,0,0,1,128,44.78c1.41-1,3.17-1.72,3.93-4.3l1.75,1.29-3.35,5.4Z"/><path class="cls-9" d="M126.57,46.86s-1.95-1.24-6.33-.59a52.44,52.44,0,0,1-16.53.83l2.09,1.54,22,.24Z"/><polygon class="cls-10" points="103.65 47.1 94.09 73.87 96.2 75.4 105.74 48.64 103.65 47.1"/><g class="cls-11"><path d="M131.87,41.94a5,5,0,0,1-1,1.48,13,13,0,0,1-1.33,1.13,10.76,10.76,0,0,0-1.31,1.12,3.43,3.43,0,0,0-.47.72,1.56,1.56,0,0,0-.21.79h-.27a2,2,0,0,1,.27-.93,4,4,0,0,1,.54-.75,9,9,0,0,1,1.38-1.08,17.27,17.27,0,0,0,1.36-1.07A4.65,4.65,0,0,0,131.87,41.94Z"/><path d="M131.35,43.45a4.87,4.87,0,0,1-.73.9l-.82.8a6.49,6.49,0,0,0-.71.86,2.6,2.6,0,0,0-.42,1h-.26a2.51,2.51,0,0,1,.52-1.09,4.61,4.61,0,0,1,.79-.86c.27-.26.57-.5.85-.74A5.39,5.39,0,0,0,131.35,43.45Z"/><path d="M112.06,47.94a30.85,30.85,0,0,0,3.6-.31c1.21-.17,2.39-.4,3.58-.62a15.77,15.77,0,0,1,3.63-.24,13.91,13.91,0,0,1,1.82.22,3.87,3.87,0,0,1,.88.26,2.33,2.33,0,0,1,.83.52l-.19.2a2.11,2.11,0,0,0-.72-.46,3.63,3.63,0,0,0-.85-.26,13.54,13.54,0,0,0-1.79-.26,15.43,15.43,0,0,0-3.59.18c-1.19.18-2.38.39-3.58.53A31.29,31.29,0,0,1,112.06,47.94Z"/><path d="M117.86,48.25a16.79,16.79,0,0,0,2-.24c.68-.09,1.36-.17,2-.23a11.81,11.81,0,0,1,2.06,0,5.35,5.35,0,0,1,2,.57l-.13.26A4.94,4.94,0,0,0,124,48a13.35,13.35,0,0,0-2,0l-2,.15C119.21,48.14,118.54,48.21,117.86,48.25Z"/></g><polygon class="cls-4" points="133.74 40.4 129.7 46.8 119.46 75.5 120.51 76.25 124.64 68.35 134.78 41.15 133.74 40.4"/><polygon class="cls-3" points="130.76 47.58 134.78 41.15 124.64 68.35 120.51 76.25 130.76 47.58"/><polygon class="cls-4" points="125.97 48.8 104.28 48.69 94.04 77.37 95.09 78.14 116.77 78.25 127.03 49.55 125.97 48.8"/><polygon class="cls-3" points="105.34 49.45 95.09 78.14 116.77 78.25 127.03 49.55 105.34 49.45"/><polygon class="cls-2" points="104.28 48.69 105.34 49.45 95.09 78.14 94.04 77.37 104.28 48.69"/><path class="cls-2" d="M127,49.55l3.73-2-10.22,28.7a3.29,3.29,0,0,1-3.74,2Z"/><path class="cls-6" d="M129.59,46.65a3.16,3.16,0,0,0-3,.14c-1,.55-1.24,1.46-.6,1.94l1.36.08,2.55-1.13a.65.65,0,0,0,0-.85.38.38,0,0,0-.13-.09Z"/><path class="cls-4" d="M129.72,46.8c-.29,1.12-1.58,1.72-3.75,2l1.06.75a4.26,4.26,0,0,0,3.73-2Z"/><path class="cls-5" d="M121.5,78.44c4-4.35,4.86-11.88,3.77-14.64-.71-1.86-5.79-1.84-7.44,4.24-1.06,3.94-4.13,4.55-5.06,6.38s-.59,3.31-1.58,4Z"/><path class="cls-6" d="M43.9,111.94a12.51,12.51,0,0,0,.11,4.4c.54.89,10.45,3.76,23.33,2.37s16.78-5,17.24-5.87a9,9,0,0,0,0-4.78Z"/><path class="cls-7" d="M43.9,111.94a12.51,12.51,0,0,0,.11,4.4c.54.89,10.45,3.76,23.33,2.37s16.78-5,17.24-5.87a9,9,0,0,0,0-4.78Z"/><path class="cls-6" d="M84.91,66.72c-1.74-13.75-1.83-17-11.2-17.44l-13.92-1c-3,.85-12.28,3.27-16.33,4.58S39.36,64,40.29,70.55s2.93,11.51,3.49,22.51c-.16,10.39-2.6,15.88-.24,18.64,8.66,6,32.05,4,41.15-2,2-1,0-8.94.14-15.35C85.21,83.39,85.43,70.83,84.91,66.72Z"/><path class="cls-9" d="M70.4,48.93s4.75,4.71,3.16,9.13-8.5,5.15-13.89,1S54.76,50,54.76,50l2-.68a7.88,7.88,0,0,0,1.1,3c.86,1.1,10.85,5.65,11.08,7,0,0,1.59-3.19,2-4.41s-1.75-6.1-1.75-6.1Z"/><path class="cls-4" d="M81.79,11.19A7,7,0,0,0,82,9.91a5.52,5.52,0,0,0-1.47-4.22,3.13,3.13,0,0,0-4-.42A5.05,5.05,0,0,0,72.41,0a9,9,0,0,0-4.5,1.72,56,56,0,0,1-6.85,2.7,17.61,17.61,0,0,0-6.43,3.66,9,9,0,0,0-2.81,7,6.28,6.28,0,0,0-3,5.5c-.14,3.43,1.33,6.61,2.5,9.67,0,0,3,7.8,3.73,9.33s1.44,3.27,1.44,3.27l-.28-5.62a21.14,21.14,0,0,0,6-1.17,40.49,40.49,0,0,0,5.6-2.87,68.12,68.12,0,0,0,10-7.82A11.68,11.68,0,0,0,81.73,20a6.58,6.58,0,0,0-1.14-5.67A12.2,12.2,0,0,0,81.79,11.19Z"/><path class="cls-12" d="M59.92,20.55a13.75,13.75,0,0,1-10.29-2.23A13.25,13.25,0,0,0,59.7,21.39Z"/><path class="cls-12" d="M60.74,18.11a11.55,11.55,0,0,1-4.84.72,18.14,18.14,0,0,1-4.83-1,13,13,0,0,0,9.5,2,.78.78,0,0,0,.52-.23.75.75,0,0,0,.13-.58A2.87,2.87,0,0,0,61,18.4"/><path class="cls-12" d="M60.78,17.53a23,23,0,0,1-5.37,0,19.13,19.13,0,0,0,5.25-1l-.12-1.24a17.64,17.64,0,0,1-8.72-.24A11.34,11.34,0,0,0,56,16.55a9.94,9.94,0,0,1-5.61-.36C54.46,19.16,60.78,17.53,60.78,17.53Z"/><path class="cls-5" d="M60.54,15.28a11.26,11.26,0,0,1-3.48,7.86A21.34,21.34,0,0,1,57.21,30a3.91,3.91,0,0,1-.47,1.37,1.63,1.63,0,0,1-1.11.76c-.6,0-.85-.36-1-.86a20,20,0,0,0-.92-1.93,3.54,3.54,0,0,0-.54-.73,2.82,2.82,0,0,0-4-.36l0,0-.25.24a3.24,3.24,0,0,0-.71,1.18A7.07,7.07,0,0,0,51.52,38c3.79,1.13,4.6-1.72,4.6-1.72L56.85,51c2.06,2.34,9.88,5.55,12.11,8.3,1-1.87,3.89-6.49.09-9.11V45.41a29.13,29.13,0,0,0,6.12-.32,6,6,0,0,0,4.24-5.59,61.74,61.74,0,0,0,0-18.9,10.89,10.89,0,0,0-3.7-7c0,.83-.58,2.84-4.41,3.44A19.11,19.11,0,0,1,60.54,15.28Z"/><path class="cls-13" d="M69,45.41a19.81,19.81,0,0,1-7.92-2A7.74,7.74,0,0,1,58,40.33,11.12,11.12,0,0,0,59.76,44c1.59,2.13,9.29,3.31,9.29,3.31Z"/><path class="cls-2" d="M67.33,28.54a1.23,1.23,0,0,1-1.07,1.34h0A1.22,1.22,0,0,1,65,28.71h0a1.26,1.26,0,0,1,1.1-1.4,1.23,1.23,0,0,1,1.29,1.17h0A.09.09,0,0,1,67.33,28.54Z"/><path class="cls-2" d="M66.19,22.34l-2.9,1a1.75,1.75,0,0,1,1.05-2.1,1.47,1.47,0,0,1,1.81,1h0v.08Z"/><path class="cls-13" d="M66.71,37,71,38.54a2.2,2.2,0,0,1-2.62,1.67h-.2A2.6,2.6,0,0,1,66.71,37Z"/><path class="cls-2" d="M78.6,22.89l-2.93-.43a1.44,1.44,0,0,1,1.51-1.36h0A1.69,1.69,0,0,1,78.6,22.89Z"/><path class="cls-3" d="M60.54,24l-9.69,3.6a3.5,3.5,0,0,1,2.74,1.57l6.92-2.85Z"/><path class="cls-2" d="M78,28.06a1.27,1.27,0,0,1-1.13,1.34,1.23,1.23,0,0,1-1.2-1.24h0a1.27,1.27,0,0,1,1-1.41A1.21,1.21,0,0,1,78,27.81h0a1.41,1.41,0,0,1,0,.29Z"/><path class="cls-3" d="M82.81,23.49h-.64a17.3,17.3,0,0,0-6.33.36c-2,.72-2.75,1.49-3.87,1.51s-2-.72-4.09-1.36a19.43,19.43,0,0,0-6.76-.08l-.68.1a1.23,1.23,0,0,0-.77,1.26,2.78,2.78,0,0,0,.63,1.42,2,2,0,0,1,.21.59,24.76,24.76,0,0,0,.76,4,5.13,5.13,0,0,0,.83,1.41,3,3,0,0,0,.45.42l.24.18a3,3,0,0,0,.76.38h.53a3.75,3.75,0,0,0,.67.11h.65a4.74,4.74,0,0,0,4.75-3.06C70.86,29.16,70.71,27,72,27h.23c.94.22.8,2.18,1.37,3.57a5.69,5.69,0,0,0,.88,1.53l.21.23.11.12.12.1.12.09.11.08h.09a3.23,3.23,0,0,0,1.11.48h.13a4.33,4.33,0,0,0,1.34.12,4.07,4.07,0,0,0,4-2.83,28.8,28.8,0,0,0,.87-4A1.51,1.51,0,0,1,82.9,26a3,3,0,0,0,.62-1.48A1.06,1.06,0,0,0,82.81,23.49Zm-13.39,6a5,5,0,0,1-1,2.13h0a3.76,3.76,0,0,1-3,1.25,3.08,3.08,0,0,1-2.88-1.48l-.09-.13a.43.43,0,0,1,0-.16l-.12-.1v-.23a.11.11,0,0,1,0-.08.43.43,0,0,1,0-.16h0L62.18,30h0v-.25l-.09-.43v-.16c-.19-1.05-.41-3.11.08-3.59A5,5,0,0,1,66,24.79h.22a3.08,3.08,0,0,1,1,.16l.37.1a5.63,5.63,0,0,1,.9.31l.28.12.31.16h.11a1.78,1.78,0,0,1,.61.55,5.28,5.28,0,0,1-.38,3.28Zm12.06-.69a4.83,4.83,0,0,1-2,3.44,3.54,3.54,0,0,1-1.59.41,3.17,3.17,0,0,1-3.07-1.53h0a.24.24,0,0,0,0-.12h0a.49.49,0,0,0,0-.17.64.64,0,0,0-.08-.19.17.17,0,0,0,0-.1h0a5.32,5.32,0,0,1-.18-.79,5.56,5.56,0,0,1,.12-3.18,5.63,5.63,0,0,1,3.4-1.72l1-.1H80l.48.08h.45l.23.09h0a1.43,1.43,0,0,1,.5.34c.41.33.13,2.41-.09,3.47Z"/><path class="cls-13" d="M71.36,27.37,71.82,36l4.23-1a19.9,19.9,0,0,0-4-7.76A.88.88,0,0,0,71.36,27.37Z"/><path class="cls-14" d="M69,59.26c-1.58-1-4.59-3.25-6.1-1.13s-2.58,4.55-3.68,4.21A18.54,18.54,0,0,1,52.93,55,9.75,9.75,0,0,1,52,50.46l2.6-3.72c.77-1.1,1-1.24,2-1.33l.14,2.94a5.54,5.54,0,0,0,2.08,3.59C61.54,54,67,54.57,69,59.26Z"/><path class="cls-14" d="M69,59.26c.92-.91,2.25-3.21,3.73-2.75s3,3.63,3,2.75a28.88,28.88,0,0,0-2.62-8A9.49,9.49,0,0,0,69,47.46l.09,2.69s1.78,2.44,1.59,3.91S69.15,57.84,69,59.26Z"/><path class="cls-5" d="M38.16,113.83c.65,5.5.93,8.4,2.25,10.71a19.29,19.29,0,0,0,2.35,3.19q2,2.7,3.75,5.6c1.14,1.72,2.22,2.19,2,2.63a2.08,2.08,0,0,1-2.85.73h0a10.89,10.89,0,0,1-2.53-2,30.92,30.92,0,0,0,2.91,7.7C48.65,147,47.7,149,41.4,148.2c-3.94-.48-7.42-5.16-10.46-14.68a150.22,150.22,0,0,1-4.59-16.94A112,112,0,0,1,24,95.21c0-3.06,2.42-15.09,5.87-27.49C33.08,56,38.09,54.23,43.56,53.21a38,38,0,0,1,2,20.21L37.64,96.13S37.46,107.87,38.16,113.83Z"/><path class="cls-6" d="M43.46,52.84c-2.88.36-8.21,1.71-11.08,6.58S26.24,80,25,85a48,48,0,0,0-1.1,10.89s4.65,3.11,13.61.85c1.33-4.59,5.25-14.35,8.86-23.25C46.4,73.49,48.53,57.82,43.46,52.84Z"/><path class="cls-7" d="M43.46,52.84c-2.88.36-8.21,1.71-11.08,6.58S26.24,80,25,85a48,48,0,0,0-1.1,10.89s4.65,3.11,13.61.85c1.33-4.59,5.25-14.35,8.86-23.25C46.4,73.49,48.53,57.82,43.46,52.84Z"/><path class="cls-8" d="M38.27,94.55c.52.35.77,1,.46,2.48s.12,5-.54,5.65-3.36,1.36-7.22,1c-4.32-.44-7.78-2.71-8.35-5a25.45,25.45,0,0,1,.39-9c.46-2,1.47-1.72,1.47-1.72l-.23,2a10,10,0,0,0,5.85,4.5,24,24,0,0,0,7.66,1.6Z"/></g></g></g></g></g></g></g></svg>