<svg xmlns="http://www.w3.org/2000/svg" viewBox="0 0 312.15 315.48"><defs><style>.cls-1{fill:#ebebeb;}.cls-2{fill:#f5f5f5;}.cls-24,.cls-25,.cls-26,.cls-3,.cls-6,.cls-7{fill:#fff;}.cls-22,.cls-29,.cls-3{opacity:0.5;}.cls-10,.cls-20,.cls-21,.cls-22,.cls-23,.cls-24,.cls-25,.cls-26,.cls-27,.cls-29,.cls-3,.cls-30,.cls-31,.cls-6,.cls-8,.cls-9{isolation:isolate;}.cls-29,.cls-4{fill:#e0e0e0;}.cls-5{fill:#f567b0;}.cls-6,.cls-9{opacity:0.3;}.cls-8{opacity:0.05;}.cls-10{opacity:0.15;}.cls-11,.cls-27{fill:#263238;}.cls-12{fill:#37474f;}.cls-13{fill:#fafafa;}.cls-14{fill:#f0f0f0;}.cls-15{fill:#455a64;}.cls-16{fill:#ffbda7;}.cls-17{fill:#f0997a;}.cls-18{fill:#b16668;}.cls-19{fill:#f28f8f;}.cls-20,.cls-24{opacity:0.1;}.cls-21{opacity:0.7;}.cls-23,.cls-26,.cls-28{opacity:0.6;}.cls-25{opacity:0.8;}.cls-27{opacity:0.79;}.cls-30{opacity:0.2;}.cls-31{opacity:0.4;}.cls-32{fill:#ffa8a7;}</style></defs><g id="Layer_2" data-name="Layer 2"><g id="Layer_1-2" data-name="Layer 1"><g id="freepik--Shadows--inject-1--inject-365"><path class="cls-1" d="M115.08,294.94c22.66,10.8,59.39,10.8,82,0s22.66-28.3,0-39.1-59.38-10.8-82,0S92.38,284.15,115.08,294.94Z"/><path class="cls-1" d="M311.24,268.21l-81,46.75a4.79,4.79,0,0,1-4.33,0L124.66,256.48a1.33,1.33,0,0,1-.83-1.68,1.35,1.35,0,0,1,.83-.82l81-46.75a4.79,4.79,0,0,1,4.33,0l101.28,58.48a1.32,1.32,0,0,1,.81,1.68A1.34,1.34,0,0,1,311.24,268.21Z"/></g><g id="freepik--Pencil--inject-1--inject-365"><path class="cls-2" d="M303.13,88.69v17.8s-7.14,3.43-20.23,3.43-20.23-3.44-20.23-3.44V89.07l13.66-39.6c-.19,1.25.53,2.49,2.13,3.47a8.22,8.22,0,0,0,7.88.5,8,8,0,0,0,1-.5c1.7-1,2.43-2.38,2.09-3.69Z"/><path class="cls-3" d="M303.13,88.69v17.8s-7.14,3.43-20.23,3.43-20.23-3.44-20.23-3.44V89.07l13.66-39.6c-.19,1.25.53,2.49,2.13,3.47a8.22,8.22,0,0,0,7.88.5,8,8,0,0,0,1-.5c1.7-1,2.43-2.38,2.09-3.69Z"/><path class="cls-2" d="M301.56,213.46a13.84,13.84,0,0,1-4.36,3.85c-7.92,4.68-20.74,4.68-28.65,0a13.73,13.73,0,0,1-4.36-3.85,8.06,8.06,0,0,1-1.56-4.28v9.24c.15,3,2.11,5.88,5.92,8.13,7.91,4.68,20.73,4.68,28.65,0,3.94-2.33,5.93-5.4,5.93-8.47v-9.23A8,8,0,0,1,301.56,213.46Z"/><path class="cls-1" d="M301.56,204.22a14.09,14.09,0,0,1-4.36,3.85c-.47.27-.95.53-1.44.77-7.47,3.64-18.31,3.64-25.76,0-.5-.24-1-.5-1.45-.77a14,14,0,0,1-4.36-3.85,8.06,8.06,0,0,1-1.56-4.28v9.24a8.06,8.06,0,0,0,1.56,4.28,13.73,13.73,0,0,0,4.36,3.85c7.91,4.68,20.73,4.68,28.65,0a13.84,13.84,0,0,0,4.36-3.85,8,8,0,0,0,1.57-4.61V199.6A8,8,0,0,1,301.56,204.22Z"/><path class="cls-2" d="M301.56,195a14.09,14.09,0,0,1-4.36,3.85c-.47.27-.95.52-1.44.77-7.47,3.65-18.31,3.65-25.76,0-.5-.25-1-.5-1.45-.77a14,14,0,0,1-4.36-3.85,8.09,8.09,0,0,1-1.56-4.28v9.24a8.06,8.06,0,0,0,1.56,4.28,14,14,0,0,0,4.36,3.85c.47.27.95.53,1.45.77,7.45,3.64,18.29,3.64,25.76,0,.49-.24,1-.5,1.44-.77a14.09,14.09,0,0,0,4.36-3.85,8,8,0,0,0,1.57-4.62v-9.24A8,8,0,0,1,301.56,195Z"/><path class="cls-2" d="M262.63,89V190.7a8.09,8.09,0,0,0,1.56,4.28,14,14,0,0,0,4.36,3.85c.47.27.95.52,1.45.77a26,26,0,0,0,6.13,2.05L272.46,94.51Z"/><path class="cls-2" d="M293.29,94.51l-3.67,107.14a26.31,26.31,0,0,0,6.13-2.05c.49-.25,1-.5,1.44-.77a14,14,0,0,0,4.36-3.85,8,8,0,0,0,1.57-4.62V88.69Z"/><path class="cls-4" d="M262.63,89V190.7a8.09,8.09,0,0,0,1.56,4.28,14,14,0,0,0,4.36,3.85c.47.27.95.52,1.45.77a26,26,0,0,0,6.13,2.05L272.46,94.51Z"/><path class="cls-4" d="M293.29,94.51l-3.67,107.14a26.31,26.31,0,0,0,6.13-2.05c.49-.25,1-.5,1.44-.77a14,14,0,0,0,4.36-3.85,8,8,0,0,0,1.57-4.62V88.69Z"/><path class="cls-1" d="M272.46,94.51V200.63a29.41,29.41,0,0,0,3.67,1,33.25,33.25,0,0,0,6.75.69h0a34.72,34.72,0,0,0,6.74-.69,28.94,28.94,0,0,0,3.67-1V94.51Z"/><path class="cls-4" d="M287.33,52.9a8,8,0,0,1-1,.5,8.22,8.22,0,0,1-7.88-.5c-1.62-.95-2.32-2.23-2.13-3.47L281,36.06a2,2,0,0,1,1.92-1.31h0a2.05,2.05,0,0,1,1.92,1.31l4.61,13.13h0C289.73,50.5,289,51.89,287.33,52.9Z"/><path class="cls-4" d="M297.2,226.55c-6.8,4-17.22,4.58-25,1.66-.43-.15-.86-.33-1.28-.52l-.59-.25c-.6-.28-1.18-.59-1.74-.91-3.81-2.26-5.77-5.18-5.92-8.13v25.18c-.14,3.18,1.82,6.39,5.92,8.81.49.29,1,.57,1.53.83.19.1.4.18.59.27s.68.31,1,.44l.81.29c.27.09.58.21.88.3s.66.2,1,.29.51.15.77.2.77.18,1.16.25a3.78,3.78,0,0,1,.65.14c.44.08.89.14,1.33.2l.53.08c.49.06,1,.1,1.48.13h.39c.54,0,1.08.06,1.61.07h2.14c.61,0,1.23-.08,1.84-.14h0a27.26,27.26,0,0,0,10.34-3h0c.17-.1.36-.18.54-.29,4-2.34,5.93-5.41,5.93-8.47V218.08C303.13,221.15,301.14,224.22,297.2,226.55Z"/></g><g id="freepik--Plants--inject-55"><g id="freepik--plants--inject-55-2" data-name="freepik--plants--inject-55"><path class="cls-5" d="M87.48,128.79a30.72,30.72,0,0,0-.3-13.66c-1.13-4.89-4-9.08-7.25-9.63a3,3,0,0,0-3,1.24c-.93,2.08.77,4,1.57,4.92.58.7,6.08,5.72,6.54,13.35l.28,4.57a.28.28,0,0,0,.43.23Z"/><path class="cls-6" d="M87.48,128.79a30.72,30.72,0,0,0-.3-13.66c-1.13-4.89-4-9.08-7.25-9.63a3,3,0,0,0-3,1.24c-.93,2.08.77,4,1.57,4.92.58.7,6.08,5.72,6.54,13.35l.28,4.57a.28.28,0,0,0,.43.23Z"/><path class="cls-7" d="M86.57,127.08a.21.21,0,0,1-.1-.18c.2-9.72-2.87-15.79-7.29-19.23a.2.2,0,0,1,0-.25.12.12,0,0,1,.15-.07l0,0c4.48,3.48,7.63,9.69,7.42,19.54a.16.16,0,0,1-.14.18Z"/><path class="cls-5" d="M85.72,129.81c-.49.32-.75-.34-1-1.1a14,14,0,0,0-3.12-5.49c-1.82-2.12-5-4.08-5.31-5.84-.32-1.6,1.06-2.83,3.52-2,3,1,6.93,4.34,6.79,13.89Z"/><path class="cls-7" d="M85.93,128.59a.16.16,0,0,1-.11-.14c-1.39-7.36-5.79-11-7.82-11.74a.2.2,0,0,1-.11-.22.14.14,0,0,1,.18-.12c2.25.8,6.61,4.5,8,12a.18.18,0,0,1-.12.21Z"/></g></g><g id="freepik--Device--inject-55"><g id="freepik--Mobile--inject-55"><path class="cls-5" d="M121.87,28.65,86.24,47.8a3.29,3.29,0,0,0-1.79,2.77v77.11a3.64,3.64,0,0,0,1.68,3,4.24,4.24,0,0,0,3.59-.13l35.51-19.08a3.93,3.93,0,0,0,1.91-3.08V31.48a3.71,3.71,0,0,0-1.68-3A4.2,4.2,0,0,0,121.87,28.65Z"/><path class="cls-8" d="M121.87,28.65,86.24,47.8a3.29,3.29,0,0,0-1.79,2.77v77.11a3.64,3.64,0,0,0,1.68,3,4.24,4.24,0,0,0,3.59-.13l35.51-19.08a3.93,3.93,0,0,0,1.91-3.08V31.48a3.71,3.71,0,0,0-1.68-3A4.2,4.2,0,0,0,121.87,28.65Z"/><path class="cls-5" d="M89.26,130.72a4.2,4.2,0,0,1-3.13-.08,3.64,3.64,0,0,1-1.68-3V50.57A3.13,3.13,0,0,1,84.93,49L88,50.67a3.33,3.33,0,0,0-.88,2.07v76.4A1.49,1.49,0,0,0,89.26,130.72Z"/><path class="cls-9" d="M89.26,130.72a4.2,4.2,0,0,1-3.13-.08,3.64,3.64,0,0,1-1.68-3V50.57A3.13,3.13,0,0,1,84.93,49L88,50.67a3.33,3.33,0,0,0-.88,2.07v76.4A1.49,1.49,0,0,0,89.26,130.72Z"/><path class="cls-5" d="M88.81,50a3.45,3.45,0,0,0-1.69,2.71v76.4c0,1.53,1.17,2.17,2.6,1.39l35.51-19.09a3.89,3.89,0,0,0,1.91-3.08V31.48c0-1.13-.86-1.59-1.91-1Z"/><path class="cls-10" d="M88.81,50a3.45,3.45,0,0,0-1.69,2.71v76.4c0,1.53,1.17,2.17,2.6,1.39l35.51-19.09a3.89,3.89,0,0,0,1.91-3.08V31.48c0-1.13-.86-1.59-1.91-1Z"/><path class="cls-11" d="M90.12,54.62a3.68,3.68,0,0,0-1.82,2.93v68.56c0,1.09.81,1.52,1.82,1l33.55-18a3.7,3.7,0,0,0,1.81-2.93V37.57c0-1.09-.82-1.51-1.82-1Z"/><path class="cls-12" d="M122.7,104.26V37.11L90.12,54.62a3.71,3.71,0,0,0-1.82,2.93V124.7l32.59-17.52A3.69,3.69,0,0,0,122.7,104.26Z"/><path class="cls-11" d="M104.13,44l5.54-3c.33-.17.6-.05.6.27a1.21,1.21,0,0,1-.6.93l-5.54,3c-.33.18-.59,0-.59-.27A1.2,1.2,0,0,1,104.13,44Z"/><path class="cls-11" d="M113.61,38.86c.31-.17.56,0,.56.3a1.13,1.13,0,0,1-.56.9c-.31.17-.56,0-.56-.3A1.13,1.13,0,0,1,113.61,38.86Z"/><path class="cls-11" d="M115.85,37.65c.31-.16.56,0,.56.31a1.14,1.14,0,0,1-.56.9c-.31.17-.56,0-.56-.3A1.16,1.16,0,0,1,115.85,37.65Z"/><path class="cls-11" d="M97.93,47.29c.31-.17.56,0,.56.3a1.14,1.14,0,0,1-.56.9c-.31.17-.56,0-.56-.3A1.13,1.13,0,0,1,97.93,47.29Z"/><path class="cls-11" d="M100.17,46.08c.31-.16.56,0,.56.31a1.14,1.14,0,0,1-.56.9c-.31.17-.56,0-.56-.3A1.14,1.14,0,0,1,100.17,46.08Z"/></g></g><g id="freepik--character-2--inject-55"><g id="freepik--window--inject-55"><path class="cls-4" d="M129.71,38.6,96,56.71a1.53,1.53,0,0,0-.75,1.22v69.78a1.51,1.51,0,0,0,.76,1.22l.47.25a1.76,1.76,0,0,0,1.52,0L131.71,111a1.54,1.54,0,0,0,.76-1.22V40.06a1.54,1.54,0,0,0-.76-1.22l-.48-.25A1.8,1.8,0,0,0,129.71,38.6Z"/><path class="cls-13" d="M132.47,109.87c0,.62-.47,1-1.05,1.32L98.25,129c-.58.31-1,.06-1-.56V59.3h0a1.93,1.93,0,0,1,1-1.68l33.17-17.83a.73.73,0,0,1,1,.24.59.59,0,0,1,.09.32h0Z"/><path class="cls-4" d="M131.77,40h0a.4.4,0,0,1,.41.38v69.52c0,.42-.3.75-.91,1.08L98.11,128.79a.74.74,0,0,1-.33.09c-.25,0-.29-.27-.29-.42V59.3a1.65,1.65,0,0,1,.9-1.44L131.56,40a.5.5,0,0,1,.21-.05m0-.27a.68.68,0,0,0-.35.09L98.25,57.62a1.93,1.93,0,0,0-1,1.68v69.16c0,.44.24.69.59.69a1,1,0,0,0,.47-.13l33.16-17.82c.58-.31,1.05-.71,1.05-1.33V40.35A.68.68,0,0,0,131.77,39.7Z"/><path class="cls-14" d="M132.47,40.07v.27a.68.68,0,0,0-.71-.65.67.67,0,0,0-.34.09L98.25,57.62a2.11,2.11,0,0,0-.77.71v0l-2-1.1a1.5,1.5,0,0,1,.55-.54L129.71,38.6a1.76,1.76,0,0,1,1.52,0l.48.25A1.55,1.55,0,0,1,132.47,40.07Z"/><path class="cls-15" d="M103.68,58.61a0,0,0,0,1,0,0v-.23l-.38.21s0,0,0,0v-.17l.41-1s0,0,0,0l0,0,0,0h0s0,0,0,0v.8l.09-.05h0a0,0,0,0,1,0,.05v.06a0,0,0,0,1,0,.05s0,0,0,0l-.09,0v.23a.06.06,0,0,1,0,.06,0,0,0,0,1,0,0l-.06,0Zm0-.49v-.56l-.3.71Z"/><path class="cls-15" d="M104.13,58.22a.75.75,0,0,1-.11-.46,1.52,1.52,0,0,1,.12-.59.75.75,0,0,1,.31-.35.44.44,0,0,1,.16-.06.25.25,0,0,1,.12,0v0l0,.12v0h0a.21.21,0,0,0-.19,0,.51.51,0,0,0-.22.24,1.32,1.32,0,0,0-.08.44.62.62,0,0,0,.08.35c0,.06.12.06.21,0a.47.47,0,0,0,.09-.06.3.3,0,0,0,.08-.08v-.37l-.16.09h0a0,0,0,0,1,0,0v0a.06.06,0,0,1,0-.06,0,0,0,0,1,0,0l.25-.14h0a.06.06,0,0,1,0,.06v.57a0,0,0,0,1,0,0,.75.75,0,0,1-.29.27C104.31,58.31,104.21,58.3,104.13,58.22Z"/><path class="cls-15" d="M107.36,56.4a.53.53,0,0,1-.22.44c-.12.06-.22,0-.22-.2a.53.53,0,0,1,.22-.44C107.26,56.14,107.36,56.23,107.36,56.4Z"/><path class="cls-15" d="M107.13,55.69a1.26,1.26,0,0,0-.52.72.13.13,0,0,0,0,.14h0s.1,0,.12-.1a.87.87,0,0,1,.37-.51.25.25,0,0,1,.33.05.15.15,0,0,1,0,.07s.09,0,.13,0h0a.2.2,0,0,0,0-.17.33.33,0,0,0-.41-.21Z"/><path class="cls-15" d="M107.13,55.18a1.84,1.84,0,0,0-.79,1,.15.15,0,0,0,0,.16h0s.1,0,.13-.1a1.54,1.54,0,0,1,.65-.86.45.45,0,0,1,.6.08l0,.08s.08,0,.12,0h0a.17.17,0,0,0,0-.18.55.55,0,0,0-.69-.25Z"/><path class="cls-15" d="M114.67,51.83h0a0,0,0,0,1,0,0v.21a0,0,0,0,1,0,0s0,0,0,0l-.14.07h0v-.29l0,0Zm0,.74h0a0,0,0,0,1,0,0v.2a0,0,0,0,1,0,.05s0,0,0,0l-.14.08h0v-.29l0,0Z"/><path class="cls-15" d="M115.45,52.47h0v-.3l-.45.25h0v-.24a.08.08,0,0,1,0-.06l.45-1a.15.15,0,0,1,.06-.09l.11-.06h0a0,0,0,0,1,0,0v.84l.13-.07a0,0,0,0,1,0,0V52l0,0-.13.07v.26a0,0,0,0,1,0,0s0,0,0,0Zm0-.56v-.45l-.25.58Z"/><path class="cls-15" d="M113.94,53.27h0V53l-.45.25h0V53a0,0,0,0,1,0,0,.14.14,0,0,1,0-.06l.45-1a.24.24,0,0,1,.06-.09l.11-.06h0v.87l.13-.07h0v.18a0,0,0,0,1,0,0s0,0,0,0l-.13.07v.33s0,0,0,0Zm0-.54v-.45l-.25.58Z"/><path class="cls-15" d="M116,50.73v0l0,0,.55-.3h0s0,0,0,0v.19s0,0,0,0l-.41.22,0,.27.08-.07.07,0,.15,0,.12,0a.21.21,0,0,1,.08.11.63.63,0,0,1,0,.19,1,1,0,0,1,0,.25,1.19,1.19,0,0,1-.08.2,1,1,0,0,1-.12.16l-.15.11-.18.06L116,52a.2.2,0,0,1-.07-.09.4.4,0,0,1,0-.15v0s0,0,0,0l.12-.07h0s0,0,0,0,0,0,0,.06,0,0,0,0h.05l.06,0a.32.32,0,0,0,.14-.14.46.46,0,0,0,.05-.2.13.13,0,0,0-.05-.13.12.12,0,0,0-.14,0l-.07,0,0,0,0,0,0,0-.13.08h0v0Z"/><polygon class="cls-15" points="99.45 61.05 99.45 60.61 99.86 60.39 99.86 60.83 99.45 61.05"/><polygon class="cls-15" points="100.06 60.72 100.06 59.84 100.47 59.62 100.47 60.5 100.06 60.72"/><polygon class="cls-15" points="100.68 60.39 100.68 59.07 101.08 58.85 101.08 60.17 100.68 60.39"/><polygon class="cls-15" points="101.29 60.06 101.29 58.31 101.7 58.09 101.7 59.84 101.29 60.06"/><path class="cls-15" d="M130,43.21a.11.11,0,0,0-.14-.05h0l-1.53.81a.52.52,0,0,0-.18.43v.8a.48.48,0,0,0,.07.26.15.15,0,0,0,.06.05h.09l1.53-.82a.51.51,0,0,0,.17-.43v-.8A.48.48,0,0,0,130,43.21Zm-1.75,2.16a.27.27,0,0,1,0-.12v-.79a.44.44,0,0,1,.14-.33l1.52-.82h0l0,0a.27.27,0,0,1,0,.12v.79a.38.38,0,0,1-.14.33l-1.52.82a0,0,0,0,1-.06,0Z"/><path class="cls-15" d="M128.64,44.11v.94l-.24.13s0,0,0,0v-.71a.34.34,0,0,1,.09-.25Z"/><polygon class="cls-15" points="128.75 44.05 129.04 43.89 129.04 44.84 128.75 44.99 128.75 44.05"/><polygon class="cls-15" points="129.15 43.84 129.44 43.68 129.44 44.63 129.15 44.78 129.15 43.84"/><path class="cls-15" d="M129.83,43.53v.68a.35.35,0,0,1-.19.31l-.09,0v-1l.23-.12s0,0,.05,0Z"/><path class="cls-15" d="M130.11,43.44s.08.09.08.26v.15a.61.61,0,0,1-.08.34l-.08.05v-.76Z"/><polygon class="cls-15" points="125.82 45.86 127.3 44.63 126.84 46.43 126.63 45.68 125.82 45.86"/><path class="cls-5" d="M100.16,62.91,124,50.09c.4-.22.72,0,.72.38v2.08A1.46,1.46,0,0,1,124,53.7L100.16,66.54c-.4.21-.72,0-.72-.39V64.08A1.47,1.47,0,0,1,100.16,62.91Z"/><path class="cls-4" d="M126.56,52.08a.3.3,0,0,1-.24-.12.24.24,0,0,1,.09-.35h0l3.16-1.72a.29.29,0,0,1,.36.2.27.27,0,0,1-.07.25l-3.17,1.73A.23.23,0,0,1,126.56,52.08Z"/><path class="cls-4" d="M126.56,50.82a.27.27,0,0,1-.28-.25.24.24,0,0,1,.14-.23l3.16-1.72a.3.3,0,0,1,.38.09.24.24,0,0,1-.09.35l-3.16,1.72A.26.26,0,0,1,126.56,50.82Z"/><path class="cls-4" d="M126.56,49.55a.28.28,0,0,1-.25-.31.25.25,0,0,1,.11-.17l3.16-1.72a.31.31,0,0,1,.38.1.25.25,0,0,1-.1.35h0l-3.16,1.72A.32.32,0,0,1,126.56,49.55Z"/></g><g id="freepik--Character--inject-55"><g id="freepik--Botom--inject-55"><path class="cls-15" d="M97.21,113.6v14.88c0,.6.46.85,1,.55l10-5.38,1-.52,7.72-4.15c0-1.36.08-2.51.11-3.35s0-1.54,0-1.54Z"/></g><g id="freepik--Top--inject-55"><path class="cls-16" d="M128.27,93.6a7.42,7.42,0,0,0,.17-1.15,10.23,10.23,0,0,1,2.29-5c.19-.26.38-.51.59-.77s.18-.24.27-.37.13-.24.32-.2a.5.5,0,0,1,.32.22,1.44,1.44,0,0,1,.2,1.22,6.35,6.35,0,0,1-.48,1.18c-.13.3.25.21.43.14a6.87,6.87,0,0,0,2.26-2.13,10.42,10.42,0,0,1,1-1.36,1.84,1.84,0,0,1,.95-.51c.25,0,.49,0,.52.3a1.09,1.09,0,0,1-.16.52,1.14,1.14,0,0,0-.11,1,2.66,2.66,0,0,1,.29.7,7.65,7.65,0,0,1-.1.95c0,.32.19.52.23.79a2.44,2.44,0,0,1-.27,1,7.53,7.53,0,0,1-1,1.78,15.36,15.36,0,0,1-2.23,2.26,4.11,4.11,0,0,0-1.16,1.3,8.24,8.24,0,0,0-.5,1.65c-.15.71-.29,1.41-.46,2.11-1.67,7.6-2.51,8-3.57,9.15-.64.69-2.49,1.33-5-1.08A126.1,126.1,0,0,1,115,97.65l-1.12-9.28,2.26.58a6.51,6.51,0,0,1,3.24,2.64c1.72,2.53,6.17,9.14,6.17,9.14S127.93,94.59,128.27,93.6Z"/><path class="cls-5" d="M114.63,88.45a5.75,5.75,0,0,1,4,2c1.09,1.19,5.26,7.68,5.26,7.68a10.19,10.19,0,0,1-5.26,4.36l-4.77-5.82Z"/><path class="cls-10" d="M114.63,88.45a5.75,5.75,0,0,1,4,2c1.09,1.19,5.26,7.68,5.26,7.68a10.19,10.19,0,0,1-5.26,4.36l-4.77-5.82Z"/><path class="cls-17" d="M125.5,100.73a13.64,13.64,0,0,0-1.26,4.15,8.51,8.51,0,0,1,.67-5Z"/><path class="cls-17" d="M131.8,90a5.26,5.26,0,0,1-.76,3A3.24,3.24,0,0,0,132,91.6,1.74,1.74,0,0,0,131.8,90Z"/><path class="cls-5" d="M117.41,115.7c-3.86,2.55-16.5,3.41-20.21,1.13V89.27l.29-.06,3.63-.71,2-.38.5-.1h0l1.75-.34,4.56.24h0l1.37.08h.14s1.58.18,3.23.44l.18.17h0c1.14,1.14,2.13,4.07,2.41,7.2.1,1.19.18,3,.24,5V101C117.63,107.15,117.41,115.7,117.41,115.7Z"/><g id="freepik--Head--inject-55"><path class="cls-15" d="M114.44,77.51a5.12,5.12,0,0,0-1-5.09c-1.39-1.56-3.57-2.23-6.84-2-2.5.15-5,1.11-5.41,3.49-2,.56-1.78,3.62-1.28,5,1,2.74,3,5.13,3,6.51Z"/><path class="cls-16" d="M114.44,84a3.14,3.14,0,0,1-2.53,2.48,11.92,11.92,0,0,1-2.07,0l0,1.69c1.77,1.4,1.12,3.25-.06,4.92a12,12,0,0,0-4.61-2.66,4.5,4.5,0,0,1-2.14-1.92l-.19-5.7a1.66,1.66,0,0,1-2.13,0,2.58,2.58,0,0,1-.9-3.29,1.48,1.48,0,0,1,2.38-.37c.41.39.88,1.13,1.22,1a1.16,1.16,0,0,0,.81-.77,6.39,6.39,0,0,0,.43-2.51,3.3,3.3,0,0,0,1-.74,3,3,0,0,0,.89-1.91c2.84-.82,6.11-.44,7.29.41.68,1.12.71,3.71.82,5.2A11.58,11.58,0,0,1,114.44,84Z"/><path class="cls-17" d="M109.83,86.45c-1.45-.07-4.37-.71-5.15-1.46a5.4,5.4,0,0,1-1.11-2.3,7,7,0,0,0,.72,2.81c.6.86,2.12,1.24,3,1.45s1.67.28,2.52.36Z"/><path class="cls-5" d="M109.83,93.07c-.76-.44-2.44-2.21-3.28-1.39s-1.28,1-1.83.9a9.81,9.81,0,0,1-2.57-2.09,4.71,4.71,0,0,1-1.05-2A12.25,12.25,0,0,0,102.23,87c.38-.62.29-.8.78-.83l0,1.18a4.39,4.39,0,0,0,1.68,1.51C106.11,89.77,108.85,91.06,109.83,93.07Z"/><path class="cls-10" d="M109.83,93.07c-.76-.44-2.44-2.21-3.28-1.39s-1.28,1-1.83.9a9.81,9.81,0,0,1-2.57-2.09,4.71,4.71,0,0,1-1.05-2A12.25,12.25,0,0,0,102.23,87c.38-.62.29-.8.78-.83l0,1.18a4.39,4.39,0,0,0,1.68,1.51C106.11,89.77,108.85,91.06,109.83,93.07Z"/><path class="cls-5" d="M109.83,93.07c.45-.39,1.19-2.18,1.38-2.13s.81,1.31,1.06,1a3.77,3.77,0,0,0-.38-3.3,5.27,5.27,0,0,0-2-1.64l0,1.11a4.07,4.07,0,0,1,.49,1.79C110.37,90.56,109.92,92.46,109.83,93.07Z"/><path class="cls-10" d="M109.83,93.07c.45-.39,1.19-2.18,1.38-2.13s.81,1.31,1.06,1a3.77,3.77,0,0,0-.38-3.3,5.27,5.27,0,0,0-2-1.64l0,1.11a4.07,4.07,0,0,1,.49,1.79C110.37,90.56,109.92,92.46,109.83,93.07Z"/><path class="cls-11" d="M108.92,79a.57.57,0,0,1-.56.57h0a.6.6,0,0,1-.64-.54.6.6,0,0,1,.58-.6.6.6,0,0,1,.64.55S108.92,79,108.92,79Z"/><path class="cls-12" d="M108.09,77.26,106.9,78a.69.69,0,0,1,.2-1,.74.74,0,0,1,1,.18Z"/><path class="cls-12" d="M113.8,77.78l-1.31-.58a.71.71,0,0,1,.91-.35l0,0A.68.68,0,0,1,113.8,77.78Z"/><path class="cls-11" d="M113.36,79a.57.57,0,0,1-.56.57h0a.61.61,0,0,1-.64-.54.6.6,0,0,1,.58-.6.61.61,0,0,1,.65.54Z"/><polygon class="cls-17" points="110.27 77.84 110.69 81.77 112.96 81.13 110.27 77.84"/><path class="cls-18" d="M108.91,82.69l2.43.5a1.22,1.22,0,0,1-1.41.93h0A1.21,1.21,0,0,1,108.91,82.69Z"/><path class="cls-19" d="M109.89,84.11a.39.39,0,0,1,.15,0,1.1,1.1,0,0,0-1.13-1A1.25,1.25,0,0,0,109.89,84.11Z"/></g><path class="cls-5" d="M98.09,98.22l-.88,2v-11S99.73,93.77,98.09,98.22Z"/><path class="cls-10" d="M98.09,98.22l-.88,2v-11S99.73,93.77,98.09,98.22Z"/></g><path class="cls-11" d="M114.79,81a7.84,7.84,0,0,1,1.57.68,1.25,1.25,0,0,1,.49,1.76l-.6-.11s.31-.66-.06-1a4.59,4.59,0,0,0-1.41-.65Z"/><path class="cls-5" d="M116.6,83.1c-.49-.22-.72.06-1.07.83s-.11,1,.31,1.13.74-.1,1-.74S117.12,83.33,116.6,83.1Z"/><path class="cls-20" d="M116.6,83.1c-.49-.22-.72.06-1.07.83s-.11,1,.31,1.13.74-.1,1-.74S117.12,83.33,116.6,83.1Z"/><path class="cls-11" d="M102.49,71.33c-1.46,1.25-2.85,3-1.81,7.14a2.13,2.13,0,0,0-.61,2.32A2.66,2.66,0,0,0,103,82.65a2,2,0,0,0,1.48-2.73,2.67,2.67,0,0,0-2.3-1.81,6,6,0,0,1,0-4.25c1.1-3.4,5.35-3.68,7.22-3.4C108.73,69.63,104.41,69.68,102.49,71.33Z"/><path class="cls-5" d="M104.74,79.87a3,3,0,0,0-3.25-2.07,2.34,2.34,0,0,0-.58.2c-.15.08-.61.37-.7.43a2.33,2.33,0,0,0-.9,2.74,3,3,0,0,0,3.24,2.07,2.48,2.48,0,0,0,.7-.27l.64-.41A2.3,2.3,0,0,0,104.74,79.87Z"/><path class="cls-9" d="M104.74,79.87a3,3,0,0,0-3.25-2.07,2.34,2.34,0,0,0-.58.2c-.15.08-.61.37-.7.43a2.33,2.33,0,0,0-.9,2.74,3,3,0,0,0,3.24,2.07,2.48,2.48,0,0,0,.7-.27l.64-.41A2.3,2.3,0,0,0,104.74,79.87Z"/><path class="cls-5" d="M104.19,80.21a3,3,0,0,0-3.25-2.07,2.26,2.26,0,0,0-1.63,3,3,3,0,0,0,3.24,2.07A2.27,2.27,0,0,0,104.19,80.21Z"/><path class="cls-20" d="M104.19,80.21a3,3,0,0,0-3.25-2.07,2.26,2.26,0,0,0-1.63,3,3,3,0,0,0,3.24,2.07A2.27,2.27,0,0,0,104.19,80.21Z"/><path class="cls-12" d="M102.9,80.46a1.39,1.39,0,0,0-1.53-1,1.06,1.06,0,0,0-.77,1.43,1.4,1.4,0,0,0,1.52,1A1.06,1.06,0,0,0,102.9,80.46Z"/></g><g id="freepik--speech-bubble--inject-55"><path class="cls-15" d="M119.74,64.83a.51.51,0,0,0-.16.13.45.45,0,0,0-.11.17,1.07,1.07,0,0,0-.07.19,1.62,1.62,0,0,1,0,.2v.71l0,.17a.24.24,0,0,0,.07.12.14.14,0,0,0,.11,0,.28.28,0,0,0,.16,0,.56.56,0,0,0,.15-.1.44.44,0,0,0,.12-.15.75.75,0,0,0,.11-.42l-.25.14a.06.06,0,0,1-.06,0,.1.1,0,0,1,0-.07v-.45a.29.29,0,0,1,0-.09.13.13,0,0,1,.06-.07l.71-.38a.06.06,0,0,1,.06,0,.06.06,0,0,1,0,.07v.54a1.93,1.93,0,0,1-.07.53,2.11,2.11,0,0,1-.19.47,1.82,1.82,0,0,1-.29.38,1.41,1.41,0,0,1-.37.27.81.81,0,0,1-.37.12.47.47,0,0,1-.3-.1.64.64,0,0,1-.18-.27,1.34,1.34,0,0,1-.07-.4v-.75a1.85,1.85,0,0,1,.07-.48,2.68,2.68,0,0,1,.18-.47,1.9,1.9,0,0,1,.3-.4,1.26,1.26,0,0,1,.38-.3.94.94,0,0,1,.37-.11.48.48,0,0,1,.29.07.58.58,0,0,1,.25.47.09.09,0,0,1,0,.07s0,0-.05.06l-.39.21a.08.08,0,0,1-.07,0l0,0a.21.21,0,0,0-.11-.08A.33.33,0,0,0,119.74,64.83Z"/><path class="cls-15" d="M121.42,65.4a.22.22,0,0,0,0,.14.13.13,0,0,0,.06.07.14.14,0,0,0,.09,0l.09,0a.71.71,0,0,0,.14-.1.47.47,0,0,0,.09-.12.35.35,0,0,1,0-.08s0,0,0,0l.39-.21s.06,0,.06.06a.58.58,0,0,1,0,.18,1.74,1.74,0,0,1-.38.6,1.31,1.31,0,0,1-.35.27.8.8,0,0,1-.34.11.33.33,0,0,1-.25-.1.57.57,0,0,1-.16-.27,2.3,2.3,0,0,1-.05-.45,2.61,2.61,0,0,1,.05-.48,2.41,2.41,0,0,1,.16-.45,1.51,1.51,0,0,1,.25-.37,1.27,1.27,0,0,1,.34-.27.69.69,0,0,1,.37-.1.44.44,0,0,1,.25.14.83.83,0,0,1,.14.3,2.33,2.33,0,0,1,0,.38v.12a.14.14,0,0,1,0,.09.18.18,0,0,1,0,.07Zm.26-1a.43.43,0,0,0-.19.21.6.6,0,0,0-.07.27l.53-.29a.39.39,0,0,0-.08-.2.15.15,0,0,0-.18,0Z"/><path class="cls-15" d="M123.46,64.3a.17.17,0,0,0,0,.14s.05,0,.1,0l.23-.13a.06.06,0,0,1,.06,0,.1.1,0,0,1,0,.07v.43a.36.36,0,0,1,0,.1.17.17,0,0,1-.06.06l-.29.15a.57.57,0,0,1-.25.08.36.36,0,0,1-.2-.06.41.41,0,0,1-.12-.2,1.13,1.13,0,0,1,0-.32v-.71l-.21.11a0,0,0,0,1-.06,0,.06.06,0,0,1,0-.07v-.42a.36.36,0,0,1,0-.1l.06-.06.21-.12v-.69a.32.32,0,0,1,0-.09.18.18,0,0,1,0-.07l.38-.2a0,0,0,0,1,0,0,.11.11,0,0,1,0,.07V63l.33-.18h.06a.14.14,0,0,1,0,.07v.43a.29.29,0,0,1,0,.09.2.2,0,0,1-.06.07l-.33.17Z"/><path class="cls-15" d="M125.3,61.62a.24.24,0,0,1,0,.09.13.13,0,0,1-.06.07l-.37.2a.06.06,0,0,1-.06,0,.19.19,0,0,1,0-.07v-.43a.29.29,0,0,1,0-.09.13.13,0,0,1,.06-.07l.37-.19a0,0,0,0,1,.06,0s0,0,0,.06Zm0,2.44a.3.3,0,0,1,0,.1.12.12,0,0,1-.06.06l-.37.2a.06.06,0,0,1-.06,0,.14.14,0,0,1,0-.07v-2a.36.36,0,0,1,0-.1.17.17,0,0,1,.06-.06l.37-.2h.06a.08.08,0,0,1,0,.07Z"/><path class="cls-15" d="M127.22,63a.16.16,0,0,1,0,.09.15.15,0,0,1,0,.06l-.37.2h-.06a.06.06,0,0,1,0-.07V62.24a.43.43,0,0,0-.06-.27s-.11,0-.2,0a.39.39,0,0,0-.19.21.65.65,0,0,0-.06.33v1.07a.14.14,0,0,1,0,.09.18.18,0,0,1-.05.07l-.37.2a.06.06,0,0,1-.06,0,.11.11,0,0,1,0-.07v-2a.19.19,0,0,1,0-.1l.06-.06.35-.19h.06a.19.19,0,0,1,0,.07v.1a1.34,1.34,0,0,0,.06-.12,1,1,0,0,1,.09-.13l.11-.12a.91.91,0,0,1,.16-.11.79.79,0,0,1,.26-.08.25.25,0,0,1,.2.07.48.48,0,0,1,.13.23,1.37,1.37,0,0,1,0,.4Z"/><path class="cls-15" d="M119.08,70.93a.32.32,0,0,0,0,.14s0,0,.1,0l.24-.13h0a.09.09,0,0,1,0,.07v.43a.16.16,0,0,1,0,.09.1.1,0,0,1,0,.06l-.29.15a.49.49,0,0,1-.25.08.25.25,0,0,1-.2-.06.39.39,0,0,1-.12-.19,1.26,1.26,0,0,1,0-.33v-.71l-.22.12h0a.11.11,0,0,1,0-.07v-.43a.16.16,0,0,1,0-.09.18.18,0,0,1,0-.07l.22-.11v-.69a.17.17,0,0,1,0-.1.15.15,0,0,1,.05-.06l.38-.2a0,0,0,0,1,0,0s0,0,0,.06v.7l.34-.18a0,0,0,0,1,.06,0,.14.14,0,0,1,0,.06v.43a.36.36,0,0,1,0,.1l-.06.06-.33.18Z"/><path class="cls-15" d="M121.31,69.33v.32a1.47,1.47,0,0,1-.06.42,2,2,0,0,1-.16.4,2.13,2.13,0,0,1-.25.34,1.64,1.64,0,0,1-.33.26.74.74,0,0,1-.33.09.37.37,0,0,1-.25-.07.53.53,0,0,1-.16-.23,1,1,0,0,1-.06-.34v-.33a1.4,1.4,0,0,1,.06-.41,2,2,0,0,1,.16-.4,1.72,1.72,0,0,1,.25-.35,1.31,1.31,0,0,1,.33-.25.75.75,0,0,1,.33-.1.44.44,0,0,1,.25.08.5.5,0,0,1,.16.22A1,1,0,0,1,121.31,69.33Zm-1.06.88a.25.25,0,0,0,.08.21.21.21,0,0,0,.19,0,.5.5,0,0,0,.19-.19.67.67,0,0,0,.08-.3v-.29a.26.26,0,0,0-.08-.21.21.21,0,0,0-.19,0,.52.52,0,0,0-.19.2.6.6,0,0,0-.08.29v.29Z"/><path class="cls-15" d="M121.58,68.36a.15.15,0,0,1,0-.09.13.13,0,0,1,.06-.07L122,68a0,0,0,0,1,0,0,.11.11,0,0,1,0,.07v1.08a.46.46,0,0,0,.06.28s.09,0,.18,0a.45.45,0,0,0,.19-.22.91.91,0,0,0,0-.33V67.8a.19.19,0,0,1,0-.1l0-.06.37-.2h.06a.1.1,0,0,1,0,.07v2a.36.36,0,0,1,0,.1.17.17,0,0,1-.06.06l-.34.18a0,0,0,0,1-.06,0,.11.11,0,0,1,0-.06v-.1a.67.67,0,0,1-.06.12.57.57,0,0,1-.08.13l-.12.12a.91.91,0,0,1-.16.11c-.19.1-.34.11-.45,0a.83.83,0,0,1-.17-.64Z"/><path class="cls-15" d="M123.93,67.93v.3a.3.3,0,0,0,.08.2s.11,0,.19,0a.44.44,0,0,0,.15-.12.51.51,0,0,0,.09-.16l0-.07s0,0,0-.06l.39-.22s0,0,.06,0a.06.06,0,0,1,0,.07.76.76,0,0,1,0,.21,1.2,1.2,0,0,1-.13.33,1.36,1.36,0,0,1-.24.35,1.15,1.15,0,0,1-.38.31,1.12,1.12,0,0,1-.31.1.51.51,0,0,1-.25-.06.46.46,0,0,1-.17-.22.94.94,0,0,1-.07-.37v-.33a1.76,1.76,0,0,1,.07-.45,2,2,0,0,1,.17-.4,1.59,1.59,0,0,1,.25-.33,1.19,1.19,0,0,1,.31-.23.73.73,0,0,1,.38-.11.4.4,0,0,1,.24.1A.5.5,0,0,1,125,67a.57.57,0,0,1,0,.18.1.1,0,0,1,0,.09.13.13,0,0,1-.06.07l-.38.2h0a.08.08,0,0,1,0,0,.18.18,0,0,0-.08-.07.24.24,0,0,0-.15,0,.52.52,0,0,0-.19.2A.8.8,0,0,0,123.93,67.93Z"/><path class="cls-15" d="M126.82,67.53a.16.16,0,0,1,0,.09.1.1,0,0,1-.05.06l-.37.2a0,0,0,0,1-.06,0,.06.06,0,0,1,0-.07V66.74a.38.38,0,0,0-.07-.27s-.1,0-.19,0a.39.39,0,0,0-.19.21.78.78,0,0,0-.07.33v1.06a.15.15,0,0,1,0,.09.13.13,0,0,1-.06.07l-.37.19a0,0,0,0,1,0,0,.07.07,0,0,1,0-.06V65.59a.19.19,0,0,1,0-.1.15.15,0,0,1,0-.06l.37-.2a.06.06,0,0,1,.06,0,.06.06,0,0,1,0,.07v.9a2.26,2.26,0,0,1,.16-.26.85.85,0,0,1,.25-.21.72.72,0,0,1,.26-.08.26.26,0,0,1,.2.07.48.48,0,0,1,.13.23,1.75,1.75,0,0,1,0,.4Z"/><path class="cls-15" d="M127.68,66.14a.1.1,0,0,1,0,.09.18.18,0,0,1,0,.07l-.38.2a0,0,0,0,1,0,0,.11.11,0,0,1,0-.07V64.61a.17.17,0,0,1,0-.1.15.15,0,0,1,0-.06l.38-.2a0,0,0,0,1,0,0,.06.06,0,0,1,0,.07Zm0,.91a.12.12,0,0,1,0,.1l0,.06-.38.2a0,0,0,0,1,0,0,.09.09,0,0,1,0-.07v-.43a.16.16,0,0,1,0-.09.1.1,0,0,1,0-.06l.38-.21h0a.07.07,0,0,1,0,.07Z"/><path class="cls-5" d="M117.68,76.86a.37.37,0,0,1-.38-.36.34.34,0,0,1,.11-.24,3.73,3.73,0,0,0,1-2.21c-1.82-.35-2.91-1.82-2.91-4,0-3.8,3.31-8.66,7.39-10.86h0c2.17-1.16,4.24-1.39,5.67-.62a3.81,3.81,0,0,1,1.84,3.59c0,3.8-3.31,8.65-7.39,10.85a9.37,9.37,0,0,1-1.69.73,5.44,5.44,0,0,1-3.57,3.07Zm5.37-17.42c-4,2.16-7.27,6.93-7.27,10.65,0,2.09,1,3.46,2.82,3.75l.12,0V74a3.88,3.88,0,0,1-1.12,2.44.12.12,0,0,0,0,.18.13.13,0,0,0,.12,0,5.17,5.17,0,0,0,3.43-3l0,0,0,0a9.47,9.47,0,0,0,1.7-.73c4-2.15,7.27-6.93,7.27-10.64a3.6,3.6,0,0,0-1.72-3.39c-1.36-.73-3.33-.5-5.43.62Z"/></g></g><g id="freepik--Backpack--inject-1--inject-365"><path class="cls-12" d="M24.56,195.23c-2.89-.73-18.32-9.51-19.89-10.58S0,181.37,0,177.56c0-3.37.35-35.15,3.11-50.5A35.64,35.64,0,0,1,19,103.66c9.6-6,19.25-10.26,27.38-6.88s15.55,9.59,18.75,17.09,5.39,22.52,5.62,28.33,0,25.73,0,27.5-.32,4.07-9.85,10-22.69,13-26.76,14.83A15.59,15.59,0,0,1,24.56,195.23Z"/><path class="cls-15" d="M22.18,107.79c-.88.5-3.42-.75-3.8-1.38s-.48-6.08,1.42-9.09,13.75-8.56,16.68-8.15a8.16,8.16,0,0,1,5.45,3.48c.36.77.76,5.84,0,6.88s-3.47-.56-3.71-1,.89-4.15-1-4.92-10,2.81-13.36,5.63c-1.46,1.23-1.39,4.28-1.32,5.79S22.62,107.53,22.18,107.79Z"/><path class="cls-15" d="M19.8,143.57c1.7-16.51,4.76-26.15,20.91-33.34s22.42-1.07,24.71,4.44c3,7.72,5.07,21.92,5.29,27.53.23,5.81,0,25.73,0,27.5s-.32,4.07-9.85,10-22.69,13-26.76,14.83a15.59,15.59,0,0,1-9.54.73,13.54,13.54,0,0,1-1.86-.73C17.67,188.07,18.24,158.65,19.8,143.57Z"/><path class="cls-11" d="M57.45,103.78c-4.22-2.47-11.14-4.1-21.3.43-18.16,8.09-22.77,18.22-24.6,36-.33,3.26-.82,7.14-1,11.31l-1.5-.91c.21-4.5.65-8.35,1-11.83,2-17.91,7.37-27.81,24.72-35.54,9.61-4.28,15.92-3.72,20.1-1.61A31.26,31.26,0,0,1,57.45,103.78Z"/><path class="cls-15" d="M58.08,104.24c-4.21-2.47-11.14-4.1-21.29.43-18.17,8.09-22.78,18.22-24.61,36-.33,3.26-.82,7.14-1,11.31l-1.5-.91c.21-4.5.65-8.35,1-11.83,2-17.91,7.37-27.82,24.72-35.54,9.61-4.28,16.09-3.57,20.27-1.47A25.66,25.66,0,0,1,58.08,104.24Z"/><path class="cls-11" d="M52.2,119.94l-5.49-3.14a1.18,1.18,0,0,0-1.6.44L39.48,127a1.18,1.18,0,0,0,.42,1.61l5.42,3.16a1.19,1.19,0,0,0,1.61-.42l5.7-9.85a1.16,1.16,0,0,0-.4-1.58Z"/><path class="cls-15" d="M46.31,130.68l5.41-9.33a.57.57,0,0,0-.21-.79h0l-5-2.84a.59.59,0,0,0-.8.22l-5.35,9.29a.59.59,0,0,0,.22.8l4.91,2.87a.59.59,0,0,0,.81-.18Z"/><path class="cls-12" d="M47.47,126.22h0a1.11,1.11,0,0,0,.52-.82v-4.47c0-.29-.23-.38-.52-.22h0a1.11,1.11,0,0,0-.52.82V126C47,126.29,47.18,126.38,47.47,126.22Z"/><path class="cls-12" d="M44.57,127.9h0a1.13,1.13,0,0,0,.52-.83v-4.46c0-.29-.24-.39-.52-.22h0a1.07,1.07,0,0,0-.52.82v4.47C44.08,128,44.28,128.06,44.57,127.9Z"/><path class="cls-11" d="M27.28,157.53S30,159.77,32,168.21s3.14,19.07,1,20.35-5.23-1.4-6-2.32C25.38,184.35,25.77,164.29,27.28,157.53Z"/><path class="cls-12" d="M27.28,157.53S30,159.77,32,168.21s3.14,19.07,1,20.35L66,169.1c2.16-1.28,2.69-12.45.74-20.89-1.29-5.55-3.66-8.19-5.12-9.35a2.12,2.12,0,0,0-2.37-.15L27.28,157.53"/><path class="cls-11" d="M60.9,140.15c1.58.78,4.26,2.93,5.47,8.64A4.29,4.29,0,0,1,65,153.13c-1.1.78-24.72,14.21-27.85,16.08-2.7,1.61-4.1-.53-4.69-1.87h0c-1-2.38-1.86-4.23-2.6-5.65a12,12,0,0,0-2.59-4.15l31.47-17.3A2.26,2.26,0,0,1,60.9,140.15Z"/><path class="cls-11" d="M11.57,152.91a29.1,29.1,0,0,1,.89,5.25c0,.36-.49.55-.63.55a6.4,6.4,0,0,1-3.06-1.56,29.66,29.66,0,0,1,.82-4.48Z"/><path class="cls-11" d="M12.59,151.5a1.91,1.91,0,1,0-1.91,1.91,1.91,1.91,0,0,0,1.91-1.91Z"/><path class="cls-11" d="M36.48,93.52c2.09-.2,4.06,0,4.56,2.09s.32,4,0,4.26a5.07,5.07,0,0,1-2.82-1.34c-.24-.45.89-4.15-1-4.92a1.77,1.77,0,0,0-.72-.09Z"/><path class="cls-12" d="M59.41,138.6a2.28,2.28,0,0,1,2.15-.09c1.58.78,4.26,2.93,5.47,8.64a4.31,4.31,0,0,1-1.35,4.34c-1.1.78-24.71,14.21-27.84,16.08-2.7,1.61-4.11-.53-4.7-1.87h0c-3.27-6.84-5.86-8.17-5.86-8.17Z"/></g><g id="freepik--game-console--inject-1--inject-365"><path class="cls-5" d="M53.75,254.94,27.27,239.66a5.28,5.28,0,0,1-2.38-4.12v.3a5.25,5.25,0,0,1,2.38-4.12L80.52,201a5.23,5.23,0,0,1,4.75,0l26.48,15.29a5.22,5.22,0,0,1,2.38,4.11v-.3a5.27,5.27,0,0,1-2.37,4.12L58.51,254.94A5.25,5.25,0,0,1,53.75,254.94Z"/><path class="cls-21" d="M53.75,254.94,27.27,239.66a5.28,5.28,0,0,1-2.38-4.12v.3a5.25,5.25,0,0,1,2.38-4.12L80.52,201a5.23,5.23,0,0,1,4.75,0l26.48,15.29a5.22,5.22,0,0,1,2.38,4.11v-.3a5.27,5.27,0,0,1-2.37,4.12L58.51,254.94A5.25,5.25,0,0,1,53.75,254.94Z"/><path class="cls-5" d="M56.08,215.06,27.23,231.72a5.25,5.25,0,0,0-2.38,4.12v-.3a5.28,5.28,0,0,0,2.38,4.12l26.48,15.28a4.92,4.92,0,0,0,2.38.57Z"/><path class="cls-21" d="M56.08,215.06,27.23,231.72a5.25,5.25,0,0,0-2.38,4.12v-.3a5.28,5.28,0,0,0,2.38,4.12l26.48,15.28a4.92,4.92,0,0,0,2.38.57Z"/><path class="cls-5" d="M27.26,234.47l26.47,15.29a5.32,5.32,0,0,0,4.76,0L111.74,219c1.32-.76,1.32-2,0-2.74L85.26,201a5.23,5.23,0,0,0-4.75,0L27.26,231.72C25.94,232.48,25.94,233.71,27.26,234.47Z"/><path class="cls-22" d="M27.26,234.47l26.47,15.29a5.32,5.32,0,0,0,4.76,0L111.74,219c1.32-.76,1.32-2,0-2.74L85.26,201a5.23,5.23,0,0,0-4.75,0L27.26,231.72C25.94,232.48,25.94,233.71,27.26,234.47Z"/><path class="cls-5" d="M27.26,229.44V232l27.48,15.87a2.76,2.76,0,0,0,2.75,0l54.25-31.33V213.9l-55.63,27Z"/><path class="cls-5" d="M53.74,244.73,27.26,229.44a5.24,5.24,0,0,1-2.38-4.12v-4.89a5.22,5.22,0,0,1,2.38-4.12l53.25-30.75a5.23,5.23,0,0,1,4.75,0l26.48,15.29a5.22,5.22,0,0,1,2.38,4.12v4.9a5.09,5.09,0,0,1-2.38,4L58.49,244.7A5.23,5.23,0,0,1,53.74,244.73Z"/><path class="cls-23" d="M53.74,244.73,27.26,229.44a5.24,5.24,0,0,1-2.38-4.12v-4.89a5.22,5.22,0,0,1,2.38-4.12l53.25-30.75a5.23,5.23,0,0,1,4.75,0l26.48,15.29a5.22,5.22,0,0,1,2.38,4.12v4.9a5.09,5.09,0,0,1-2.38,4L58.49,244.7A5.23,5.23,0,0,1,53.74,244.73Z"/><path class="cls-5" d="M56.08,199.65,27.23,216.31a5.22,5.22,0,0,0-2.38,4.12v4.89a5.24,5.24,0,0,0,2.38,4.12l26.48,15.29a4.77,4.77,0,0,0,2.37.57Z"/><path class="cls-21" d="M56.08,199.65,27.23,216.31a5.22,5.22,0,0,0-2.38,4.12v4.89a5.24,5.24,0,0,0,2.38,4.12l26.48,15.29a4.77,4.77,0,0,0,2.37.57Z"/><path class="cls-5" d="M27.26,219.05l26.47,15.29a5.25,5.25,0,0,0,4.76,0l53.25-30.74c1.32-.76,1.32-2,0-2.75L85.26,185.56a5.23,5.23,0,0,0-4.75,0L27.26,216.31C25.94,217.07,25.94,218.3,27.26,219.05Z"/><path class="cls-22" d="M27.26,219.05l26.47,15.29a5.25,5.25,0,0,0,4.76,0l53.25-30.74c1.32-.76,1.32-2,0-2.75L85.26,185.56a5.23,5.23,0,0,0-4.75,0L27.26,216.31C25.94,217.07,25.94,218.3,27.26,219.05Z"/><path class="cls-5" d="M64.19,206.9c-2.93,1.7-2.93,4.43,0,6.11a11.82,11.82,0,0,0,10.62,0c2.93-1.68,2.93-4.41,0-6.11A11.76,11.76,0,0,0,64.19,206.9Z"/><path class="cls-5" d="M107.43,208.69a2,2,0,0,0-.93,1.62c0,.6.42.85.93.56a2,2,0,0,0,.93-1.62C108.36,208.65,107.94,208.4,107.43,208.69Z"/><path class="cls-5" d="M107.43,212.28a2,2,0,0,0-.93,1.62c0,.6.42.85.93.56a2,2,0,0,0,.93-1.62C108.36,212.24,107.94,212,107.43,212.28Z"/><path class="cls-5" d="M42.65,275.15a.73.73,0,0,1-.35-.09L16.64,260.15a4.38,4.38,0,0,1-1.59-6,4.33,4.33,0,0,1,1.59-1.59l18.81-10.86a.69.69,0,0,1,.94.31.7.7,0,0,1-.24.9l-18.8,10.83a3,3,0,0,0-1.05,4.11,3.1,3.1,0,0,0,1.05,1.05L43,273.8a.68.68,0,0,1,.29.93.25.25,0,0,1,0,.07A.69.69,0,0,1,42.65,275.15Z"/><path class="cls-5" d="M74.79,260.75l-5.56-22.32a5.63,5.63,0,0,0-.31-.9l1.62-.23-3.53-2h0a4.64,4.64,0,0,0-4.78.21l-23.15,13.4a12.09,12.09,0,0,0-5.45,9.48v26.84c0,2.14.52,3.61,1.59,4.12h0l3.32,1.92-.8-2.12.18-.07c3.81-1.82,5.19-5.14,6.33-8.43l4.41-12.75c1.14-3.29,4-7.06,6.34-8.43s5.68,0,7.4,3l2.22,3.88a7.26,7.26,0,0,0,2.94,2.9h0l3.38,2-.86-1.34a4,4,0,0,0,2-.54C74.39,268,75.63,264.15,74.79,260.75Z"/><path class="cls-21" d="M74.79,260.75l-5.56-22.32a5.63,5.63,0,0,0-.31-.9l1.62-.23-3.53-2h0a4.64,4.64,0,0,0-4.78.21l-23.15,13.4a12.09,12.09,0,0,0-5.45,9.48v26.84c0,2.14.52,3.61,1.59,4.12h0l3.32,1.92-.8-2.12.18-.07c3.81-1.82,5.19-5.14,6.33-8.43l4.41-12.75c1.14-3.29,4-7.06,6.34-8.43s5.68,0,7.4,3l2.22,3.88a7.26,7.26,0,0,0,2.94,2.9h0l3.38,2-.86-1.34a4,4,0,0,0,2-.54C74.39,268,75.63,264.15,74.79,260.75Z"/><path class="cls-5" d="M68.92,237.53l1.62-.23-3.53-2h0a4.64,4.64,0,0,0-4.78.21l-23.15,13.4a10.58,10.58,0,0,0-3.24,3.15l5.51,3.36L69.53,239.5l-.27-1.07A5.74,5.74,0,0,0,68.92,237.53Z"/><path class="cls-22" d="M68.92,237.53l1.62-.23-3.53-2h0a4.64,4.64,0,0,0-4.78.21l-23.15,13.4a10.58,10.58,0,0,0-3.24,3.15l5.51,3.36L69.53,239.5l-.27-1.07A5.74,5.74,0,0,0,68.92,237.53Z"/><path class="cls-5" d="M75.61,271.45c-2.37,1.37-5.7,0-7.43-3L66,264.57c-1.73-3-5-4.37-7.41-3s-5.2,5.13-6.34,8.43l-4.4,12.74c-1.14,3.29-2.53,6.61-6.34,8.43-2.88,1.38-4.27-.36-4.27-3.84V260.47A12.11,12.11,0,0,1,42.67,251l23.19-13.45a4.48,4.48,0,0,1,6.24,1.1,4.33,4.33,0,0,1,.76,1.9l5.56,22.33C79.24,266.22,78,270.08,75.61,271.45Z"/><path class="cls-23" d="M75.61,271.45c-2.37,1.37-5.7,0-7.43-3L66,264.57c-1.73-3-5-4.37-7.41-3s-5.2,5.13-6.34,8.43l-4.4,12.74c-1.14,3.29-2.53,6.61-6.34,8.43-2.88,1.38-4.27-.36-4.27-3.84V260.47A12.11,12.11,0,0,1,42.67,251l23.19-13.45a4.48,4.48,0,0,1,6.24,1.1,4.33,4.33,0,0,1,.76,1.9l5.56,22.33C79.24,266.22,78,270.08,75.61,271.45Z"/><polygon class="cls-11" points="66.62 245.28 67.2 248.57 69.77 246.93 70.34 250.22 67.78 251.87 68.36 255.16 65.8 256.8 65.22 253.51 62.66 255.16 62.08 251.86 64.64 250.22 64.06 246.93 66.62 245.28"/><polygon class="cls-5" points="67.36 245.67 67.94 248.96 70.5 247.32 71.08 250.61 68.52 252.26 69.1 255.55 66.54 257.19 65.96 253.9 63.4 255.54 62.82 252.25 65.38 250.61 64.8 247.32 67.36 245.67"/><path class="cls-11" d="M47.22,256.93a2.62,2.62,0,0,1-1,2.47c-.71.45-1.41.08-1.57-.83a2.59,2.59,0,0,1,1-2.47C46.35,255.65,47.08,256,47.22,256.93Z"/><path class="cls-11" d="M48.38,263.51a2.6,2.6,0,0,1-1,2.47c-.71.45-1.41.08-1.57-.82a2.59,2.59,0,0,1,1-2.47C47.51,262.23,48.22,262.6,48.38,263.51Z"/><path class="cls-11" d="M50.36,258.57a2.6,2.6,0,0,1-1,2.47c-.71.46-1.41.09-1.57-.82a2.59,2.59,0,0,1,1-2.47C49.5,257.3,50.2,257.66,50.36,258.57Z"/><path class="cls-11" d="M45.24,261.86a2.6,2.6,0,0,1-1,2.47c-.71.46-1.41.09-1.57-.82a2.59,2.59,0,0,1,1-2.47C44.38,260.59,45.08,261,45.24,261.86Z"/><path class="cls-11" d="M47.27,257a2.6,2.6,0,0,1-1,2.47c-.71.45-1.41.09-1.57-.82a2.59,2.59,0,0,1,1-2.47C46.41,255.68,47.08,256.05,47.27,257Z"/><path class="cls-11" d="M48.43,263.54a2.6,2.6,0,0,1-1,2.47c-.71.46-1.41.09-1.57-.82a2.59,2.59,0,0,1,1-2.47C47.57,262.27,48.27,262.63,48.43,263.54Z"/><path class="cls-11" d="M50.41,258.61a2.61,2.61,0,0,1-1,2.46c-.7.46-1.41.09-1.57-.82a2.61,2.61,0,0,1,1-2.47C49.55,257.33,50.25,257.7,50.41,258.61Z"/><path class="cls-11" d="M45.29,261.9a2.6,2.6,0,0,1-1,2.47c-.7.45-1.41.08-1.57-.83a2.61,2.61,0,0,1,1-2.47C44.43,260.62,45.13,261,45.29,261.9Z"/><path class="cls-11" d="M47.32,257a2.6,2.6,0,0,1-1,2.47c-.7.46-1.41.09-1.57-.82a2.61,2.61,0,0,1,1-2.47C46.46,255.72,47.16,256.08,47.32,257Z"/><path class="cls-11" d="M48.48,263.58a2.61,2.61,0,0,1-1,2.46c-.7.46-1.41.09-1.57-.82a2.61,2.61,0,0,1,1-2.47C47.62,262.3,48.32,262.67,48.48,263.58Z"/><path class="cls-11" d="M50.47,258.64a2.62,2.62,0,0,1-1,2.47c-.71.45-1.41.08-1.57-.82a2.59,2.59,0,0,1,1-2.47C49.6,257.36,50.31,257.73,50.47,258.64Z"/><path class="cls-11" d="M45.35,261.93a2.62,2.62,0,0,1-1,2.47c-.71.45-1.41.09-1.57-.82a2.59,2.59,0,0,1,1-2.47C44.48,260.65,45.19,261,45.35,261.93Z"/><path class="cls-11" d="M47.38,257a2.62,2.62,0,0,1-1,2.47c-.71.45-1.41.08-1.57-.83a2.6,2.6,0,0,1,1-2.46C46.51,255.75,47.22,256.15,47.38,257Z"/><path class="cls-11" d="M48.54,263.61a2.62,2.62,0,0,1-1,2.47c-.71.45-1.41.09-1.57-.82a2.59,2.59,0,0,1,1-2.47C47.67,262.33,48.38,262.7,48.54,263.61Z"/><path class="cls-11" d="M50.52,258.67a2.6,2.6,0,0,1-1,2.47c-.71.46-1.41.09-1.57-.82a2.59,2.59,0,0,1,1-2.47C49.66,257.4,50.36,257.76,50.52,258.67Z"/><path class="cls-11" d="M45.4,262a2.6,2.6,0,0,1-1,2.47c-.71.46-1.41.09-1.57-.82a2.59,2.59,0,0,1,1-2.47C44.54,260.69,45.24,261.05,45.4,262Z"/><path class="cls-11" d="M47.43,257.06a2.6,2.6,0,0,1-1,2.47c-.71.45-1.41.09-1.57-.82a2.59,2.59,0,0,1,1-2.47C46.57,255.78,47.27,256.15,47.43,257.06Z"/><path class="cls-11" d="M48.59,263.64a2.6,2.6,0,0,1-1,2.47c-.71.46-1.41.09-1.57-.82a2.59,2.59,0,0,1,1-2.47C47.73,262.37,48.43,262.73,48.59,263.64Z"/><path class="cls-11" d="M50.57,258.71a2.62,2.62,0,0,1-1,2.47c-.71.45-1.41.08-1.57-.83a2.59,2.59,0,0,1,1-2.47C49.71,257.43,50.41,257.8,50.57,258.71Z"/><path class="cls-11" d="M45.45,262a2.6,2.6,0,0,1-1,2.47c-.7.45-1.41.08-1.57-.83a2.6,2.6,0,0,1,1-2.46C44.59,260.72,45.29,261.09,45.45,262Z"/><path class="cls-11" d="M47.48,257.09a2.6,2.6,0,0,1-1,2.47c-.7.46-1.41.09-1.57-.82a2.61,2.61,0,0,1,1-2.47C46.62,255.82,47.32,256.15,47.48,257.09Z"/><path class="cls-11" d="M48.64,263.68a2.62,2.62,0,0,1-1,2.47c-.7.45-1.41.08-1.57-.83a2.61,2.61,0,0,1,1-2.47C47.78,262.4,48.48,262.77,48.64,263.68Z"/><path class="cls-11" d="M50.62,258.74a2.6,2.6,0,0,1-1,2.47c-.7.45-1.41.09-1.57-.82a2.61,2.61,0,0,1,1-2.47C49.76,257.46,50.46,257.83,50.62,258.74Z"/><path class="cls-11" d="M45.51,262a2.62,2.62,0,0,1-1,2.47c-.71.45-1.41.09-1.57-.82a2.59,2.59,0,0,1,1-2.47C44.64,260.75,45.35,261.15,45.51,262Z"/><path class="cls-11" d="M47.54,257.15a2.62,2.62,0,0,1-1,2.47c-.71.45-1.41.08-1.57-.82a2.59,2.59,0,0,1,1-2.47C46.67,255.85,47.38,256.22,47.54,257.15Z"/><path class="cls-11" d="M48.7,263.71a2.62,2.62,0,0,1-1,2.47c-.71.45-1.41.09-1.57-.82a2.59,2.59,0,0,1,1-2.47C47.83,262.43,48.54,262.8,48.7,263.71Z"/><path class="cls-11" d="M50.68,258.77a2.62,2.62,0,0,1-1,2.47c-.71.46-1.41.09-1.57-.82a2.59,2.59,0,0,1,1-2.47C49.81,257.5,50.52,257.86,50.68,258.77Z"/><path class="cls-11" d="M45.56,262.06a2.6,2.6,0,0,1-1,2.47c-.71.46-1.41.09-1.57-.82a2.59,2.59,0,0,1,1-2.47C44.7,260.79,45.4,261.15,45.56,262.06Z"/><path class="cls-11" d="M47.59,257.15a2.6,2.6,0,0,1-1,2.47c-.71.46-1.41.09-1.57-.82a2.59,2.59,0,0,1,1-2.47C46.73,255.88,47.43,256.25,47.59,257.15Z"/><path class="cls-11" d="M48.75,263.74a2.6,2.6,0,0,1-1,2.47c-.71.46-1.41.09-1.57-.82a2.59,2.59,0,0,1,1-2.47C47.89,262.47,48.59,262.83,48.75,263.74Z"/><path class="cls-11" d="M50.73,258.81a2.6,2.6,0,0,1-1,2.47c-.71.45-1.41.08-1.57-.83a2.6,2.6,0,0,1,1-2.46C49.87,257.53,50.57,257.9,50.73,258.81Z"/><path class="cls-11" d="M45.61,262.15a2.6,2.6,0,0,1-1,2.47c-.7.45-1.41.08-1.57-.82a2.59,2.59,0,0,1,1-2.47C44.75,260.82,45.45,261.15,45.61,262.15Z"/><path class="cls-11" d="M47.64,257.2a2.61,2.61,0,0,1-1,2.46c-.71.46-1.41.09-1.57-.82a2.59,2.59,0,0,1,1-2.47C46.78,255.92,47.48,256.29,47.64,257.2Z"/><path class="cls-11" d="M48.8,263.78a2.6,2.6,0,0,1-1,2.47c-.7.45-1.41.08-1.57-.83a2.6,2.6,0,0,1,1-2.46C47.94,262.5,48.64,262.87,48.8,263.78Z"/><path class="cls-11" d="M50.78,258.84a2.6,2.6,0,0,1-1,2.47c-.7.45-1.41.09-1.57-.82a2.61,2.61,0,0,1,1-2.47C49.92,257.56,50.62,257.93,50.78,258.84Z"/><path class="cls-11" d="M45.66,262.15a2.6,2.6,0,0,1-1,2.47c-.7.46-1.4.09-1.57-.82a2.61,2.61,0,0,1,1-2.47C44.8,260.85,45.5,261.22,45.66,262.15Z"/><path class="cls-11" d="M47.69,257.23a2.6,2.6,0,0,1-1,2.47c-.7.45-1.41.08-1.57-.82a2.61,2.61,0,0,1,1-2.47C46.83,256,47.53,256.32,47.69,257.23Z"/><path class="cls-11" d="M48.85,263.81a2.6,2.6,0,0,1-1,2.47c-.7.45-1.4.09-1.56-.82a2.59,2.59,0,0,1,1-2.47C48,262.53,48.69,262.9,48.85,263.81Z"/><path class="cls-11" d="M50.84,258.87a2.62,2.62,0,0,1-1,2.47c-.71.46-1.41.09-1.57-.82a2.59,2.59,0,0,1,1-2.47C50,257.6,50.68,258,50.84,258.87Z"/><path class="cls-11" d="M45.72,262.15a2.61,2.61,0,0,1-1,2.46c-.71.46-1.41.09-1.57-.82a2.59,2.59,0,0,1,1-2.47C44.85,260.89,45.56,261.26,45.72,262.15Z"/><path class="cls-11" d="M47.75,257.26a2.62,2.62,0,0,1-1,2.47c-.71.46-1.41.09-1.57-.82a2.59,2.59,0,0,1,1-2.47C46.88,256,47.59,256.35,47.75,257.26Z"/><path class="cls-11" d="M48.91,263.84a2.62,2.62,0,0,1-1,2.47c-.71.46-1.41.09-1.57-.82a2.59,2.59,0,0,1,1-2.47C48.08,262.57,48.75,262.94,48.91,263.84Z"/><path class="cls-11" d="M50.89,258.91a2.6,2.6,0,0,1-1,2.47c-.71.45-1.41.08-1.57-.82a2.59,2.59,0,0,1,1-2.47C50.08,257.63,50.73,258,50.89,258.91Z"/><path class="cls-11" d="M45.77,262.2a2.6,2.6,0,0,1-1,2.47c-.71.45-1.41.08-1.57-.82a2.59,2.59,0,0,1,1-2.47C44.91,260.92,45.61,261.29,45.77,262.2Z"/><path class="cls-11" d="M47.8,257.3a2.62,2.62,0,0,1-1,2.47c-.71.45-1.41.08-1.57-.83a2.59,2.59,0,0,1,1-2.47C46.94,256,47.64,256.39,47.8,257.3Z"/><path class="cls-11" d="M49,263.88a2.6,2.6,0,0,1-1,2.47c-.71.45-1.41.08-1.57-.82a2.59,2.59,0,0,1,1-2.47C48.08,262.6,48.8,263,49,263.88Z"/><path class="cls-11" d="M50.94,258.94a2.6,2.6,0,0,1-1,2.47c-.7.46-1.41.09-1.57-.82a2.61,2.61,0,0,1,1-2.47C50.08,257.66,50.78,258,50.94,258.94Z"/><path class="cls-11" d="M45.82,262.23a2.6,2.6,0,0,1-1,2.47c-.7.46-1.41.09-1.57-.82a2.61,2.61,0,0,1,1-2.47C45,261,45.66,261.32,45.82,262.23Z"/><polygon class="cls-11" points="66.62 245.28 67.36 245.67 64.8 247.32 64.06 246.93 66.62 245.28"/><polygon class="cls-11" points="64.64 250.22 65.38 250.61 62.82 252.25 62.08 251.86 64.64 250.22"/><polygon class="cls-11" points="67.94 248.96 67.8 248.19 69.77 246.93 70.5 247.32 67.94 248.96"/><polygon class="cls-11" points="62.08 251.86 62.82 252.25 63.4 255.54 62.66 255.16 62.08 251.86"/><polygon class="cls-11" points="65.8 256.8 66.54 257.19 65.96 253.9 65.36 254.29 65.8 256.8"/><path class="cls-5" d="M47.8,257.3a2.62,2.62,0,0,1-1,2.47c-.71.45-1.41.08-1.57-.83a2.59,2.59,0,0,1,1-2.47C46.94,256,47.64,256.39,47.8,257.3Z"/><path class="cls-5" d="M49,263.88a2.6,2.6,0,0,1-1,2.47c-.71.45-1.41.08-1.57-.82a2.59,2.59,0,0,1,1-2.47C48.08,262.6,48.8,263,49,263.88Z"/><path class="cls-5" d="M50.94,258.94a2.6,2.6,0,0,1-1,2.47c-.7.46-1.41.09-1.57-.82a2.61,2.61,0,0,1,1-2.47C50.08,257.66,50.78,258,50.94,258.94Z"/><path class="cls-5" d="M45.82,262.23a2.6,2.6,0,0,1-1,2.47c-.7.46-1.41.09-1.57-.82a2.61,2.61,0,0,1,1-2.47C45,261,45.66,261.32,45.82,262.23Z"/></g><g id="freepik--Character--inject-1--inject-365"><path class="cls-4" d="M295.75,257.26l-2-1.13,1.42-.64s1.11.3,1.14.35a6.7,6.7,0,0,1-.08.77Z"/><path class="cls-5" d="M295.75,257.26l-2-1.13,1.42-.64s1.11.3,1.14.35a6.7,6.7,0,0,1-.08.77Z"/><path class="cls-24" d="M295.75,257.26l-2-1.13,1.42-.64s1.11.3,1.14.35a6.7,6.7,0,0,1-.08.77Z"/><path class="cls-5" d="M221.33,294.75a6.33,6.33,0,0,0,5.72,0l64.14-37-96-55.44L193,201l-64.14,37c-1.57.91-1.57,2.4,0,3.3Z"/><path class="cls-25" d="M221.33,294.75a6.33,6.33,0,0,0,5.72,0l64.14-37-96-55.44L193,201l-64.14,37c-1.57.91-1.57,2.4,0,3.3Z"/><path class="cls-4" d="M245.42,224.79l22.37,12.87,14.48-8.36L299.08,239v12.11c0,1.47-1.65,3.56-2.25,3.22a16.66,16.66,0,0,0-3.22,1.14A24,24,0,0,0,289,259l-51.4-29.67Z"/><path class="cls-5" d="M245.42,224.79l22.37,12.87,14.48-8.36L299.08,239v12.11c0,1.47-1.65,3.56-2.25,3.22a16.66,16.66,0,0,0-3.22,1.14A24,24,0,0,0,289,259l-51.4-29.67Z"/><path class="cls-24" d="M245.42,224.79l22.37,12.87,14.48-8.36L299.08,239v12.11c0,1.47-1.65,3.56-2.25,3.22a16.66,16.66,0,0,0-3.22,1.14A24,24,0,0,0,289,259l-51.4-29.67Z"/><path class="cls-5" d="M227.08,294.74,231,292.5,289,259a3.66,3.66,0,0,1,.79-2.08,8.38,8.38,0,0,1,2.54-2.24,5.8,5.8,0,0,1,2.74-.85,2.92,2.92,0,0,1,1.8.59,9.9,9.9,0,0,0,1.07-4.8h2.2c0,3-1,6.08-2.23,6.78l-1.11.65c-.63.36-1.13.38-1.13,0v-.59c0-.66-1-.63-2.24.09s-2.23,1.82-2.23,2.48v.6c0,.34-.86,1.1-1.9,1.7l-56.16,32.43-6.08,3.5h0a6.13,6.13,0,0,1-2.85.67v-2.54A5.75,5.75,0,0,0,227.08,294.74Z"/><path class="cls-26" d="M227.08,294.74,231,292.5,289,259a3.66,3.66,0,0,1,.79-2.08,8.38,8.38,0,0,1,2.54-2.24,5.8,5.8,0,0,1,2.74-.85,2.92,2.92,0,0,1,1.8.59,9.9,9.9,0,0,0,1.07-4.8h2.2c0,3-1,6.08-2.23,6.78l-1.11.65c-.63.36-1.13.38-1.13,0v-.59c0-.66-1-.63-2.24.09s-2.23,1.82-2.23,2.48v.6c0,.34-.86,1.1-1.9,1.7l-56.16,32.43-6.08,3.5h0a6.13,6.13,0,0,1-2.85.67v-2.54A5.75,5.75,0,0,0,227.08,294.74Z"/><path class="cls-5" d="M127.61,239.62v2.59a2,2,0,0,0,1.14,1.62h0l86.47,49.92,6.07,3.5h0a6.13,6.13,0,0,0,2.85.67v-2.54a5.81,5.81,0,0,1-2.86-.69l-3.86-2.23h0l-88.67-51.21A2,2,0,0,1,127.61,239.62Z"/><path class="cls-24" d="M127.61,239.62v2.59a2,2,0,0,0,1.14,1.62h0l86.47,49.92,6.07,3.5h0a6.13,6.13,0,0,0,2.85.67v-2.54a5.81,5.81,0,0,1-2.86-.69l-3.86-2.23h0l-88.67-51.21A2,2,0,0,1,127.61,239.62Z"/><path class="cls-7" d="M224.19,278.31v14.84a3.81,3.81,0,0,0,1.9-.45l7-4.06,53.59-30.94V242.22Z"/><path class="cls-14" d="M130.4,226v11.41a4.22,4.22,0,0,0,1.9,3.3l83,47.9,7,4.06a3.81,3.81,0,0,0,1.9.45V279.88Z"/><path class="cls-15" d="M286.72,257.68a3.75,3.75,0,0,1,.81-2.08,8.35,8.35,0,0,1,2.54-2.23,5.63,5.63,0,0,1,2.73-.86,3,3,0,0,1,1.81.59V237.65l-7.87,4.55Z"/><path class="cls-2" d="M289.87,253.5a8,8,0,0,0-2.34,2.1,3.75,3.75,0,0,0-.81,2.08V242.92h3.14Z"/><path class="cls-5" d="M195.17,184.15l96,55.44v1.29c0,.71,1,1,2.23.26s2.24-1.6,2.24-2.83l.12-1.22-97.83-56.48-.39-.23a1.34,1.34,0,0,0-.17.59v.6C197.39,182.31,196.4,183.46,195.17,184.15Z"/><path class="cls-26" d="M195.17,184.15l96,55.44v1.29c0,.71,1,1,2.23.26s2.24-1.6,2.24-2.83l.12-1.22-97.83-56.48-.39-.23a1.34,1.34,0,0,0-.17.59v.6C197.39,182.31,196.4,183.46,195.17,184.15Z"/><path class="cls-5" d="M227.08,276.66l62.72-36.22c.79-.41,1.52-.75,1.83-.59l-.41-.23-96-55.44-1.12-.65a3.65,3.65,0,0,0-3,.45l-62.23,35.94c-1.57.91-1.57,2.39,0,3.3l92.54,53.44A6.35,6.35,0,0,0,227.08,276.66Z"/><path class="cls-25" d="M227.08,276.66l62.72-36.22c.79-.41,1.52-.75,1.83-.59l-.41-.23-96-55.44-1.12-.65a3.65,3.65,0,0,0-3,.45l-62.23,35.94c-1.57.91-1.57,2.39,0,3.3l92.54,53.44A6.35,6.35,0,0,0,227.08,276.66Z"/><path class="cls-5" d="M197.56,180.41l.39.23,97.83,56.51a.71.71,0,0,1,.21-.27l.33-.19.71-.4.87-.51a.89.89,0,0,1,1.11.1.52.52,0,0,1,.11.1,1.46,1.46,0,0,1,.29.41,2.77,2.77,0,0,1,.26.55,4.19,4.19,0,0,1,.19.63c.06.25.1.49.15.75a3.44,3.44,0,0,1,.05.45v-1.53a5.86,5.86,0,0,0-2.86-4.39l-92.55-53.44a5.75,5.75,0,0,0-5.09-.37l-1.17.68h0l-.5.28h0A1,1,0,0,0,197.56,180.41Z"/><path class="cls-25" d="M197.56,180.41l.39.23,97.83,56.51a.71.71,0,0,1,.21-.27l.33-.19.71-.4.87-.51a.89.89,0,0,1,1.11.1.52.52,0,0,1,.11.1,1.46,1.46,0,0,1,.29.41,2.77,2.77,0,0,1,.26.55,4.19,4.19,0,0,1,.19.63c.06.25.1.49.15.75a3.44,3.44,0,0,1,.05.45v-1.53a5.86,5.86,0,0,0-2.86-4.39l-92.55-53.44a5.75,5.75,0,0,0-5.09-.37l-1.17.68h0l-.5.28h0A1,1,0,0,0,197.56,180.41Z"/><path class="cls-5" d="M227.08,276.67h0l3.88-2.25,44.61-25.74,14.24-8.22c1-.6,1.84-.81,1.89-.5h0v.64c0,.72,1,.72,2.23,0a3,3,0,0,0,1.76-2.24v-.7a1,1,0,0,1,.33-.84l.33-.19.71-.4.87-.51a.89.89,0,0,1,1.11.1.52.52,0,0,1,.11.1,1.24,1.24,0,0,1,.19.26.4.4,0,0,1,.1.15,2.77,2.77,0,0,1,.26.55,4.19,4.19,0,0,1,.19.63c.06.25.1.49.15.75a3.44,3.44,0,0,1,0,.45v10.86h-2.2V239.25l-.06-.55v0c-.2,1.75-1.87,3.31-3.32,4.13a5.45,5.45,0,0,1-2.68.84,3,3,0,0,1-2-.73l-.2.11-.38.23-56.16,32.43-6,3.54h0a6.06,6.06,0,0,1-2.8.65v-2.54A5.93,5.93,0,0,0,227.08,276.67Z"/><path class="cls-26" d="M227.08,276.67h0l3.88-2.25,44.61-25.74,14.24-8.22c1-.6,1.84-.81,1.89-.5h0v.64c0,.72,1,.72,2.23,0a3,3,0,0,0,1.76-2.24v-.7a1,1,0,0,1,.33-.84l.33-.19.71-.4.87-.51a.89.89,0,0,1,1.11.1.52.52,0,0,1,.11.1,1.24,1.24,0,0,1,.19.26.4.4,0,0,1,.1.15,2.77,2.77,0,0,1,.26.55,4.19,4.19,0,0,1,.19.63c.06.25.1.49.15.75a3.44,3.44,0,0,1,0,.45v10.86h-2.2V239.25l-.06-.55v0c-.2,1.75-1.87,3.31-3.32,4.13a5.45,5.45,0,0,1-2.68.84,3,3,0,0,1-2-.73l-.2.11-.38.23-56.16,32.43-6,3.54h0a6.06,6.06,0,0,1-2.8.65v-2.54A5.93,5.93,0,0,0,227.08,276.67Z"/><path class="cls-5" d="M127.61,221.54v2.61a2,2,0,0,0,1.14,1.63h0l86.47,49.92,6.07,3.51h0a6.13,6.13,0,0,0,2.85.67v-2.54a5.8,5.8,0,0,1-2.86-.68l-3.86-2.23h0l-88.67-51.21A2,2,0,0,1,127.61,221.54Z"/><path class="cls-24" d="M127.61,221.54v2.61a2,2,0,0,0,1.14,1.63h0l86.47,49.92,6.07,3.51h0a6.13,6.13,0,0,0,2.85.67v-2.54a5.8,5.8,0,0,1-2.86-.68l-3.86-2.23h0l-88.67-51.21A2,2,0,0,1,127.61,221.54Z"/><path class="cls-11" d="M191,184a3.65,3.65,0,0,1,3-.45l1.12.65c1.23-.72,2.22-1.87,2.22-2.58V181a1.34,1.34,0,0,1,.17-.59,1,1,0,0,1,.35-.4h0l.5-.28h0l1.17-.68a5.75,5.75,0,0,1,5.09.37l92.55,53.44.1.06L232,270.63a4.19,4.19,0,0,1-3.81,0L135,216.32Z"/><path class="cls-5" d="M237.21,265.15l-2.47-1.42a4,4,0,0,1,2.07-.15C237.47,263.92,237.21,265.15,237.21,265.15Z"/><path class="cls-21" d="M237.21,265.15l-2.47-1.42a4,4,0,0,1,2.07-.15C237.47,263.92,237.21,265.15,237.21,265.15Z"/><path class="cls-5" d="M238.91,263.62a3,3,0,0,0-4.24-.17l-.17.17C232.09,265.83,232,268,231,268s-1-17.65-1-17.65l9.51,8.81Z"/><path class="cls-21" d="M238.91,263.62a3,3,0,0,0-4.24-.17l-.17.17C232.09,265.83,232,268,231,268s-1-17.65-1-17.65l9.51,8.81Z"/><path class="cls-5" d="M139.49,199.57l-.16-.09,1.52-.88,65.48-37.8,95.41,61.74c1.57.91,1.85,2.23.62,2.93l-2.23,1.29-61.2,35.39-.44-.32Z"/><path class="cls-22" d="M139.49,199.57l-.16-.09,1.52-.88,65.48-37.8,95.41,61.74c1.57.91,1.85,2.23.62,2.93l-2.23,1.29-61.2,35.39-.44-.32Z"/><path class="cls-15" d="M230.76,242l4.74-1v19c-2.86,1.22-4.68,2.36-5,4.75Z"/><path class="cls-14" d="M237.59,260.25l60.63-35a4.19,4.19,0,0,0,1.91-3.3V203.24l-61.22,35.65s-.73,2.65-2.9,3.48-.51,1.68-.51,1.68v16C237.37,259.78,237.59,260.25,237.59,260.25Z"/><path class="cls-5" d="M232,241.35c.63-.36,1.13-.38,1.13,0v.59c0,.66,1,.63,2.24-.09s2.24-1.82,2.24-2.48v-.6c0-.34.85-1.1,1.89-1.7l-98.64-56.52-1.53.88a1.39,1.39,0,0,0-.38.82v.6c0,.66-1,1.77-2.23,2.48s-2.24.75-2.24.09v-.6c0-.34-.5-.31-1.12.05Z"/><path class="cls-23" d="M232,241.35c.63-.36,1.13-.38,1.13,0v.59c0,.66,1,.63,2.24-.09s2.24-1.82,2.24-2.48v-.6c0-.34.85-1.1,1.89-1.7l-98.64-56.52-1.53.88a1.39,1.39,0,0,0-.38.82v.6c0,.66-1,1.77-2.23,2.48s-2.24.75-2.24.09v-.6c0-.34-.5-.31-1.12.05Z"/><path class="cls-5" d="M139.49,181.48l-.16-.09,1.52-.88,65.48-37.8,95.41,55.1c1.57.91,1.85,2.22.62,2.93L300.13,202l-61.22,36.87Z"/><path class="cls-22" d="M139.49,181.48l-.16-.09,1.52-.88,65.48-37.8,95.41,55.1c1.57.91,1.85,2.22.62,2.93L300.13,202l-61.22,36.87Z"/><path class="cls-5" d="M134.46,184.21l98.62,56.94-3.45,2.7-98.25-56.72a3.77,3.77,0,0,1,1.31-1.83Z"/><path class="cls-22" d="M134.46,184.21l98.62,56.94-3.45,2.7-98.25-56.72a3.77,3.77,0,0,1,1.31-1.83Z"/><path class="cls-5" d="M131.71,212.58a1.09,1.09,0,0,1-.17-.13.27.27,0,0,1-.11-.1,1.05,1.05,0,0,1-.2-.27.45.45,0,0,1-.1-.14,2.27,2.27,0,0,1-.25-.55,4.75,4.75,0,0,1-.2-.64c-.06-.24-.1-.48-.14-.74a3.47,3.47,0,0,1-.06-.45V192.05a13.16,13.16,0,0,1,.92-5l98.25,56.72.41,25.52-98.24-56.74Z"/><path class="cls-21" d="M131.71,212.58a1.09,1.09,0,0,1-.17-.13.27.27,0,0,1-.11-.1,1.05,1.05,0,0,1-.2-.27.45.45,0,0,1-.1-.14,2.27,2.27,0,0,1-.25-.55,4.75,4.75,0,0,1-.2-.64c-.06-.24-.1-.48-.14-.74a3.47,3.47,0,0,1-.06-.45V192.05a13.16,13.16,0,0,1,.92-5l98.25,56.72.41,25.52-98.24-56.74Z"/><path class="cls-27" d="M229.58,243.81h0s-77.38-36.21-84.42-39.53c-4.65-2.19-6.93,2.41-5.83,7.17,1,4.16,5.07,8.45,5.07,8.45h0l-12.65-7.31h0a1.09,1.09,0,0,1-.17-.13.27.27,0,0,1-.11-.1,1.05,1.05,0,0,1-.2-.27.45.45,0,0,1-.1-.14,2.27,2.27,0,0,1-.25-.55,4.75,4.75,0,0,1-.2-.64c-.06-.24-.1-.48-.14-.74a3.47,3.47,0,0,1-.06-.45V192.05a13.16,13.16,0,0,1,.92-5Z"/><path class="cls-5" d="M228.67,248.78h2.2a10,10,0,0,1,1.06-4.8,3,3,0,0,0,1.81.59,5.74,5.74,0,0,0,2.73-.86,8.35,8.35,0,0,0,2.54-2.23,1.43,1.43,0,0,0,.14-.2,3.67,3.67,0,0,0,.65-1.88l58.07-33.52,2-1.15,2.52-1.45a1.33,1.33,0,0,0,.77-1.13v-2.57a1.36,1.36,0,0,1-.77,1.16h0l-6.67,3.84L239.57,237c-1,.6-1.9,1.36-1.9,1.7v.6a1.77,1.77,0,0,1-.52,1,6.12,6.12,0,0,1-1.72,1.44c-1.24.72-2.24.75-2.24.09v-.59c0-.35-.49-.32-1.12,0l-1.11.65C229.67,242.7,228.67,245.75,228.67,248.78Z"/><path class="cls-5" d="M230.87,248.78v17l0,.55v.05c.2-1.75,1.87-3.31,3.32-4.13a5.49,5.49,0,0,1,2.69-.84,3,3,0,0,1,2,.73l.19-.11.39-.23,56.15-32.43,3.23-1.86.92-.54,2.72-1.57a1.28,1.28,0,0,0,.6-1.05v2.57a1.28,1.28,0,0,1-.56,1h0c-.32.19-.66.37-1,.58l-.63.37-1.08.62c-.24.15-.46.28-.67.39s-.33.2-.47.27l-.83.49-44.61,25.74L239,264.57c-1,.6-1.83.81-1.89.5v-.68c0-.72-1-.72-2.23,0a3,3,0,0,0-1.76,2.24v.7a1,1,0,0,1-.33.84l-.33.19-.7.4-.87.51a.89.89,0,0,1-1.11-.1.27.27,0,0,1-.11-.1,1,1,0,0,1-.2-.26h0a.71.71,0,0,1-.1-.14,2.27,2.27,0,0,1-.25-.55,5.1,5.1,0,0,1-.2-.63c-.06-.25-.1-.49-.14-.75a1.74,1.74,0,0,1-.06-.45V248.78Z"/><g class="cls-28"><path d="M228.67,248.78h2.2a10,10,0,0,1,1.06-4.8,3,3,0,0,0,1.81.59,5.74,5.74,0,0,0,2.73-.86,8.35,8.35,0,0,0,2.54-2.23,1.43,1.43,0,0,0,.14-.2,3.67,3.67,0,0,0,.65-1.88l58.07-33.52,2-1.15,2.52-1.45a1.33,1.33,0,0,0,.77-1.13v-2.57a1.36,1.36,0,0,1-.77,1.16h0l-6.67,3.84L239.57,237c-1,.6-1.9,1.36-1.9,1.7v.6a1.77,1.77,0,0,1-.52,1,6.12,6.12,0,0,1-1.72,1.44c-1.24.72-2.24.75-2.24.09v-.59c0-.35-.49-.32-1.12,0l-1.11.65C229.67,242.7,228.67,245.75,228.67,248.78Z"/><path d="M230.87,248.78v17l0,.55v.05c.2-1.75,1.87-3.31,3.32-4.13a5.49,5.49,0,0,1,2.69-.84,3,3,0,0,1,2,.73l.19-.11.39-.23,56.15-32.43,3.23-1.86.92-.54,2.72-1.57a1.28,1.28,0,0,0,.6-1.05v2.57a1.28,1.28,0,0,1-.56,1h0c-.32.19-.66.37-1,.58l-.63.37-1.08.62c-.24.15-.46.28-.67.39s-.33.2-.47.27l-.83.49-44.61,25.74L239,264.57c-1,.6-1.83.81-1.89.5v-.68c0-.72-1-.72-2.23,0a3,3,0,0,0-1.76,2.24v.7a1,1,0,0,1-.33.84l-.33.19-.7.4-.87.51a.89.89,0,0,1-1.11-.1.27.27,0,0,1-.11-.1,1,1,0,0,1-.2-.26h0a.71.71,0,0,1-.1-.14,2.27,2.27,0,0,1-.25-.55,5.1,5.1,0,0,1-.2-.63c-.06-.25-.1-.49-.14-.75a1.74,1.74,0,0,1-.06-.45V248.78Z"/></g><path class="cls-11" d="M131.33,187.08,224.71,241l70.58-40.75a1.15,1.15,0,0,0,.73-1.47,1.11,1.11,0,0,0-.73-.73l-92.4-53.36-62,35.82h0l-1.53.89a1.38,1.38,0,0,0-.37.81v.6c0,.66-1,1.77-2.23,2.48a1.24,1.24,0,0,1-.2.1l-2.06-1.19-1,.56-.14.07h0l-.72.42A3.77,3.77,0,0,0,131.33,187.08Z"/><path class="cls-4" d="M290.08,200.65l-2.81-1.5,2.56-.61A1.92,1.92,0,0,1,290.08,200.65Z"/><path class="cls-29" d="M290.08,200.65l-2.81-1.5,2.56-.61A1.92,1.92,0,0,1,290.08,200.65Z"/><path class="cls-5" d="M215.61,238.15a6.31,6.31,0,0,0,5.71,0l64.14-37-96-60.69-2.25-1.3L123.08,181.4c-1.57.91-1.57,2.39,0,3.3Z"/><path class="cls-5" d="M239.69,162.92l48.46,32.84-26.09-20,14.48-8.36,16.84,9.75v17.39c0,1.48-1.65,3.57-2.25,3.23a16.66,16.66,0,0,0-3.22,1.14,24,24,0,0,0-4.65,3.44l-51.39-34.93Z"/><path class="cls-30" d="M239.69,162.92l48.46,32.84-26.09-20,14.48-8.36,16.84,9.75v17.39c0,1.48-1.65,3.57-2.25,3.23a16.66,16.66,0,0,0-3.22,1.14,24,24,0,0,0-4.65,3.44l-51.39-34.93Z"/><path class="cls-7" d="M218.46,216.44v20.08a4,4,0,0,0,1.91-.45l7-4.06L281,201.07V180.33Z"/><path class="cls-14" d="M124.67,164.15v16.67a4.22,4.22,0,0,0,1.9,3.3l83,47.9,7,4.06a3.91,3.91,0,0,0,1.9.45V218Z"/><path class="cls-15" d="M281,201.07a3.74,3.74,0,0,1,.8-2.08,8.23,8.23,0,0,1,2.54-2.23,5.7,5.7,0,0,1,2.74-.86,2.79,2.79,0,0,1,1.8.42V175.78L281,180.33Z"/><path class="cls-2" d="M284.14,196.88A8.27,8.27,0,0,0,281.8,199a3.74,3.74,0,0,0-.8,2.08v-20h3.13Z"/><path class="cls-5" d="M189.45,122.31l96,55.45V179c0,.72,1,1,2.23.27s2.25-1.61,2.25-2.84l.12-1.22-97.83-56.48-.4-.23a1.25,1.25,0,0,0-.16.6v.59C191.67,120.44,190.68,121.59,189.45,122.31Z"/><path class="cls-30" d="M189.45,122.31l96,55.45V179c0,.72,1,1,2.23.27s2.25-1.61,2.25-2.84l.12-1.22-97.83-56.48-.4-.23a1.25,1.25,0,0,0-.16.6v.59C191.67,120.44,190.68,121.59,189.45,122.31Z"/><path class="cls-5" d="M221.32,214.79l62.76-36.21c.8-.42,1.53-.76,1.83-.6l-.41-.22-96-55.45-1.13-.64a3.57,3.57,0,0,0-3,.45l-62.29,35.93c-1.57.91-1.57,2.4,0,3.3l92.55,53.44A6.33,6.33,0,0,0,221.32,214.79Z"/><path class="cls-5" d="M191.83,118.54l.4.23,97.85,56.48a.71.71,0,0,1,.21-.27l.33-.18.7-.41.87-.51a.89.89,0,0,1,1.11.1.52.52,0,0,1,.11.1,1.73,1.73,0,0,1,.3.41,2.73,2.73,0,0,1,.25.55,4.75,4.75,0,0,1,.2.64c0,.24.1.48.14.74a3.4,3.4,0,0,1,.06.46v-1.53a5.81,5.81,0,0,0-2.86-4.4L199,117.51a5.71,5.71,0,0,0-5.09-.36l-1.17.68h0l-.49.29h0A1,1,0,0,0,191.83,118.54Z"/><path class="cls-5" d="M221.32,238.15l3.87-2.24,58.07-33.53a3.77,3.77,0,0,1,.8-2.08,8.35,8.35,0,0,1,2.54-2.23,5.72,5.72,0,0,1,2.73-.85,2.89,2.89,0,0,1,1.81.59A10,10,0,0,0,292.2,193h2.2c0,3-1,6.08-2.23,6.79l-1.11.65c-.63.36-1.12.38-1.12,0v-.59c0-.66-1-.63-2.25.08s-2.23,1.83-2.23,2.49V203c0,.34-.85,1.1-1.9,1.71L227.4,237.15l-6.08,3.51h0a6.13,6.13,0,0,1-2.85.67v-2.54A5.87,5.87,0,0,0,221.32,238.15Z"/><path class="cls-31" d="M221.32,238.15l3.87-2.24,58.07-33.53a3.77,3.77,0,0,1,.8-2.08,8.35,8.35,0,0,1,2.54-2.23,5.72,5.72,0,0,1,2.73-.85,2.89,2.89,0,0,1,1.81.59A10,10,0,0,0,292.2,193h2.2c0,3-1,6.08-2.23,6.79l-1.11.65c-.63.36-1.12.38-1.12,0v-.59c0-.66-1-.63-2.25.08s-2.23,1.83-2.23,2.49V203c0,.34-.85,1.1-1.9,1.71L227.4,237.15l-6.08,3.51h0a6.13,6.13,0,0,1-2.85.67v-2.54A5.87,5.87,0,0,0,221.32,238.15Z"/><path class="cls-5" d="M221.3,214.8h0l3.87-2.24,44.61-25.74,14.3-8.24c1-.59,1.84-.8,1.9-.49h0v.65c0,.71,1,.71,2.23,0a3,3,0,0,0,1.76-2.25v-.7a1,1,0,0,1,.33-.84l.33-.18.7-.41.87-.51a.89.89,0,0,1,1.11.1.52.52,0,0,1,.11.1,1.35,1.35,0,0,1,.2.27.71.71,0,0,1,.1.14,2.73,2.73,0,0,1,.25.55,4.75,4.75,0,0,1,.2.64c.05.24.1.48.14.74a3.4,3.4,0,0,1,.06.46V193h-2.2V177.46l-.05-.55h0c-.2,1.75-1.87,3.31-3.33,4.13a5.42,5.42,0,0,1-2.68.84,3,3,0,0,1-2-.73l-.19.11-.39.23-56.16,32.43-6.08,3.51h0a6,6,0,0,1-2.81.65v-2.54A5.9,5.9,0,0,0,221.3,214.8Z"/><path class="cls-31" d="M221.3,214.8h0l3.87-2.24,44.61-25.74,14.3-8.24c1-.59,1.84-.8,1.9-.49h0v.65c0,.71,1,.71,2.23,0a3,3,0,0,0,1.76-2.25v-.7a1,1,0,0,1,.33-.84l.33-.18.7-.41.87-.51a.89.89,0,0,1,1.11.1.52.52,0,0,1,.11.1,1.35,1.35,0,0,1,.2.27.71.71,0,0,1,.1.14,2.73,2.73,0,0,1,.25.55,4.75,4.75,0,0,1,.2.64c.05.24.1.48.14.74a3.4,3.4,0,0,1,.06.46V193h-2.2V177.46l-.05-.55h0c-.2,1.75-1.87,3.31-3.33,4.13a5.42,5.42,0,0,1-2.68.84,3,3,0,0,1-2-.73l-.19.11-.39.23-56.16,32.43-6.08,3.51h0a6,6,0,0,1-2.81.65v-2.54A5.9,5.9,0,0,0,221.3,214.8Z"/><path class="cls-5" d="M121.89,159.67v2.58a2,2,0,0,0,1.13,1.63h0L209.5,213.8l6.07,3.51h0a6.09,6.09,0,0,0,2.84.67v-2.54a5.79,5.79,0,0,1-2.85-.68l-3.86-2.23h0l-88.62-51.18A1.94,1.94,0,0,1,121.89,159.67Z"/><path class="cls-30" d="M121.89,159.67v2.58a2,2,0,0,0,1.13,1.63h0L209.5,213.8l6.07,3.51h0a6.09,6.09,0,0,0,2.84.67v-2.54a5.79,5.79,0,0,1-2.85-.68l-3.86-2.23h0l-88.62-51.18A1.94,1.94,0,0,1,121.89,159.67Z"/><path class="cls-5" d="M121.89,183v2.58a2,2,0,0,0,1.13,1.63h0l86.52,49.93,6.07,3.51h0a6.09,6.09,0,0,0,2.84.67v-2.54a5.79,5.79,0,0,1-2.85-.68l-3.86-2.23h0l-88.66-51.19A1.94,1.94,0,0,1,121.89,183Z"/><path class="cls-30" d="M121.89,183v2.58a2,2,0,0,0,1.13,1.63h0l86.52,49.93,6.07,3.51h0a6.09,6.09,0,0,0,2.84.67v-2.54a5.79,5.79,0,0,1-2.85-.68l-3.86-2.23h0l-88.66-51.19A1.94,1.94,0,0,1,121.89,183Z"/><polygon class="cls-32" points="161.83 92.28 152.65 108.64 166.03 115.76 175.77 101.26 161.83 92.28"/><path class="cls-5" d="M194.4,55.43c-5.1-.87-12.82-1.1-17.84,7.51S160.72,92.8,160.72,92.8s6.32,8.18,15.47,9.67l14.95-23.72Z"/><rect class="cls-32" x="170.93" y="255.79" width="11.42" height="19.55"/><polygon class="cls-32" points="149.29 251.03 137.87 251.42 137.3 230.73 148.71 230.34 149.29 251.03"/><path class="cls-11" d="M170.93,269.7v-1.63c-1.09.47-3.63,10.16-8.16,14.29-3.6,3.29-8.51,7.08-9.76,10.74s6.84,5.92,10.2,5.32c3.91-.69,10.69-3.44,12.39-6s2.5-6.31,3.88-8.18,4.57-4,5.32-6.13c.41-1.19-.08-3.79-.65-6-.53-2-1.11-4.24-1.8-4.05v1.24c-.83.92-3.12,1.83-5.71,1.93C175,271.31,170.92,271,170.93,269.7Z"/><path class="cls-11" d="M137.75,247.9c-.59,0-1.07.86-2.38,2.27a24.88,24.88,0,0,1-6.72,4.83c-4.28,2.15-12.57,5.44-16.35,7.15-2.35,1.06-2.24,3.9.19,5.52s8.29,2.78,15.34,1.2c3.83-.86,8.83-4.4,12-4.21s9.08.15,11.41-1.46,1.4-5,.74-8c-.72-3.22-1.75-8.15-2.82-7.93v1c-1.37,2.08-8.36,2.93-11.38,1.4Z"/><path class="cls-15" d="M228.35,136.9c2.5,17.65-.87,21-17.64,37.94-9,9.09-23.55,22.42-23.55,22.42s.21,5.64.32,18.28c.11,11.13-4.54,47.35-4.54,47.35s-7.58,3.19-12.78-.12c0,0-2.35-26.95-3.62-41-1.72-19-2.62-28.58-1.65-32.67.86-3.61,17.93-25.17,21.87-31.21L150.48,179a123.94,123.94,0,0,1,1.06,16.11c-.4,15.11-2.26,45.29-2.26,45.29s-8.3,3.71-12.42.51c0,0-10.45-66-10.45-71.42,0-8.23,35.74-32.8,42.51-38.52,3.86-3.26,8.16-6.79,8.16-6.79Z"/><path class="cls-12" d="M186.76,157.9a26.2,26.2,0,0,1-8.29-11.83,59.31,59.31,0,0,0,1.29,9c1,3.92-29.28,23.9-29.28,23.9Z"/><circle class="cls-11" cx="191.14" cy="20.16" r="16.21"/><path class="cls-11" d="M225.2,65.25s4,3.28,4,13.64v22.37l-.57,37.62c-8,8.71-44,5.41-52.91-13.59,0,0,.07-39.71.07-48.61s5-20.45,18.6-21.25L212,59.53Z"/><path class="cls-11" d="M219.16,31.69S216.53,44,215.48,46.06a5.57,5.57,0,0,1-3.23,2.6l.18-8.68Z"/><path class="cls-11" d="M215.86,14a6.05,6.05,0,0,1,5,1.77c2.16,2.21.95,9.13-1.74,15.91l-5,.57Z"/><path class="cls-32" d="M212.73,32.26c1,.59,2.41-1.31,3.63-2.59s5.22-3,7.21,1.17-1.76,9.93-4.9,10.92c-5.42,1.7-6.24-1.78-6.24-1.78L212,59.53c-4.67,5.22-20.64,4-17.63-.52V53s-4.91.75-7.3.38c-4-.62-6.5-3.76-7.71-8.08-1.94-6.93-2.68-12.52-1-26.15C180.19,4.22,197.56,4.07,206.94,10S212.73,32.26,212.73,32.26Z"/><path class="cls-11" d="M198.92,35.68h-.84a5.53,5.53,0,1,1,0-11.06h.85a5.53,5.53,0,0,1,0,11.06h0Zm-.84-10.13a4.6,4.6,0,0,0,0,9.2h.85a4.6,4.6,0,0,0,0-9.2h-.86Z"/><path class="cls-11" d="M182.08,35.68h-.85a5.53,5.53,0,0,1,0-11.06h.86a5.53,5.53,0,1,1,0,11.06Zm-.85-10.13a4.6,4.6,0,1,0,0,9.2h.85a4.6,4.6,0,1,0,0-9.2Z"/><path class="cls-11" d="M192.61,29.06a3.66,3.66,0,0,0-2.92-1.49,3,3,0,0,0-2.55,1L186.4,28a3.82,3.82,0,0,1,3.34-1.33,4.52,4.52,0,0,1,3.67,1.93Z"/><rect class="cls-11" x="203.94" y="29.02" width="11.76" height="0.93"/><path class="cls-11" d="M212.73,33.93c.5,0,2.39-3.14,3.63-4.26,1.71-1.56-.5-15.66-.5-15.66s1.65-3.51-1.65-7.13C211.87,4.3,208,4,201.26,3c-3.51-.55-8.83-1.54-12.34-2.19-4.18-.78-7.65-1.6-10.6,1a7.43,7.43,0,0,0-2,8.31,7.59,7.59,0,0,0,4.2,3.85s1.82,1.62,8.17,2.39,16.24-.14,17.59-.33c1.84-.25,2.23,1.53,3.23,6.41C210.33,26.65,211.08,33.9,212.73,33.93Z"/><path class="cls-11" d="M215.85,15.15l6-3.23a3.32,3.32,0,0,0-4.41-1.57l-.13.07A3.59,3.59,0,0,0,215.85,15.15Z"/><path class="cls-19" d="M194.4,53.06s8.9-1.79,12-3.44a10.27,10.27,0,0,0,4.3-4.26,14,14,0,0,1-2.44,5c-2.28,2.91-13.87,5-13.87,5Z"/><path class="cls-11" d="M196.54,30a1.79,1.79,0,1,0,1.78-1.86A1.82,1.82,0,0,0,196.54,30Z"/><path class="cls-11" d="M199.4,22.66l3.82,2.1a2.3,2.3,0,0,0-.89-3,2.12,2.12,0,0,0-2.89.83A.25.25,0,0,0,199.4,22.66Z"/><path class="cls-19" d="M195.21,42.35l-4.07,1.53a2.13,2.13,0,0,0,2.68,1.38l.08,0A2.28,2.28,0,0,0,195.21,42.35Z"/><path class="cls-11" d="M180.18,24.22l3.48-2.67a2.1,2.1,0,0,0-2.92-.53l-.08.06A2.31,2.31,0,0,0,180.18,24.22Z"/><path class="cls-11" d="M181.71,29.53a1.79,1.79,0,1,0,1.78-1.86,1.82,1.82,0,0,0-1.78,1.86Z"/><polygon class="cls-19" points="190.52 28.1 190.32 38.91 183.93 37.5 190.52 28.1"/><path class="cls-5" d="M179.6,118v1a2.91,2.91,0,0,1-1.46,2.52l-27.77,16a2.91,2.91,0,0,1-2.91,0L96.51,108.08a2.91,2.91,0,0,1-1.46-2.52v-.71l53.86,31.09Z"/><path class="cls-23" d="M179.6,118v1a2.91,2.91,0,0,1-1.46,2.52l-27.77,16a2.91,2.91,0,0,1-2.91,0L96.51,108.08a2.91,2.91,0,0,1-1.46-2.52v-.71l53.86,31.09Z"/><path class="cls-5" d="M95.08,104.86l30.21-17.44a1.74,1.74,0,0,1,1.74,0l52.4,30.26a.38.38,0,0,1,.14.53.38.38,0,0,1-.14.14L148.94,136Z"/><path class="cls-22" d="M95.08,104.86l30.21-17.44a1.74,1.74,0,0,1,1.74,0l52.4,30.26a.38.38,0,0,1,.14.53.38.38,0,0,1-.14.14L148.94,136Z"/><polygon class="cls-11" points="149.19 133.39 165.48 123.99 117.84 96.49 101.46 105.84 149.19 133.39"/><polygon class="cls-11" points="157.2 107.25 156.9 107.42 148.91 112.03 134.71 103.83 134.42 103.66 142.7 98.88 157.2 107.25"/><polygon class="cls-11" points="156.9 107.42 148.91 112.03 134.71 103.83 142.7 99.22 156.9 107.42"/><path class="cls-21" d="M148.91,136v1.94a2.94,2.94,0,0,1-1.45-.39L96.51,108.09a2.91,2.91,0,0,1-1.46-2.52v-.71Z"/><path class="cls-5" d="M148.08,136.38a3.44,3.44,0,0,1-3-.23L94.36,106.87a3.45,3.45,0,0,1-1.68-2.41L87.13,71.34a3.53,3.53,0,0,1,0-.56,3.43,3.43,0,0,1,1-2.46l52.71,30.44a2.56,2.56,0,0,1,1.29,1.79Z"/><path class="cls-22" d="M148.08,136.38a3.44,3.44,0,0,1-3-.23L94.36,106.87a3.45,3.45,0,0,1-1.68-2.41L87.13,71.34a3.53,3.53,0,0,1,0-.56,3.43,3.43,0,0,1,1-2.46l52.71,30.44a2.56,2.56,0,0,1,1.29,1.79Z"/><path class="cls-4" d="M148.91,136l-.34.2a3.54,3.54,0,0,1-.48.23l-6-35.83a2.57,2.57,0,0,0-1.24-1.79L88.14,68.32a3,3,0,0,1,.7-.53l52.82,30.49a2.57,2.57,0,0,1,1.24,1.79Z"/><path class="cls-5" d="M119.52,105.81c-.37-2.21-2.66-5.16-5.11-6.57s-4.14-.77-3.76,1.45,2.66,5.16,5.11,6.58S119.9,108,119.52,105.81Z"/><path class="cls-32" d="M129.91,127.37a17.83,17.83,0,0,0-.83-4.22c-.78-2.45-3.1-11.89-8.4-13.31a3.76,3.76,0,0,0-1.94-.06c-1.47.4-2.14,1.93-2.43,3.3a23.07,23.07,0,0,0,0,6.1,11.94,11.94,0,0,0-2.83-2.37,5.78,5.78,0,0,0-3.25-1.16.81.81,0,0,0-.55,1.5c.53.64,1.18,1.18,1.71,1.82a18,18,0,0,1,1.15,1.74c.67,1.08,1.42,2.1,2.17,3.13a21.89,21.89,0,0,0,5.34,5.52,20.19,20.19,0,0,0,8,3.19c3.87.48,7.63.42,10.07-.43Z"/><path class="cls-32" d="M224.14,65.54C220.57,63.7,215.35,71,217,78.61S226.85,113,226.85,113s-36.95,3.3-40.09,3.69c-2.19.26-4.64-.85-6.67-1.52-2.76-.92-5.55-1.56-8.27-2.56a3.42,3.42,0,0,0-1.51-.32,1.18,1.18,0,0,0-1.11.93,1.65,1.65,0,0,0,.23.89,11.6,11.6,0,0,0,3.81,4.44,15.87,15.87,0,0,1,2.24,1.58c.43.43,1.38,1.62,1,2.27l-14.68,8.45s3.38,2.94,15.62-.49a80.38,80.38,0,0,0,12.87-4.57s43.54,1.81,51.41-.57c2.78-.85,3.78-2.82,1.9-11.78-2.15-10.38-8.32-29.31-9.72-34.31C230.81,68.32,230.08,68.57,224.14,65.54Z"/><path class="cls-5" d="M222.3,64s5.9,1.66,8.44,5,12.34,35.65,12.34,35.65a23,23,0,0,1-18.66,5s-7.88-22.35-8.72-28.32C214.21,72.07,218.73,64.79,222.3,64Z"/><path class="cls-5" d="M190.46,85.67c-.48-2.5,1.08-3.85,3.49-3a8.8,8.8,0,0,1,5.2,6C199.63,91.2,190.93,88.15,190.46,85.67Z"/><path class="cls-5" d="M207,93.46,199.86,89c.36,1.92-2.23,1.65-4.56.84s-5.18-2.45-5.55-4.37l-6.18-.08c-.57,0-.58.74,0,1.35,1.53,1.71,5.09,4.74,12.57,7.35s10.35,1.8,11.43,1C207.92,94.74,207.6,93.87,207,93.46Z"/></g></g></g></svg>