<svg id="Layer_1" data-name="Layer 1" xmlns="http://www.w3.org/2000/svg" viewBox="0 0 119.58 39.99"><defs><style>.cls-1{fill:#b7b7b7;}.cls-2{fill:#fff;}</style></defs><path class="cls-1" d="M110.06,0H7.45a13.39,13.39,0,0,0-2,.18A6.75,6.75,0,0,0,3.6.81,6.33,6.33,0,0,0,2,2,6.07,6.07,0,0,0,.8,3.62a6.44,6.44,0,0,0-.63,1.9,11.18,11.18,0,0,0-.17,2v25a11.18,11.18,0,0,0,.17,2A6.4,6.4,0,0,0,.8,36.43,6,6,0,0,0,2,38,5.93,5.93,0,0,0,3.6,39.18a6.44,6.44,0,0,0,1.9.63,13.39,13.39,0,0,0,2,.18H112.07a13.39,13.39,0,0,0,2-.18,7.14,7.14,0,0,0,1.91-.63A6.07,6.07,0,0,0,117.6,38a6.88,6.88,0,0,0,1.18-1.61,7.62,7.62,0,0,0,.62-1.91,13.39,13.39,0,0,0,.18-2v-25a13.39,13.39,0,0,0-.18-2,7.42,7.42,0,0,0-.62-1.9A6.72,6.72,0,0,0,117.6,2,7.05,7.05,0,0,0,116,.81a7.14,7.14,0,0,0-1.91-.63,13.39,13.39,0,0,0-2-.18h-2Z"/><path d="M8.37,39.13h-.9A11.68,11.68,0,0,1,5.6,39a5.57,5.57,0,0,1-1.67-.6,4.93,4.93,0,0,1-1.39-1,5.12,5.12,0,0,1-1-1.4A5.41,5.41,0,0,1,1,34.34a10.65,10.65,0,0,1-.16-1.87V7.55A10.65,10.65,0,0,1,1,5.68,5.51,5.51,0,0,1,1.53,4a5,5,0,0,1,1-1.4,5.58,5.58,0,0,1,1.4-1A5.75,5.75,0,0,1,5.6,1.05,11.83,11.83,0,0,1,7.48.89H112.06a13,13,0,0,1,1.86.16,6,6,0,0,1,1.66.55A5.45,5.45,0,0,1,118,4a6,6,0,0,1,.54,1.65,16.83,16.83,0,0,1,.17,1.88V32.47a14.29,14.29,0,0,1-.17,1.85A6.16,6.16,0,0,1,118,36a5.71,5.71,0,0,1-1,1.39,5.12,5.12,0,0,1-1.4,1,5.9,5.9,0,0,1-1.67.62,11.7,11.7,0,0,1-1.87.16H8.37Z"/><path class="cls-2" d="M24.7,20.3a4.87,4.87,0,0,1,2.36-4.15,5.08,5.08,0,0,0-4-2.16c-1.67-.18-3.3,1-4.16,1s-2.19-1-3.61-1a5.3,5.3,0,0,0-4.47,2.73c-1.89,3.39-.49,8.28,1.36,11,.93,1.33,2,2.81,3.43,2.75s1.9-.88,3.58-.88,2.14.88,3.59.85,2.43-1.31,3.32-2.63a11.18,11.18,0,0,0,1.5-3.11A4.73,4.73,0,0,1,24.7,20.3Z"/><path class="cls-2" d="M21.93,12.21A5,5,0,0,0,23,8.72a5,5,0,0,0-3.21,1.66,4.63,4.63,0,0,0-1.14,3.36A4.11,4.11,0,0,0,21.93,12.21Z"/><path class="cls-2" d="M42.23,27.14H37.5L36.36,30.5h-2l4.48-12.42h2.09L45.41,30.5h-2ZM38,25.59h3.75l-1.81-5.45h0Z"/><path class="cls-2" d="M55.09,26c0,2.81-1.51,4.62-3.78,4.62A3.09,3.09,0,0,1,48.46,29h0v4.48H46.6v-12h1.8V23h0a3.21,3.21,0,0,1,2.89-1.6C53.6,21.35,55.09,23.16,55.09,26Zm-1.91,0c0-1.83-1-3-2.39-3s-2.38,1.23-2.38,3,1,3.05,2.38,3.05S53.18,27.81,53.18,26Z"/><path class="cls-2" d="M65.05,26c0,2.81-1.5,4.62-3.77,4.62A3.09,3.09,0,0,1,58.43,29h0v4.48h-1.9v-12h1.8V23h0a3.21,3.21,0,0,1,2.88-1.6C63.54,21.35,65.05,23.16,65.05,26Zm-1.91,0c0-1.83-.94-3-2.39-3s-2.37,1.23-2.37,3,1,3,2.37,3S63.14,27.81,63.14,26Z"/><path class="cls-2" d="M71.6,27c.14,1.23,1.33,2,3,2s2.69-.81,2.69-1.92-.68-1.54-2.29-1.94l-1.61-.39c-2.28-.55-3.33-1.61-3.33-3.34,0-2.15,1.9-3.6,4.54-3.6s4.43,1.47,4.49,3.62h-1.9c-.11-1.24-1.14-2-2.63-2S72,20.18,72,21.29c0,.87.65,1.39,2.25,1.79l1.37.33c2.55.6,3.61,1.63,3.61,3.44,0,2.33-1.86,3.78-4.8,3.78-2.75,0-4.61-1.42-4.73-3.66Z"/><path class="cls-2" d="M83.28,19.3v2.14H85v1.47H83.28v5c0,.77.33,1.13,1.09,1.13H85V30.5a5.55,5.55,0,0,1-1,.09c-1.84,0-2.56-.69-2.56-2.45V22.91H80.09V21.44h1.32V19.3Z"/><path class="cls-2" d="M86,26c0-2.85,1.68-4.64,4.3-4.64S94.6,23.15,94.6,26,93,30.61,90.31,30.61,86,28.81,86,26Zm6.69,0c0-1.95-.9-3.11-2.4-3.11S87.93,24,87.93,26s.89,3.11,2.4,3.11S92.69,27.93,92.68,26Z"/><path class="cls-2" d="M96.12,21.44h1.81V23h0a2.16,2.16,0,0,1,2.18-1.63,2.73,2.73,0,0,1,.64.07v1.74a2.32,2.32,0,0,0-.82-.18,1.88,1.88,0,0,0-2,1.74,2.54,2.54,0,0,0,0,.39V30.5H96.12Z"/><path class="cls-2" d="M109.31,27.81c-.25,1.64-1.85,2.77-3.89,2.77-2.64,0-4.27-1.77-4.27-4.6s1.64-4.68,4.19-4.68,4.08,1.72,4.08,4.47v.63H103v.12a2.35,2.35,0,0,0,2.13,2.55h.31a2.06,2.06,0,0,0,2.14-1.26ZM103,25.1h4.57a2.18,2.18,0,0,0-2-2.29h-.18a2.3,2.3,0,0,0-2.3,2.28H103Z"/><path class="cls-2" d="M37.76,8.73a2.63,2.63,0,0,1,2.84,2.41v0a2.53,2.53,0,0,1,0,.55c0,1.9-1,3-2.8,3H35.6v-6Zm-1.23,5.08h1.12a1.87,1.87,0,0,0,2-1.71,1.55,1.55,0,0,0,0-.43,1.89,1.89,0,0,0-1.6-2.13H36.53Z"/><path class="cls-2" d="M41.6,12.44a2.13,2.13,0,0,1,4.25-.32v.32a2.13,2.13,0,0,1-4.25.29A1.41,1.41,0,0,1,41.6,12.44Zm3.33,0c0-1-.43-1.54-1.2-1.54s-1.21.57-1.21,1.54S42.92,14,43.73,14s1.19-.58,1.19-1.56Z"/><path class="cls-2" d="M51.5,14.7h-.9l-.93-3.32H49.6l-.93,3.32h-.91L46.5,10.19h.9l.81,3.44h.06l.93-3.44h.85L51,13.63h.07l.8-3.44h.89Z"/><path class="cls-2" d="M53.78,10.19h.82v.72h.07a1.33,1.33,0,0,1,1.34-.8,1.47,1.47,0,0,1,1.59,1.34h0a2.16,2.16,0,0,1,0,.36v2.92h-.89V12c0-.73-.32-1.09-1-1.09a1,1,0,0,0-1.11.87.89.89,0,0,0,0,.23v2.65h-.89Z"/><path class="cls-2" d="M59,8.44h.91V14.7H59Z"/><path class="cls-2" d="M61.15,12.44a2.13,2.13,0,0,1,4.25-.32v.32a2.13,2.13,0,0,1-4.25.29A1.41,1.41,0,0,1,61.15,12.44Zm3.33,0c0-1-.44-1.54-1.21-1.54s-1.2.57-1.2,1.54S62.5,14,63.27,14,64.48,13.42,64.48,12.44Z"/><path class="cls-2" d="M66.33,13.42c0-.81.6-1.27,1.68-1.34L69.23,12v-.39c0-.47-.32-.74-.93-.74s-.84.18-.93.5H66.5c.1-.78.82-1.27,1.83-1.27a1.57,1.57,0,0,1,1.77,1.51V14.7h-.86v-.64h-.07a1.47,1.47,0,0,1-1.35.71,1.36,1.36,0,0,1-1.49-1.21Zm2.9-.42v-.38l-1.1.07c-.62,0-.91.26-.91.65s.36.64.84.64A1.06,1.06,0,0,0,69.22,13Z"/><path class="cls-2" d="M71.28,12.44c0-1.42.73-2.32,1.87-2.32a1.5,1.5,0,0,1,1.38.79h0V8.44h.89V14.7H74.6V14h0a1.58,1.58,0,0,1-1.42.78C72,14.81,71.28,13.87,71.28,12.44Zm.91,0c0,1,.45,1.53,1.2,1.53s1.21-.58,1.21-1.52-.47-1.53-1.21-1.53S72.19,11.5,72.19,12.44Z"/><path class="cls-2" d="M79.16,12.44a2.13,2.13,0,0,1,4.25-.32v.32a2.13,2.13,0,0,1-4.25.29A1.41,1.41,0,0,1,79.16,12.44Zm3.33,0c0-1-.44-1.54-1.2-1.54s-1.21.57-1.21,1.54S80.51,14,81.29,14,82.49,13.42,82.49,12.44Z"/><path class="cls-2" d="M84.6,10.19h.84v.72h.07a1.36,1.36,0,0,1,1.35-.8,1.47,1.47,0,0,1,1.57,1.35V14.7h-.88V12c0-.73-.32-1.09-1-1.09a1,1,0,0,0-1.08.91h0a.81.81,0,0,0,0,.22V14.7H84.6Z"/><path class="cls-2" d="M93.44,9.07v1.15h1V11h-1v2.32c0,.47.2.68.63.68h.34v.74h-.48c-1,0-1.38-.34-1.38-1.21V11h-.72v-.74h.77V9.07Z"/><path class="cls-2" d="M95.6,8.44h.89v2.48h.11A1.38,1.38,0,0,1,98,10.11a1.48,1.48,0,0,1,1.56,1.39,1.41,1.41,0,0,1,0,.29V14.7H98.6V12c0-.72-.33-1.08-1-1.08a1,1,0,0,0-1.13.85.76.76,0,0,0,0,.15.49.49,0,0,0,0,.17v2.64H95.6Z"/><path class="cls-2" d="M104.69,13.48a1.82,1.82,0,0,1-2,1.3,2,2,0,0,1-2.09-1.89,1.55,1.55,0,0,1,0-.43,2.07,2.07,0,0,1,1.78-2.33h.3c1.25,0,2,.85,2,2.27v.31h-3.17v0A1.19,1.19,0,0,0,102.6,14h.15a1.1,1.1,0,0,0,1.08-.55ZM101.6,12h2.26a1.09,1.09,0,0,0-1-1.17h-.11A1.15,1.15,0,0,0,101.6,12Z"/></svg>