<svg xmlns="http://www.w3.org/2000/svg" xmlns:xlink="http://www.w3.org/1999/xlink" viewBox="0 0 746.56 208.73"><defs><style>.cls-1{fill:none;stroke-width:15.63px;stroke:url(#linear-gradient);}.cls-2{fill:url(#linear-gradient-2);}.cls-3{fill:url(#linear-gradient-3);}.cls-4{fill:url(#linear-gradient-4);}.cls-5{fill:url(#linear-gradient-5);}.cls-6{fill:url(#linear-gradient-6);}.cls-7{fill:#fff;}</style><linearGradient id="linear-gradient" y1="104.37" x2="215.62" y2="104.37" gradientUnits="userSpaceOnUse"><stop offset="0" stop-color="#e30577"/><stop offset="1" stop-color="#f568b0"/></linearGradient><linearGradient id="linear-gradient-2" x1="100.41" y1="77.98" x2="121.6" y2="77.98" xlink:href="#linear-gradient"/><linearGradient id="linear-gradient-3" x1="132.45" y1="77.98" x2="146.24" y2="77.98" xlink:href="#linear-gradient"/><linearGradient id="linear-gradient-4" x1="75.22" y1="77.98" x2="89" y2="77.98" xlink:href="#linear-gradient"/><linearGradient id="linear-gradient-5" x1="157.09" y1="77.98" x2="167.45" y2="77.98" xlink:href="#linear-gradient"/><linearGradient id="linear-gradient-6" x1="54.24" y1="77.98" x2="64.6" y2="77.98" xlink:href="#linear-gradient"/></defs><g id="Layer_2" data-name="Layer 2"><g id="Layer_1-2" data-name="Layer 1"><path id="HeyBrain_1" data-name="HeyBrain 1" class="cls-1" d="M94.25,8.62c-18.71,1.87-36.94,7.11-52.83,16.06-11.1,6.26-18,12.63-22.7,19.21A58.66,58.66,0,0,0,8.47,69.17a54.73,54.73,0,0,0-.4,13.71c1.28,12.53,8.13,24.92,19.49,35.86,7.79,7.51,16.11,12.2,29.12,17.63,11.48,4.79,30,10.72,33.95,12.15,7,2.51,18.07,7.44,27.72,11.95,16.1,7.54,34.17,17.29,52.23,28,2.84,1.69,5.63,3.37,8.44,5.09l3.61,1.76-.6-4.7c-.78-6.06-1.91-13.84-2.21-17.63A101.77,101.77,0,0,1,183,136.76a99.61,99.61,0,0,1,13.06-27.62c3.88-5.83,8.25-11.38,10.44-20.38,2.15-8.79,1.55-18.66-1.6-28.22-9.56-29-42.75-43.14-58.06-48C136.12,9.12,116.39,6.4,94.25,8.62Z"/><circle class="cls-2" cx="111" cy="77.98" r="10.6"/><circle class="cls-3" cx="139.34" cy="77.98" r="6.89"/><circle class="cls-4" cx="82.11" cy="77.98" r="6.89"/><circle class="cls-5" cx="162.27" cy="77.98" r="5.18"/><circle class="cls-6" cx="59.42" cy="77.98" r="5.18"/><path class="cls-7" d="M340,123.81h-6V81.68H284v42.13h-6V38.15h6v38h50v-38h6Z"/><path class="cls-7" d="M388.55,125q-13.89,0-21.65-8.56t-7.77-24q0-15.24,7.5-24.41t20.22-9.17q11.25,0,17.75,7.85t6.51,21.33v4.69H365.23q.12,13.13,6.12,20t17.2,6.91a53.22,53.22,0,0,0,9.58-.76,58.49,58.49,0,0,0,10.46-3.28v5.27a46.7,46.7,0,0,1-10,3.2A55.92,55.92,0,0,1,388.55,125Zm-1.7-60.94q-9.19,0-14.77,6.06t-6.5,17.49H405q0-11.07-4.8-17.31T386.85,64.05Z"/><path class="cls-7" d="M418,60.12h6l13.47,35.74q6.16,16.47,7.8,22.21h.35q2.46-7.56,8-22.56l13.47-35.39h6l-28.54,74q-3.45,9-5.8,12.18a15.47,15.47,0,0,1-5.48,4.75,16.74,16.74,0,0,1-7.58,1.58,26.09,26.09,0,0,1-7.44-1.23v-5a27.17,27.17,0,0,0,7.32.94,9.82,9.82,0,0,0,5.27-1.41,13,13,0,0,0,4.13-4.36,57.18,57.18,0,0,0,4.28-9.38c1.62-4.27,2.67-7.06,3.14-8.35Z"/><path class="cls-7" d="M485.23,38.15h23.49q15.88,0,23.32,5.39t7.45,16.29a17.62,17.62,0,0,1-4.55,12.39q-4.53,4.95-13.27,6.36v.35q10.26,1.53,15.09,6.48T541.6,99.2q0,11.83-7.86,18.23t-22.26,6.38H485.23Zm6,38.14h18.87q12.07,0,17.55-4t5.48-12.57q0-8.55-6.18-12.42t-18.43-3.87H491.2Zm0,5.28v37h20.16q23.79,0,23.79-19.34,0-17.62-25.08-17.63Z"/><path class="cls-7" d="M584.08,58.89a50.59,50.59,0,0,1,8.67.82l-1.12,5.57a33.61,33.61,0,0,0-8.26-1q-8.14,0-13.36,6.92T564.8,88.66v35.15H559V60.12h4.92l.59,11.49h.41q3.92-7,8.37-9.88A19.7,19.7,0,0,1,584.08,58.89Z"/><path class="cls-7" d="M644.37,123.81l-1.47-10.07h-.46a30.34,30.34,0,0,1-9.88,8.7,26.35,26.35,0,0,1-12,2.55q-9.37,0-14.59-4.81t-5.21-13.3a16.39,16.39,0,0,1,7.76-14.47Q616.3,87.25,631,87l12.13-.35V82.39q0-9.09-3.69-13.71t-11.9-4.63A39.8,39.8,0,0,0,609.21,69l-2.17-5A48.6,48.6,0,0,1,627.79,59q10.49,0,15.67,5.45t5.19,17v42.36Zm-23.44-4.1q10.2,0,16.09-5.83t5.88-16.2V91.41l-11.13.47q-13.41.65-19.13,4.19t-5.71,11q0,6,3.66,9.29T620.93,119.71Z"/><path class="cls-7" d="M668.45,42.43q0-5.62,3.69-5.63A3.27,3.27,0,0,1,675,38.27a7.12,7.12,0,0,1,1,4.16,7.34,7.34,0,0,1-1,4.16,3.25,3.25,0,0,1-2.84,1.52Q668.45,48.11,668.45,42.43Zm6.62,81.38h-5.8V60.12h5.8Z"/><path class="cls-7" d="M740.81,123.81V82.51q0-9.62-4-14t-12.54-4.36q-11.43,0-16.73,5.77t-5.3,18.72v35.15h-5.8V60.12h4.92l1.12,8.73h.35q6.21-10,22.09-10,21.68,0,21.68,23.26v41.66Z"/></g></g></svg>